<?xml version="1.0" encoding="utf-8"?>
<!-- Generator: Adobe Illustrator 25.0.1, SVG Export Plug-In . SVG Version: 6.00 Build 0)  -->
<svg version="1.1" xmlns="http://www.w3.org/2000/svg" xmlns:xlink="http://www.w3.org/1999/xlink" x="0px" y="0px"
	 viewBox="0 0 1920 1080" style="enable-background:new 0 0 1920 1080;" xml:space="preserve">
<style type="text/css">
	.st0{fill:#B71C1C;}
	.st1{fill:#81D4FA;}
	.st2{fill:#A1887F;}
	.st3{fill:url(#SVGID_1_);}
	.st4{fill:none;stroke:#000000;stroke-miterlimit:10;}
	.st5{stroke:#000000;stroke-miterlimit:10;}
</style>
<g id="mantle">
	<g>
		<rect x="0.5" y="584.5" class="st0" width="1919" height="495"/>
		<path d="M1919,585v494H1V585H1919 M1920,584H0v496h1920V584L1920,584z"/>
	</g>
</g>
<g id="plate">
	<g id="sky">
		<g>
			<rect x="0.5" y="0.5" class="st1" width="1919" height="230"/>
			<path d="M1919,1v229H1V1H1919 M1920,0H0v231h1920V0L1920,0z"/>
		</g>
	</g>
	<g>
		<path class="st2" d="M960,622.5c-251.25,0-937.57-22.27-959.5-22.98V480.44L960,355.5l959.5,124.94v119.08
			C1897.57,600.23,1211.25,622.5,960,622.5z"/>
		<path d="M960,356.01l959,124.87v118.15C1889.09,600,1209.69,622,960,622S30.91,600,1,599.03V480.88L960,356.01 M960,355L0,480v120
			c0,0,703,23,960,23s960-23,960-23V480L960,355L960,355z"/>
	</g>
	<g>
		<linearGradient id="SVGID_1_" gradientUnits="userSpaceOnUse" x1="0.5" y1="342.3135" x2="1919.5" y2="342.3135">
			<stop  offset="0" style="stop-color:#4CAF50"/>
			<stop  offset="0.2948" style="stop-color:#4EB04E"/>
			<stop  offset="0.4008" style="stop-color:#55B349"/>
			<stop  offset="0.4762" style="stop-color:#60B83F"/>
			<stop  offset="0.5" style="stop-color:#66BB3A"/>
			<stop  offset="0.5237" style="stop-color:#60B83F"/>
			<stop  offset="0.5989" style="stop-color:#55B349"/>
			<stop  offset="0.7047" style="stop-color:#4EB04E"/>
			<stop  offset="0.9988" style="stop-color:#4CAF50"/>
		</linearGradient>
		<path class="st3" d="M339.63,487.13c-194.13,0-330.06-7.11-339.13-7.6V231.47c63.54-4.4,120.55-5,167.96-5
			c24.32,0,49.33,0.18,75.81,0.36c30.02,0.21,61.06,0.43,95.27,0.43c135.23,0,332.75-3.38,662.5-29.76
			c271.85,22.9,403.16,26.06,504.55,26.06c26.35,0,51.35-0.23,75.52-0.46c23.89-0.22,48.6-0.45,74.33-0.45
			c59.62,0,137.49,1.05,263.05,8.83v248.01c-127.39-3.91-221.98-4.44-297.72-4.44c-28.73,0-56.94,0.09-84.23,0.17
			c-26.89,0.08-54.7,0.17-82.62,0.17c-143.02,0-283.79-2.36-505.91-13.88C763.07,478.51,558.06,487.13,339.63,487.13z"/>
		<path d="M1002,198c271.88,22.89,403.21,26.05,504.6,26.05c26.35,0,51.35-0.23,75.53-0.46c23.89-0.22,48.59-0.45,74.33-0.45
			c59.54,0,137.28,1.05,262.55,8.8v247.03c-127.12-3.9-221.57-4.43-297.22-4.43c-28.73,0-56.94,0.09-84.22,0.17
			c-26.89,0.08-54.7,0.17-82.62,0.17c-143.02,0-283.78-2.36-505.88-13.88l-0.07,0l-0.07,0.01c-185.88,17-390.87,25.62-609.28,25.62
			c-191.31,0-326.1-6.91-338.63-7.58V231.93c63.33-4.37,120.17-4.97,167.46-4.97c24.32,0,49.33,0.18,75.81,0.36
			c30.02,0.21,61.06,0.43,95.27,0.43C474.77,227.76,672.27,224.38,1002,198 M1002,197c-322.3,25.78-517.45,29.76-662.46,29.76
			c-64.74,0-119.5-0.79-171.08-0.79c-56.93,0-110.02,0.97-168.46,5.03v249c0,0,137.3,7.63,339.63,7.63
			c171.18,0,388.93-5.46,609.37-25.63c232.59,12.06,375.98,13.88,505.93,13.88c56.1,0,109.66-0.34,166.84-0.34
			c84.86,0,177.66,0.75,298.22,4.46V231c-117.44-7.28-195.65-8.86-263.55-8.86c-51.68,0-97.36,0.91-149.85,0.91
			C1400.78,223.05,1267.38,219.35,1002,197L1002,197z"/>
	</g>
</g>
<g id="lines">
	<g>
		<line class="st4" x1="917.01" y1="479.8" x2="937.5" y2="529.5"/>
	</g>
	<g>
		<line class="st4" x1="950.99" y1="461.05" x2="917.87" y2="480.17"/>
	</g>
	<g>
		<line class="st4" x1="937.5" y1="529.93" x2="914.5" y2="570.5"/>
	</g>
	<g>
		<line class="st4" x1="915.39" y1="568.16" x2="953.5" y2="625.5"/>
	</g>
</g>
<g id="arrow">
	<polygon class="st5" points="1360,509.66 1359.24,528.34 1329.57,528.84 1329.57,545 1288.5,520.51 1329.57,493.5 1329.57,509.66 	
		"/>
	<polygon class="st5" points="1587.36,327.6 1586.7,343.81 1560.96,344.25 1560.96,358.27 1525.33,337.02 1560.96,313.59 
		1560.96,327.6 	"/>
	<polygon class="st5" points="556.59,525.52 557.35,506.84 587.02,506.33 587.02,490.18 628.09,514.66 587.02,541.68 587.02,525.52 
			"/>
	<polygon class="st5" points="369.01,329.91 369.64,314.28 394.47,313.85 394.47,300.33 428.84,320.82 394.47,343.43 394.47,329.91 
			"/>
</g>
</svg>
