<?xml version="1.0" encoding="utf-8"?>
<!-- Generator: Adobe Illustrator 25.0.1, SVG Export Plug-In . SVG Version: 6.00 Build 0)  -->
<svg version="1.1" xmlns="http://www.w3.org/2000/svg" xmlns:xlink="http://www.w3.org/1999/xlink" x="0px" y="0px"
	 viewBox="0 0 1920 1080" style="enable-background:new 0 0 1920 1080;" xml:space="preserve">
<style type="text/css">
	.st0{fill:#81D4FA;}
	.st1{fill:#B71C1C;}
	.st2{fill:#607D8B;}
	.st3{fill:#BDBDBD;}
	.st4{fill:#A1887F;}
	.st5{fill:url(#SVGID_1_);}
	.st6{fill:#9E9E9E;}
	.st7{stroke:#000000;stroke-miterlimit:10;}
	.st8{opacity:0.8;}
	.st9{fill:#29ABE2;}
</style>
<g id="sky">
	<g>
		<rect x="0.5" y="0.5" class="st0" width="1919" height="290"/>
		<path d="M1919,1v289H1V1H1919 M1920,0H0v291h1920V0L1920,0z"/>
	</g>
</g>
<g id="mantle">
	<g>
		<rect x="0.5" y="584.5" class="st1" width="1919" height="495"/>
		<path d="M1919,585v494H1V585H1919 M1920,584H0v496h1920V584L1920,584z"/>
	</g>
</g>
<g id="plate">
	<g>
		<polygon class="st2" points="1049.79,572.59 857.36,460.5 1168.91,460.5 1136.16,631.16 		"/>
		<path d="M1168.3,461l-32.49,169.32l-85.74-58.15l-0.03-0.02l-0.03-0.02L859.22,461H1168.3 M1169.51,460h-314l194,113l87,59
			L1169.51,460L1169.51,460z"/>
	</g>
	<g>
		<polygon class="st3" points="0.5,263.5 973.35,263.5 906.62,509.5 0.5,511.5 		"/>
		<path d="M972.69,264l-66.46,245L1,511V264H972.69 M974,263H0v249l907-2L974,263L974,263z"/>
	</g>
	<g>
		<path class="st4" d="M1024.28,599.5c-2.51-3.93-36.03-54.28-125.25-89.63c31.2-22.81,139.57-94.5,272.99-99.37
			c18.61-0.68,38.38-1.02,58.75-1.02c291.97,0,673.04,70.21,687.73,72.94V599.5H1024.28z"/>
		<path d="M1230.81,409.98c154.77,0,333.59,19.85,456.35,36.5c126.57,17.17,221.14,34.55,230.84,36.35V599h-893.45
			c-1.65-2.56-10.08-14.99-27.63-30.87c-17.87-16.18-49.12-39.35-96.87-58.4c14.05-10.21,48.78-33.85,96.23-55.25
			c59.35-26.77,118.48-41.4,175.75-43.49c18.59-0.68,38.35-1.02,58.76-1.02H1230.81 M1230.77,408.98c-20.02,0-39.69,0.33-58.77,1.02
			c-134.32,4.9-244.03,77.98-274,100c94,37,126,90,126,90h895V482C1919,482,1530.51,408.97,1230.77,408.98L1230.77,408.98z"/>
	</g>
	<g>
		<linearGradient id="SVGID_1_" gradientUnits="userSpaceOnUse" x1="898.916" y1="365.1602" x2="1919.5" y2="365.1602">
			<stop  offset="0" style="stop-color:#4CAF50"/>
			<stop  offset="0.1277" style="stop-color:#4EB052"/>
			<stop  offset="0.1737" style="stop-color:#55B358"/>
			<stop  offset="0.2065" style="stop-color:#60B864"/>
			<stop  offset="0.2329" style="stop-color:#71C075"/>
			<stop  offset="0.25" style="stop-color:#81C784"/>
			<stop  offset="0.3014" style="stop-color:#71C075"/>
			<stop  offset="0.3804" style="stop-color:#60B864"/>
			<stop  offset="0.4788" style="stop-color:#55B358"/>
			<stop  offset="0.6168" style="stop-color:#4EB052"/>
			<stop  offset="1" style="stop-color:#4CAF50"/>
		</linearGradient>
		<path class="st5" d="M898.92,508.31c4.44-18.67,42.02-176.07,62.56-245.16c3.02-10.15,24.1-18.31,64.44-24.92
			c33.72-5.53,80.63-10.07,152.12-14.72c31.36,1.1,67.29,1.63,109.81,1.63c50.02,0,102.76-0.72,158.59-1.47
			c59.55-0.81,121.14-1.65,183.4-1.65c116.03,0,208.09,3,289.66,9.45v248.06c-14.55,0.52-339.5,11.94-563.04,11.94
			c-108.69,0-176.78-2.67-202.36-7.95l-0.12-0.02l-0.12,0.03c-36.6,10.31-100.25,12.73-156.42,14.86
			C947.62,500.27,907.58,501.79,898.92,508.31z"/>
		<path d="M1629.88,222.51c115.77,0,207.68,2.99,289.12,9.41v247.11c-20.08,0.71-341.08,11.92-562.54,11.92
			c-108.66,0-176.71-2.67-202.25-7.94l-0.24-0.05l-0.23,0.07c-36.54,10.29-100.17,12.71-156.3,14.84
			c-52.88,2.01-87.7,3.63-97.74,9.34c5.57-23.38,42.12-176.16,62.27-243.93c6.72-22.61,107.81-32.24,216.06-39.28
			c31.4,1.1,67.33,1.63,109.83,1.63c50.03,0,102.78-0.72,158.62-1.47c59.55-0.81,121.12-1.64,183.4-1.65H1629.88 M1629.84,221.51
			c-120.15,0-238.17,3.12-342,3.12c-38.79,0-75.64-0.44-109.84-1.63c-123,8-210.44,17.93-217,40c-22,74-63,247-63,247
			c8.92-15.53,185-6,256-26c28.53,5.88,106.53,7.96,202.46,7.96C1586.66,491.96,1920,480,1920,480V231
			C1826.15,223.56,1727.31,221.51,1629.84,221.51L1629.84,221.51z"/>
	</g>
	<g>
		<path class="st1" d="M1148.58,599.5c3.98-27.18,12.14-88.3,7.8-105.14l7.15,7.87c0.51,3,8.82,50.32,31.67,97.27H1148.58z"/>
		<path d="M1157.22,496.03l5.84,6.42c0.71,4.13,9.04,50.41,31.34,96.54H1167h-17.84C1158.99,531.7,1158.97,505.86,1157.22,496.03
			 M1154,491l1.09,1.19C1154.49,491,1154,491,1154,491L1154,491z M1155.09,492.19c2.07,4.18,5.36,23.01-7.09,107.81
			c17.09,0,20.49,0,20.49,0H1167c0,0,4.48,0,29,0c-24-49-32-98-32-98L1155.09,492.19L1155.09,492.19z"/>
	</g>
	<g>
		<path class="st6" d="M1010.13,627.5c-1.28-0.64-14.24-6.91-42.35-13.09c-27.21-5.98-74.61-13.11-145.94-13.11H0.34l0.16-88.82
			c15.04-0.26,354.83-6.03,621.78-6.03c130.13,0,222.89,1.36,275.7,4.04c44.86,2.28,85.21,10.09,119.94,23.23
			c27.77,10.51,52.02,24.42,72.08,41.36c31.16,26.31,42.45,51.9,44.26,56.39L1010.13,627.5z"/>
		<path d="M622.28,506.96c130.12,0,222.87,1.36,275.67,4.04c44.79,2.27,85.07,10.07,119.74,23.18
			c27.71,10.48,51.91,24.35,71.93,41.24c29.75,25.1,41.35,49.55,43.88,55.53l-123.25-3.94c-1.8-0.9-14.49-6.95-42.37-13.08
			c-27.23-5.99-74.67-13.12-146.05-13.12h-821L1,512.98C21.7,512.63,357.75,506.96,622.28,506.96 M622.28,505.96
			C347.46,505.96,0,512,0,512l-0.16,89.81c0,0,574,0,822,0c138,0,188.16,26.19,188.16,26.19l125,4c0,0-40-112-237-122
			C839.15,507.01,737.06,505.96,622.28,505.96L622.28,505.96z"/>
	</g>
</g>
<g id="arrow">
	<polygon class="st7" points="1629.86,352.7 1629.2,368.91 1603.46,369.35 1603.46,383.36 1567.83,362.12 1603.46,338.68 
		1603.46,352.7 	"/>
	<polygon class="st7" points="1699.59,560.29 1698.93,576.5 1673.2,576.93 1673.2,590.95 1637.56,569.71 1673.2,546.27 
		1673.2,560.29 	"/>
	<polygon class="st7" points="640.5,582.23 640.19,563.53 669.78,561.34 668.86,545.21 711.26,567.31 671.8,596.62 670.88,580.49 	
		"/>
	<polygon class="st7" points="263.5,403.26 263.19,384.57 292.78,382.37 291.86,366.24 334.26,388.35 294.8,417.66 293.88,401.53 	
		"/>
</g>
<g id="ocean">
	<g class="st8">
		<polygon class="st9" points="988,491 0,491 0,231 1055,231 		"/>
	</g>
</g>
</svg>
