<?xml version="1.0" encoding="utf-8"?>
<!-- Generator: Adobe Illustrator 25.0.1, SVG Export Plug-In . SVG Version: 6.00 Build 0)  -->
<svg version="1.1" xmlns="http://www.w3.org/2000/svg" xmlns:xlink="http://www.w3.org/1999/xlink" x="0px" y="0px"
	 viewBox="0 0 1920 1080" style="enable-background:new 0 0 1920 1080;" xml:space="preserve">
<style type="text/css">
	.st0{fill:#81D4FA;}
	.st1{fill:#B71C1C;}
	.st2{fill:#A1887F;}
	.st3{fill:#795548;stroke:#000000;stroke-miterlimit:10;}
	.st4{fill:#43A047;}
	.st5{fill:#4CAF50;}
	.st6{fill:#A1887F;stroke:#000000;stroke-miterlimit:10;}
	.st7{fill:#8D6E63;stroke:#000000;stroke-miterlimit:10;}
	.st8{stroke:#000000;stroke-miterlimit:10;}
</style>
<g id="sky">
	<g>
		<rect x="0.5" y="0.5" class="st0" width="1919" height="332"/>
		<path d="M1919,1v331H1V1H1919 M1920,0H0v333h1920V0L1920,0z"/>
	</g>
</g>
<g id="mantle">
	<g>
		<rect x="0.5" y="584.5" class="st1" width="1919" height="495"/>
		<path d="M1919,585v494H1V585H1919 M1920,584H0v496h1920V584L1920,584z"/>
	</g>
</g>
<g id="plate">
	<g>
		<polygon class="st2" points="789.49,527.51 833.37,528.59 851.15,586.31 788.51,586.5 		"/>
		<path d="M789.98,528.02l43.01,1.05l17.48,56.73L789.02,586L789.98,528.02 M789,527l-1,60l63.83-0.19l-18.09-58.71L789,527L789,527
			z"/>
	</g>
	<polygon class="st3" points="943.5,529.5 843.5,530.5 910.5,286.5 1007.5,286.5 	"/>
	<g>
		<polygon class="st4" points="936.46,501.5 1007.38,250.5 1061.36,250.5 997.61,501.5 		"/>
		<path d="M1060.71,251l-63.49,250h-60.1l70.64-250H1060.71 M1062,250h-55l-71.2,252H998L1062,250L1062,250z"/>
	</g>
	<g>
		<polygon class="st5" points="-106.5,482.5 -106.5,234.5 861.34,234.5 790.62,482.5 		"/>
		<path d="M860.68,235l-70.43,247H-106V235H860.68 M862,234h-969v249h898L862,234L862,234z"/>
	</g>
	<g>
		<polygon class="st2" points="956.54,562.31 937.86,503.31 1018.51,503.5 1019.49,562.5 		"/>
		<path d="M938.54,503.81l79.48,0.19l0.97,58l-62.08-0.19L938.54,503.81 M937.17,502.81l19,60L1020,563l-1-60L937.17,502.81
			L937.17,502.81z"/>
	</g>
	<g>
		<polygon class="st2" points="858.66,586.21 811.05,527.21 944.23,527.5 1019.63,586.4 		"/>
		<path d="M812.1,527.72L944.06,528l74.12,57.9l-159.28-0.19L812.1,527.72 M810,526.71l48.42,60l162.66,0.19L944.41,527L810,526.71
			L810,526.71z"/>
	</g>
	<g>
		<polygon class="st2" points="791.49,503.51 835.37,504.59 853.15,562.31 790.51,562.5 		"/>
		<path d="M791.98,504.02l43.01,1.05l17.48,56.73L791.02,562L791.98,504.02 M791,503l-1,60l63.83-0.19l-18.09-58.71L791,503L791,503
			z"/>
	</g>
	<g>
		<polygon class="st2" points="1010.37,540.5 991.68,481.5 2011.5,481.5 2011.5,540.5 		"/>
		<path d="M2011,482v58H1010.73l-18.37-58H2011 M2012,481H991l19,60h1002V481L2012,481z"/>
	</g>
	<g>
		<polygon class="st5" points="1062.38,230.5 2012.5,230.5 2012.5,478.5 991.66,480.5 		"/>
		<path d="M2012,231v247l-1019.68,2l70.43-249H2012 M2013,230h-951l-71,251l1022-2V230L2013,230z"/>
	</g>
	<g>
		<polygon class="st2" points="-106.5,542.5 -106.5,483.5 789.64,483.5 809.31,542.5 		"/>
		<path d="M789.28,484l19.33,58H-106v-58H789.28 M790,483h-897v60h917L790,483L790,483z"/>
	</g>
	<g>
		<polygon class="st2" points="-152.5,599.5 -152.5,540.5 927.6,540.5 947.31,599.5 		"/>
		<path d="M927.24,541l19.37,58H-152v-58H927.24 M927.96,540H-153v60H948L927.96,540L927.96,540z"/>
	</g>
	<g>
		<polygon class="st2" points="945.42,599.5 926.68,540.5 2048.5,540.5 2048.5,599.5 		"/>
		<path d="M2048,541v58H945.78l-18.42-58H2048 M2049,540H926l19.05,60H2049V540L2049,540z"/>
	</g>
	<polygon class="st6" points="797.5,505.5 790.18,481.81 862.5,233.5 870.5,262.5 	"/>
	<g>
		<polygon class="st4" points="871.38,260.48 907.32,258.54 835.62,503.52 797.68,505.46 		"/>
		<path d="M906.64,259.07l-71.4,243.96l-36.87,1.89l73.39-243.97L906.64,259.07 M908,258l-37,2l-74,246l39-2L908,258L908,258z"/>
	</g>
	<polygon class="st7" points="841.5,529.5 834.17,506.07 906.5,257.76 913.5,277.5 	"/>
</g>
<g id="arrow">
	<polygon class="st8" points="1359.5,358.74 1359.45,340.05 1389.07,338.26 1388.37,322.12 1430.47,344.82 1390.59,373.57 
		1389.9,357.43 	"/>
	<polygon class="st8" points="390.87,338.94 389.45,357.58 359.79,357.05 359.22,373.19 319.03,347.28 361.03,321.72 360.46,337.87 
			"/>
	<polygon class="st8" points="1216.5,577.4 1216.45,558.7 1246.07,556.92 1245.37,540.78 1287.47,563.47 1247.59,592.23 
		1246.9,576.09 	"/>
	<polygon class="st8" points="523.12,558.03 521.71,576.68 492.04,576.14 491.47,592.29 451.28,566.38 493.28,540.82 492.71,556.97 
			"/>
</g>
</svg>
