<?xml version="1.0" encoding="utf-8"?>
<!-- Generator: Adobe Illustrator 25.0.1, SVG Export Plug-In . SVG Version: 6.00 Build 0)  -->
<svg version="1.1" xmlns="http://www.w3.org/2000/svg" xmlns:xlink="http://www.w3.org/1999/xlink" x="0px" y="0px"
	 viewBox="0 0 1920 1080" style="enable-background:new 0 0 1920 1080;" xml:space="preserve">
<style type="text/css">
	.st0{fill:#81D4FA;}
	.st1{fill:#B71C1C;}
	.st2{fill:#BDBDBD;}
	.st3{fill:#607D8B;}
	.st4{fill:#A1887F;}
	.st5{fill:url(#SVGID_1_);}
	.st6{fill:#9E9E9E;}
	.st7{stroke:#000000;stroke-miterlimit:10;}
	.st8{opacity:0.8;}
	.st9{fill:#29ABE2;}
</style>
<g id="sky">
	<g>
		<rect x="0.5" y="0.5" class="st0" width="1919" height="306"/>
		<path d="M1919,1v305H1V1H1919 M1920,0H0v307h1920V0L1920,0z"/>
	</g>
</g>
<g id="mantle">
	<g>
		<rect x="0.5" y="584.5" class="st1" width="1919" height="495"/>
		<path d="M1919,585v494H1V585H1919 M1920,584H0v496h1920V584L1920,584z"/>
	</g>
</g>
<g id="plate">
	<g>
		<polygon class="st2" points="0.5,263.5 973.35,263.5 906.62,509.5 0.5,511.5 		"/>
		<path d="M972.69,264l-66.46,245L1,511V264H972.69 M974,263H0v249l907-2L974,263L974,263z"/>
	</g>
	<g>
		<polygon class="st3" points="1304.28,712.59 1111.85,600.5 1423.39,600.5 1390.65,771.16 		"/>
		<path d="M1422.79,601l-32.49,169.32l-85.74-58.15l-0.03-0.02l-0.03-0.02L1113.7,601H1422.79 M1424,600h-314l194,113l87,59
			L1424,600L1424,600z"/>
	</g>
	<g>
		<path class="st4" d="M1035.23,599.5c-2.92-3.48-46.51-54.11-136.21-89.63c31.2-22.81,139.57-94.5,272.99-99.37
			c18.61-0.68,38.38-1.02,58.75-1.02c291.97,0,673.04,70.21,687.73,72.94V599.5H1035.23z"/>
		<path d="M1230.81,409.98c154.77,0,333.59,19.85,456.35,36.5c126.57,17.17,221.14,34.55,230.84,36.35V599h-882.53
			c-1.92-2.28-12.83-14.81-33.1-30.91c-20.34-16.16-54.53-39.32-102.32-58.35c14.05-10.21,48.78-33.85,96.23-55.25
			c59.35-26.77,118.48-41.4,175.75-43.49c18.59-0.68,38.35-1.02,58.76-1.02H1230.81 M1230.77,408.98c-20.02,0-39.69,0.33-58.77,1.02
			c-134.32,4.9-244.03,77.98-274,100c94,37,137,90,137,90h884V482C1919,482,1530.51,408.97,1230.77,408.98L1230.77,408.98z"/>
	</g>
	<g>
		<linearGradient id="SVGID_1_" gradientUnits="userSpaceOnUse" x1="898.9092" y1="332.498" x2="1919.5" y2="332.498">
			<stop  offset="0" style="stop-color:#4CAF50"/>
			<stop  offset="0.0676" style="stop-color:#50B154"/>
			<stop  offset="0.1375" style="stop-color:#5DB760"/>
			<stop  offset="0.2084" style="stop-color:#71C075"/>
			<stop  offset="0.25" style="stop-color:#81C784"/>
			<stop  offset="0.3747" style="stop-color:#71C075"/>
			<stop  offset="0.5874" style="stop-color:#5DB760"/>
			<stop  offset="0.7973" style="stop-color:#50B154"/>
			<stop  offset="1" style="stop-color:#4CAF50"/>
		</linearGradient>
		<path class="st5" d="M898.91,508.34c4.41-18.54,42.02-176.07,62.57-245.19c2.25-7.56,16.86-11.37,38.99-17.13
			c40.47-10.55,108.17-28.2,176.55-89.35c35.45,29.12,85.27,48.96,152.29,60.64c53.94,9.4,117.36,13.59,205.67,13.59
			c41.93,0,85.6-0.94,127.84-1.85c42.19-0.91,85.83-1.85,127.68-1.85c50.96,0,91.97,1.36,129.01,4.28v248.05
			c-4.53,0.06-39.83,0.54-92.04,0.54c-106.92,0-262.56-1.88-396.83-10.81c-75.66-5.03-135.58-11.78-178.1-20.06
			c-49.77-9.69-76.36-21.55-79.03-35.27l-0.23-1.15l-0.67,0.96c-37.01,52.78-150.22,71.17-217.85,82.16
			C925.19,500.68,904.71,504.01,898.91,508.34z"/>
		<path d="M1177.03,157.32c35.5,29.03,85.3,48.81,152.2,60.47c53.96,9.4,117.42,13.6,205.75,13.6c41.94,0,85.61-0.94,127.85-1.85
			c42.19-0.91,85.82-1.85,127.66-1.85c50.73,0,91.6,1.35,128.51,4.24v247.09c-6.18,0.09-40.9,0.53-91.54,0.53
			c-106.91,0-262.54-1.88-396.8-10.81c-75.64-5.03-135.54-11.78-178.04-20.05c-49.55-9.64-76.01-21.38-78.64-34.87l-0.45-2.31
			l-1.35,1.93c-8.6,12.26-21.95,23.47-39.7,33.33c-15.34,8.52-34.46,16.3-56.85,23.12c-41.19,12.55-87.31,20.04-120.98,25.51
			c-30.18,4.9-48.29,8-54.97,11.86c5.55-23.3,42.12-176.16,62.27-243.96c2.17-7.29,16.67-11.07,38.63-16.79
			C1041.04,235.95,1108.66,218.32,1177.03,157.32 M1177,156c-106,95-209.44,84.93-216,107c-22,74-63,247-63,247
			c8.92-15.53,221-19,275-96c11.67,59.89,457.09,66.54,654.46,66.54c56.37,0,92.54-0.54,92.54-0.54V231
			c-41.1-3.26-84.7-4.32-129.51-4.32c-83.74,0-171.69,3.7-255.52,3.7C1387.76,230.39,1253.3,218.96,1177,156L1177,156z"/>
	</g>
	<g>
		<path class="st6" d="M1274.18,771.5c-3.05-2.54-53.93-44.51-132.95-85.94c-47.64-24.98-96.03-44.89-143.84-59.16
			c-59.77-17.85-118.78-26.9-175.39-26.9H0.5v-89H880c45.55,0,100.84,13.76,164.33,40.89c50.82,21.72,106.97,52.01,166.89,90.02
			c95.6,60.65,170.66,122.04,180.39,130.08H1274.18z"/>
		<path d="M880,511c45.48,0,100.7,13.74,164.13,40.85c50.79,21.71,106.92,51.98,166.82,89.98
			c92.67,58.78,166.02,118.27,179.28,129.17h-115.86c-4.22-3.5-54.85-44.96-132.9-85.89c-47.67-25-96.09-44.91-143.93-59.2
			C937.72,608.06,878.66,599,822,599H1v-88H880 M880,510c-200,0-880,0-880,0v90c0,0,574,0,822,0s452,172,452,172h119
			C1393,772,1080,510,880,510L880,510z"/>
	</g>
	<g>
		<path class="st1" d="M1148.58,599.5c14.85-101.36,15.85-160.04,15.92-166.84l12.96,3.7c-0.42,3.72-3.3,31.3-1.45,63.66
			c1.81,31.66,8.65,74.44,30.88,99.47H1148.58z"/>
		<path d="M1164.99,433.32l11.92,3.41c-0.55,5.05-3.2,31.94-1.41,63.33c1.17,20.39,3.95,38.67,8.28,54.33
			c5.17,18.67,12.56,33.67,21.99,44.61h-56.62c8.16-55.77,12.03-98.07,13.84-123.8C1164.64,451.83,1164.94,437.55,1164.99,433.32
			 M1164,432c0,0,0,59-16,168c48,0,0,0,60,0c-44-48-30-164-30-164L1164,432L1164,432z"/>
	</g>
</g>
<g id="arrow">
	<polygon class="st7" points="1454.86,342.7 1454.2,358.91 1428.46,359.35 1428.46,373.36 1392.83,352.12 1428.46,328.68 
		1428.46,342.7 	"/>
	<polygon class="st7" points="1566.59,557.29 1565.93,573.5 1540.2,573.93 1540.2,587.95 1504.56,566.71 1540.2,543.27 
		1540.2,557.29 	"/>
	<polygon class="st7" points="793.5,585.23 793.19,566.53 822.78,564.34 821.86,548.21 864.26,570.31 824.8,599.62 823.88,583.49 	
		"/>
	<polygon class="st7" points="416.5,406.26 416.19,387.57 445.78,385.37 444.86,369.24 487.26,391.35 447.8,420.66 446.88,404.53 	
		"/>
</g>
<g id="ocean">
	<g class="st8">
		<polygon class="st9" points="988,491 0,491 0,231 1055,231 		"/>
	</g>
</g>
</svg>
