<?xml version="1.0" encoding="utf-8"?>
<!-- Generator: Adobe Illustrator 25.0.1, SVG Export Plug-In . SVG Version: 6.00 Build 0)  -->
<svg version="1.1" xmlns="http://www.w3.org/2000/svg" xmlns:xlink="http://www.w3.org/1999/xlink" x="0px" y="0px"
	 viewBox="0 0 1920 1080" style="enable-background:new 0 0 1920 1080;" xml:space="preserve">
<style type="text/css">
	.st0{fill:#B71C1C;}
	.st1{fill:#81D4FA;}
	.st2{fill:#BDBDBD;}
	.st3{fill:#A1887F;}
	.st4{fill:#4CAF50;}
	.st5{opacity:0.8;}
	.st6{fill:#42A5F5;}
	.st7{fill:#9E9E9E;}
</style>
<g id="mantle">
	<g>
		<rect x="0.5" y="584.5" class="st0" width="1919" height="495"/>
		<path d="M1919,585v494H1V585H1919 M1920,584H0v496h1920V584L1920,584z"/>
	</g>
</g>
<g id="plate">
	<g id="sky">
		<g>
			<rect x="0.5" y="0.5" class="st1" width="1919" height="284"/>
			<path d="M1919,1v283H1V1H1919 M1920,0H0v285h1920V0L1920,0z"/>
		</g>
	</g>
	<g>
		<polygon class="st2" points="0.5,263.5 973.35,263.5 906.62,509.5 0.5,511.5 		"/>
		<path d="M972.69,264l-66.46,245L1,511V264H972.69 M974,263H0v249l907-2L974,263L974,263z"/>
	</g>
	<g>
		<polygon class="st3" points="932.38,599.5 898.66,482.5 1918.5,482.5 1918.5,599.5 		"/>
		<path d="M1918,483v116H932.75l-33.42-116H1918 M1919,482H898l34,118h987V482L1919,482z"/>
	</g>
	<g>
		<polygon class="st4" points="969.38,231.5 1919.5,231.5 1919.5,479.5 898.66,481.5 		"/>
		<path d="M1919,232v247l-1019.68,2l70.43-249H1919 M1920,231H969l-71,251l1022-2V231L1920,231z"/>
	</g>
	<g class="st5">
		<polygon class="st6" points="898,480 0,480 0,231 969,231 		"/>
	</g>
	<g>
		<polygon class="st7" points="0.5,599.5 0.5,510.5 906.62,510.5 931.34,599.5 		"/>
		<path d="M906.24,511l24.44,88H1v-88H906.24 M907,510H0v90h932L907,510L907,510z"/>
	</g>
</g>
<g id="arrow">
</g>
</svg>
