<?xml version="1.0" encoding="utf-8"?>
<!-- Generator: Adobe Illustrator 25.0.0, SVG Export Plug-In . SVG Version: 6.00 Build 0)  -->
<svg version="1.1" xmlns="http://www.w3.org/2000/svg" xmlns:xlink="http://www.w3.org/1999/xlink" x="0px" y="0px"
	 viewBox="0 0 1920 1080" style="enable-background:new 0 0 1920 1080;" xml:space="preserve">
<style type="text/css">
	.st0{fill:#81D4FA;}
	.st1{fill:#B71C1C;}
	.st2{fill:#A1887F;stroke:#000000;stroke-miterlimit:10;}
	.st3{fill:#4CAF50;}
	.st4{fill:#A1887F;}
	.st5{fill:#E0E0E0;}
	.st6{stroke:#000000;stroke-miterlimit:10;}
</style>
<g id="sky">
	<g>
		<rect x="0.5" y="0.5" class="st0" width="1919" height="332"/>
		<path d="M1919,1v331H1V1H1919 M1920,0H0v333h1920V0L1920,0z"/>
	</g>
</g>
<g id="mantle">
	<g>
		<rect x="0.5" y="584.5" class="st1" width="1919" height="495"/>
		<path d="M1919,585v494H1V585H1919 M1920,584H0v496h1920V584L1920,584z"/>
	</g>
</g>
<g id="plate">
	<polygon class="st2" points="955.5,504.5 855.5,505.5 922.5,261.5 1019.5,261.5 	"/>
	<g>
		<polygon class="st3" points="-15.5,480.5 -15.5,232.5 952.34,232.5 881.62,480.5 		"/>
		<path d="M951.68,233l-70.43,247H-15V233H951.68 M953,232H-16v249h898L953,232L953,232z"/>
	</g>
	<g>
		<polygon class="st4" points="863.99,562.31 835.79,503.31 958,503.5 959.49,562.5 		"/>
		<path d="M836.59,503.81L957.52,504l1.46,58l-94.67-0.19L836.59,503.81 M835,502.81l28.67,60L960,563l-1.51-60L835,502.81
			L835,502.81z"/>
	</g>
	<g>
		<polygon class="st4" points="945.37,538.5 926.68,479.5 1946.5,479.5 1946.5,538.5 		"/>
		<path d="M1946,480v58H945.73l-18.37-58H1946 M1947,479H926l19,60h1002V479L1947,479z"/>
	</g>
	<g>
		<polygon class="st3" points="997.38,228.5 1947.5,228.5 1947.5,476.5 926.66,478.5 		"/>
		<path d="M1947,229v247l-1019.68,2l70.43-249H1947 M1948,228H997l-71,251l1022-2V228L1948,228z"/>
	</g>
	<g>
		<polygon class="st4" points="-15.5,540.5 -15.5,481.5 880.64,481.5 900.31,540.5 		"/>
		<path d="M880.28,482l19.33,58H-15v-58H880.28 M881,481H-16v60h917L881,481L881,481z"/>
	</g>
	<g>
		<polygon class="st5" points="-152.5,599.5 -152.5,540.5 927.6,540.5 947.31,599.5 		"/>
		<path d="M927.24,541l19.37,58H-152v-58H927.24 M927.96,540H-153v60H948L927.96,540L927.96,540z"/>
	</g>
	<g>
		<polygon class="st5" points="945.42,599.5 926.68,540.5 2048.5,540.5 2048.5,599.5 		"/>
		<path d="M2048,541v58H945.78l-18.42-58H2048 M2049,540H926l19.05,60H2049V540L2049,540z"/>
	</g>
	<polygon class="st2" points="888.5,503.5 881.18,479.81 953.5,231.5 961.5,260.5 	"/>
</g>
<g id="arrow">
	<polygon class="st6" points="1203.5,358.74 1203.45,340.05 1233.07,338.26 1232.37,322.12 1274.47,344.82 1234.59,373.57 
		1233.9,357.43 	"/>
	<polygon class="st6" points="570.87,338.94 569.45,357.58 539.79,357.05 539.22,373.19 499.03,347.28 541.03,321.72 540.46,337.87 
			"/>
	<polygon class="st6" points="1052.5,580.4 1052.45,561.7 1082.07,559.92 1081.37,543.78 1123.47,566.47 1083.59,595.23 
		1082.9,579.09 	"/>
	<polygon class="st6" points="703.12,558.03 701.71,576.68 672.04,576.14 671.47,592.29 631.28,566.38 673.28,540.82 672.71,556.97 
			"/>
</g>
</svg>
