<?xml version="1.0" encoding="utf-8"?>
<!-- Generator: Adobe Illustrator 25.0.1, SVG Export Plug-In . SVG Version: 6.00 Build 0)  -->
<svg version="1.1" xmlns="http://www.w3.org/2000/svg" xmlns:xlink="http://www.w3.org/1999/xlink" x="0px" y="0px"
	 viewBox="0 0 1920 1080" style="enable-background:new 0 0 1920 1080;" xml:space="preserve">
<style type="text/css">
	.st0{fill:#B71C1C;}
	.st1{fill:#81D4FA;}
	.st2{fill:#A1887F;}
	.st3{fill:url(#SVGID_1_);}
	.st4{fill:none;stroke:#000000;stroke-miterlimit:10;}
	.st5{stroke:#000000;stroke-miterlimit:10;}
</style>
<g id="mantle">
	<g>
		<rect x="0.5" y="584.5" class="st0" width="1919" height="495"/>
		<path d="M1919,585v494H1V585H1919 M1920,584H0v496h1920V584L1920,584z"/>
	</g>
</g>
<g id="plate">
	<g id="sky">
		<g>
			<rect x="0.5" y="0.5" class="st1" width="1919" height="230"/>
			<path d="M1919,1v229H1V1H1919 M1920,0H0v231h1920V0L1920,0z"/>
		</g>
	</g>
	<g>
		<path class="st2" d="M960,641.5c-222.32,0-293.71-13.24-401.78-33.29c-16.78-3.11-34.12-6.33-53.13-9.7
			c-40.66-7.21-103.87-10.87-187.86-10.87c-145.26,0-306.17,11.08-316.73,11.82V480.44L960,355.5l959.5,124.94v119.05
			c-14.41-0.37-315.05-7.99-460.5-7.99c-65.01,0-118.51,9.28-180.46,20.02C1197.5,625.57,1105.65,641.5,960,641.5z"/>
		<path d="M960,356.01l959,124.87v118.1c-19.83-0.5-315.98-7.97-460-7.97c-65.05,0-118.57,9.28-180.54,20.03
			C1197.44,625.08,1105.61,641,960,641c-222.27,0-293.65-13.24-401.69-33.28c-16.78-3.11-34.13-6.33-53.13-9.7
			c-40.69-7.21-103.92-10.87-187.94-10.87c-143.24,0-301.68,10.77-316.23,11.79V480.88L960,356.01 M960,355L0,480v120
			c0,0,166-11.86,317.23-11.86c72.7,0,141.99,2.74,187.77,10.86c141,25,198,43,455,43s349-50,499-50s461,8,461,8V480L960,355
			L960,355z"/>
	</g>
	<g>
		<linearGradient id="SVGID_1_" gradientUnits="userSpaceOnUse" x1="0.5" y1="329.0222" x2="1919.5" y2="329.0222">
			<stop  offset="0" style="stop-color:#4CAF50"/>
			<stop  offset="0.2948" style="stop-color:#4EB052"/>
			<stop  offset="0.4008" style="stop-color:#55B359"/>
			<stop  offset="0.4762" style="stop-color:#60B864"/>
			<stop  offset="0.5" style="stop-color:#66BB6A"/>
			<stop  offset="0.5237" style="stop-color:#60B864"/>
			<stop  offset="0.5989" style="stop-color:#55B359"/>
			<stop  offset="0.7047" style="stop-color:#4EB052"/>
			<stop  offset="0.9988" style="stop-color:#4CAF50"/>
		</linearGradient>
		<path class="st3" d="M128.19,480.54c-73.6,0-122.33-0.92-127.69-1.03V231.47c74.71-5.18,156.31-5.93,250.77-6.79
			c194.26-1.78,436-4,753.72-47.17c196.86,35.04,330.77,37.94,461.79,37.94c15.09,0,30.22-0.04,45.48-0.08
			c15.53-0.04,31.19-0.08,47.07-0.08c94.83,0,208.67,1.25,360.16,16.17v248.03c-99.77-3.06-196.76-4.62-290.55-6.13
			c-273.69-4.39-510.06-8.18-678.83-46.85l-0.1-0.02l-0.1,0.02c-103.39,20.74-246.22,35.8-424.52,44.76
			C373.07,478.93,225.32,480.54,128.19,480.54z"/>
		<path d="M1004.98,178.01c196.86,35.03,330.77,37.93,461.8,37.93c15.09,0,30.54-0.04,45.48-0.08c15.33-0.04,31.18-0.08,47.09-0.08
			c94.72,0,208.4,1.25,359.64,16.12v247.06c-99.6-3.05-196.41-4.61-290.05-6.11c-273.66-4.39-510.01-8.18-678.73-46.83l-0.21-0.05
			l-0.21,0.04c-103.36,20.74-246.17,35.79-424.45,44.76c-152.31,7.66-300.05,9.26-397.17,9.26c-71.73,0-119.83-0.88-127.19-1.02
			V231.93c74.57-5.15,156.02-5.89,250.27-6.76C445.52,223.39,687.28,221.17,1004.98,178.01 M1005,177C534,241,230,215,0,231v249
			c0,0,49.58,1.04,128.19,1.04c199.5,0,585.81-6.69,821.81-54.04c227,52,580,41,970,53V231c-147.09-14.51-258.66-16.22-360.66-16.22
			c-31.51,0-62.11,0.16-92.56,0.16C1332.01,214.95,1200.17,211.74,1005,177L1005,177z"/>
	</g>
</g>
<g id="lines">
	<g>
		<line class="st4" x1="949.13" y1="426.57" x2="927.64" y2="458.22"/>
	</g>
	<g>
		<line class="st4" x1="926.01" y1="458.8" x2="951.64" y2="493.22"/>
	</g>
	<g>
		<line class="st4" x1="917.01" y1="515.8" x2="929.5" y2="537.5"/>
	</g>
	<g>
		<line class="st4" x1="950.99" y1="495.05" x2="917.87" y2="514.17"/>
	</g>
	<g>
		<line class="st4" x1="931.5" y1="539.93" x2="908.5" y2="580.5"/>
	</g>
	<g>
		<line class="st4" x1="908.39" y1="584.16" x2="946.5" y2="641.5"/>
	</g>
</g>
<g id="arrow">
	<polygon class="st5" points="1273,509.66 1272.24,528.34 1242.57,528.84 1242.57,545 1201.5,520.51 1242.57,493.5 1242.57,509.66 	
		"/>
	<polygon class="st5" points="1500.36,327.6 1499.7,343.81 1473.96,344.25 1473.96,358.27 1438.33,337.02 1473.96,313.59 
		1473.96,327.6 	"/>
	<polygon class="st5" points="638.59,525.52 639.35,506.84 669.02,506.33 669.02,490.18 710.09,514.66 669.02,541.68 669.02,525.52 
			"/>
	<polygon class="st5" points="451.01,329.91 451.64,314.28 476.47,313.85 476.47,300.33 510.84,320.82 476.47,343.43 476.47,329.91 
			"/>
</g>
</svg>
