<?xml version="1.0" encoding="utf-8"?>
<!-- Generator: Adobe Illustrator 25.0.0, SVG Export Plug-In . SVG Version: 6.00 Build 0)  -->
<svg version="1.1" xmlns="http://www.w3.org/2000/svg" xmlns:xlink="http://www.w3.org/1999/xlink" x="0px" y="0px"
	 viewBox="0 0 1920 1080" style="enable-background:new 0 0 1920 1080;" xml:space="preserve">
<style type="text/css">
	.st0{fill:#B71C1C;}
	.st1{fill:#81D4FA;}
	.st2{fill:#E0E0E0;}
	.st3{fill:#A1887F;}
	.st4{fill:url(#SVGID_1_);}
	.st5{fill:#CCCCCC;stroke:#000000;stroke-miterlimit:10;}
	.st6{fill:none;stroke:#000000;stroke-miterlimit:10;}
	.st7{stroke:#000000;stroke-miterlimit:10;}
</style>
<g id="mantle">
	<g>
		<rect x="0.5" y="584.5" class="st0" width="1919" height="495"/>
		<path d="M1919,585v494H1V585H1919 M1920,584H0v496h1920V584L1920,584z"/>
	</g>
</g>
<g id="plate">
	<g id="sky">
		<g>
			<rect x="0.5" y="0.5" class="st1" width="1919" height="230"/>
			<path d="M1919,1v229H1V1H1919 M1920,0H0v231h1920V0L1920,0z"/>
		</g>
	</g>
	<g>
		<path class="st2" d="M956,667.5c-119.71,0-197.05-20.75-271.84-40.82c-47.83-12.83-93.01-24.96-147.1-31.18
			c-22.43-2.58-67.56-3.89-134.14-3.89c-158.47,0-389.85,7.46-402.42,7.87v-59.01l618.38-32.97c2.57,1.48,42.38,24.11,102.57,46.46
			C778.63,575.2,866.43,600.5,960,600.5c51.65,0,135.13-8.07,239.55-46.53c60.69-22.35,100.99-45,103.57-46.46l616.38,32.97v59.01
			c-13.52-0.3-282.11-6.32-441.81-6.32c-57.78,0-95.04,0.78-110.74,2.33c-23.1,2.28-53.35,10.53-91.64,20.97
			C1196.38,638.01,1088.28,667.5,956,667.5z"/>
		<path d="M1303.24,508.01L1919,540.95v58.03c-18.66-0.42-283.28-6.31-441.31-6.31c-57.8,0-95.07,0.79-110.79,2.34
			c-23.14,2.28-53.4,10.54-91.72,20.99C1196.28,637.52,1088.21,667,956,667c-119.65,0-196.95-20.74-271.71-40.8
			c-47.85-12.84-93.05-24.96-147.18-31.2c-22.45-2.58-67.6-3.89-134.19-3.9c-156.67,0-384.58,7.29-401.92,7.86v-58.02l617.76-32.93
			c3.57,2.04,43.13,24.38,102.52,46.42c36.41,13.52,73.03,24.28,108.87,32.01C874.96,596.1,918.64,601,960,601
			c41.36,0,85.15-4.9,130.16-14.55c36-7.72,72.86-18.49,109.56-32.01C1259.6,532.38,1299.66,510.04,1303.24,508.01 M1303,507
			c0,0-162,93-343,93s-341-93-341-93L0,540v60c0,0,238.93-7.89,402.92-7.89c59.63,0,109.36,1.04,134.08,3.89c139,16,223,72,419,72
			s340-65,411-72c17.14-1.69,58.22-2.33,110.69-2.33c164.91,0,442.31,6.33,442.31,6.33v-60L1303,507L1303,507z"/>
	</g>
	<g>
		<path class="st3" d="M960,618.5c-166.93,0-228.52-23.19-288.09-45.61c-32.16-12.11-65.41-24.62-114.83-33.38
			c-41.61-7.38-111.31-11.12-207.16-11.12c-158.84,0-338.3,10.42-349.43,11.08v-59.03L960,355.5l959.5,124.94v59.06H1369
			c-65.06,0-101.89,14.67-144.54,31.66C1168.75,593.35,1105.6,618.5,960,618.5z"/>
		<path d="M960,356.01l959,124.87V539h-550c-65.16,0-102.03,14.69-144.72,31.69C1168.6,592.87,1105.5,618,960,618
			c-74.86,0-134.99-4.66-183.83-14.24c-43.52-8.54-74.31-20.13-104.08-31.34c-32.18-12.11-65.46-24.64-114.91-33.41
			c-41.64-7.38-111.37-11.13-207.25-11.13c-156.75,0-333.59,10.15-348.93,11.05v-58.06L960,356.01 M960,355L0,480v60
			c0,0,184.89-11.11,349.93-11.11c82.51,0,160.08,2.78,207.07,11.11c141,25,146,79,403,79s259-79,409-79s551,0,551,0v-60L960,355
			L960,355z"/>
	</g>
	<g>
		<linearGradient id="SVGID_1_" gradientUnits="userSpaceOnUse" x1="0.5" y1="312.5" x2="1919.5" y2="312.5">
			<stop  offset="0" style="stop-color:#4CAF50"/>
			<stop  offset="0.2555" style="stop-color:#4EB052"/>
			<stop  offset="0.3475" style="stop-color:#55B358"/>
			<stop  offset="0.4131" style="stop-color:#60B864"/>
			<stop  offset="0.4657" style="stop-color:#71C075"/>
			<stop  offset="0.5" style="stop-color:#81C784"/>
			<stop  offset="0.5342" style="stop-color:#71C075"/>
			<stop  offset="0.5867" style="stop-color:#60B864"/>
			<stop  offset="0.6522" style="stop-color:#55B358"/>
			<stop  offset="0.744" style="stop-color:#4EB052"/>
			<stop  offset="0.9988" style="stop-color:#4CAF50"/>
		</linearGradient>
		<path class="st4" d="M191.16,482.46c-107.36,0-183.9-2.7-190.66-2.95V231.47c34.36-2.38,74.41-3.44,129.73-3.44
			c29.2,0,59.6,0.28,91.79,0.58c34.78,0.32,70.75,0.66,108.06,0.66c203.82,0,443.25-10.3,673.89-86.74
			c149.17,68.7,276.37,82.78,421.42,82.78c39.61,0,79.65-1.02,122.05-2.11c45.54-1.16,92.62-2.37,142.62-2.37
			c82.98,0,155.89,3.37,229.44,10.61v248.03c-43.73-1.34-90.95-1.99-144.32-1.99c-57.21,0-114.31,0.74-169.54,1.46
			c-54.23,0.7-105.45,1.37-155.87,1.37c-223.59,0-392.74-14.07-491.47-82.73l-0.23-0.16l-0.26,0.11
			c-73.28,32.21-194.32,55.68-359.74,69.77C516.94,474.23,380.49,482.46,191.16,482.46z"/>
		<path d="M1003.94,143.07c70.86,32.62,141.17,54.71,214.92,67.52c60.58,10.53,124.28,15.22,206.54,15.22
			c39.62,0,79.67-1.02,122.06-2.11c45.53-1.16,92.61-2.37,142.61-2.37c82.78,0,155.55,3.36,228.93,10.56v247.06
			c-43.59-1.33-90.65-1.97-143.82-1.97c-57.2,0-114.31,0.74-169.53,1.45c-54.24,0.7-105.46,1.37-155.89,1.37
			c-84.49,0-193.37-1.67-286.11-14.73c-90.64-12.76-157.72-34.97-205.08-67.91l-0.46-0.32l-0.51,0.23
			c-73.23,32.19-194.21,55.65-359.58,69.73c-146.96,12.52-302.37,15.15-406.86,15.15c-105.24,0-180.85-2.59-190.16-2.93v-247.1
			c34.25-2.35,74.16-3.4,129.23-3.4c29.2,0,59.6,0.28,91.79,0.58c34.79,0.32,70.75,0.66,108.06,0.66
			c87.86,0,204.37-1.66,326.47-14.6C784.93,201.57,898.56,177.98,1003.94,143.07 M1004,142c-231.55,76.77-470.6,86.78-673.92,86.78
			c-71.68,0-138.96-1.24-199.85-1.24c-47.59,0-91.3,0.76-130.23,3.47v249c0,0,77.92,2.96,191.16,2.96
			c228.57,0,601-12.07,766.84-84.96c102.26,71.11,281.85,82.82,491.76,82.82c103.02,0,213.37-2.82,325.42-2.82
			c48.1,0,96.53,0.52,144.82,2.01V231c-83.83-8.27-159.61-10.66-229.94-10.66c-96.27,0-182.26,4.47-264.67,4.47
			C1285.3,224.82,1155.64,211.87,1004,142L1004,142z"/>
	</g>
	<path class="st5" d="M960,600"/>
	<path class="st5" d="M1588.5,577.5"/>
	<path class="st5" d="M960,600"/>
</g>
<g id="lines">
	<g>
		<line class="st6" x1="958.13" y1="397.57" x2="936.64" y2="429.22"/>
	</g>
	<g>
		<line class="st6" x1="935.01" y1="429.8" x2="960.64" y2="464.22"/>
	</g>
	<g>
		<line class="st6" x1="961.13" y1="463.57" x2="939.64" y2="495.22"/>
	</g>
	<g>
		<line class="st6" x1="938.01" y1="494.8" x2="950.5" y2="516.5"/>
	</g>
	<g>
		<line class="st6" x1="950.99" y1="516.05" x2="917.87" y2="535.17"/>
	</g>
	<g>
		<line class="st6" x1="918.5" y1="534.5" x2="937.5" y2="608.5"/>
	</g>
	<g>
		<line class="st6" x1="936.5" y1="605.93" x2="915.01" y2="637.57"/>
	</g>
	<g>
		<line class="st6" x1="913.39" y1="635.16" x2="950.5" y2="663.5"/>
	</g>
</g>
<g id="arrow">
	<polygon class="st7" points="1191,509.66 1190.24,528.34 1160.57,528.84 1160.57,545 1119.5,520.51 1160.57,493.5 1160.57,509.66 	
		"/>
	<polygon class="st7" points="1418.36,327.6 1417.7,343.81 1391.96,344.25 1391.96,358.27 1356.33,337.02 1391.96,313.59 
		1391.96,327.6 	"/>
	<polygon class="st7" points="721.59,525.52 722.35,506.84 752.02,506.33 752.02,490.18 793.09,514.66 752.02,541.68 752.02,525.52 
			"/>
	<polygon class="st7" points="534.01,329.91 534.64,314.28 559.47,313.85 559.47,300.33 593.84,320.82 559.47,343.43 559.47,329.91 
			"/>
</g>
</svg>
