<?xml version="1.0" encoding="utf-8"?>
<!-- Generator: Adobe Illustrator 25.0.0, SVG Export Plug-In . SVG Version: 6.00 Build 0)  -->
<svg version="1.1" id="Layer_1" xmlns="http://www.w3.org/2000/svg" xmlns:xlink="http://www.w3.org/1999/xlink" x="0px" y="0px"
	 viewBox="0 0 330 720" style="enable-background:new 0 0 330 720;" xml:space="preserve">
<style type="text/css">
	.st0{fill:none;stroke:#F50057;stroke-width:6;stroke-miterlimit:10;}
</style>
<path class="st0" d="M319.48,10.34C301.01-9.06,65.13,82.91,69.44,129.62s32.33,5.03,33.05,42.39S-11.03,274.04,12.68,331.52
	s99.87,83.35,150.17,103.46c50.3,20.12-17.24,141.46-2.16,204.77c15.09,63.31,102.03,77.6,120.71,71.13
	c18.68-6.47-43.83-33.77-63.95-82.63c-20.12-48.86,56.04-176.91,10.78-208.37S65.13,370.32,61.54,319.3s112.81-110.65,104.9-141.55
	s-37.36-27.3-45.98-54.61C111.84,95.85,337.95,29.74,319.48,10.34z"/>
</svg>
