<?xml version="1.0" encoding="utf-8"?>
<!-- Generator: Adobe Illustrator 25.0.0, SVG Export Plug-In . SVG Version: 6.00 Build 0)  -->
<svg version="1.1" xmlns="http://www.w3.org/2000/svg" xmlns:xlink="http://www.w3.org/1999/xlink" x="0px" y="0px"
	 viewBox="0 0 1920 1080" style="enable-background:new 0 0 1920 1080;" xml:space="preserve">
<style type="text/css">
	.st0{fill:#81D4FA;}
	.st1{fill:#B71C1C;}
	.st2{fill:url(#SVGID_1_);}
	.st3{fill:#E0E0E0;}
	.st4{fill:#9E9E9E;}
	.st5{fill:none;stroke:#000000;stroke-miterlimit:10;}
	.st6{stroke:#000000;stroke-miterlimit:10;}
	.st7{opacity:0.8;}
	.st8{fill:#42A5F5;}
</style>
<g id="sky">
	<g>
		<rect x="0.5" y="0.5" class="st0" width="1919" height="270"/>
		<path d="M1919,1v269H1V1H1919 M1920,0H0v271h1920V0L1920,0z"/>
	</g>
</g>
<g id="mantle">
	<g>
		<rect x="0.5" y="541.5" class="st1" width="1919" height="538"/>
		<path d="M1919,542v537H1V542H1919 M1920,541H0v539h1920V541L1920,541z"/>
	</g>
</g>
<g id="plate">
	<g>
		<linearGradient id="SVGID_1_" gradientUnits="userSpaceOnUse" x1="0.5" y1="357.4971" x2="1919.5" y2="357.4971">
			<stop  offset="0" style="stop-color:#BDBDBD"/>
			<stop  offset="0.1305" style="stop-color:#BABABA"/>
			<stop  offset="0.2089" style="stop-color:#B2B2B2"/>
			<stop  offset="0.2736" style="stop-color:#A4A4A4"/>
			<stop  offset="0.3309" style="stop-color:#8F8F8F"/>
			<stop  offset="0.3832" style="stop-color:#757575"/>
			<stop  offset="0.4319" style="stop-color:#555555"/>
			<stop  offset="0.4769" style="stop-color:#2F2F2F"/>
			<stop  offset="0.4989" style="stop-color:#1A1A1A"/>
			<stop  offset="0.5211" style="stop-color:#2F2F2F"/>
			<stop  offset="0.5663" style="stop-color:#555555"/>
			<stop  offset="0.6152" style="stop-color:#757575"/>
			<stop  offset="0.6677" style="stop-color:#8F8F8F"/>
			<stop  offset="0.7252" style="stop-color:#A4A4A4"/>
			<stop  offset="0.7902" style="stop-color:#B2B2B2"/>
			<stop  offset="0.869" style="stop-color:#BABABA"/>
			<stop  offset="1" style="stop-color:#BDBDBD"/>
		</linearGradient>
		<path class="st2" d="M1919.5,510.49c-13.98-0.17-302.5-3.79-571.48-16.99c-30.16-1.48-58.77-2.2-87.48-2.2
			c-55.97,0-105.13,2.79-157.19,5.75c-43.52,2.47-88.52,5.03-143.38,6.45c-12.4,0.32-24.71,0.48-36.6,0.48
			c-57.45,0-100.07-3.69-141.29-7.25c-37.97-3.28-73.84-6.39-118.4-6.39c-15.66,0-31.27,0.38-47.73,1.15
			C335.4,504.73,15.3,510.24,0.5,510.49V261.49c14.85-0.45,351.55-10.5,630.51-13.99c139.65-1.75,262.66-16.15,355.73-41.65
			c2.86-0.78,4.93-1.35,5.26-1.35c10.59,0,10.98,12.69,11.36,24.96c0.35,11.21,0.7,22.8,9.62,23.04c2.83,0.07,5.15,0.3,7.39,0.51
			c2.04,0.2,4.14,0.4,6.61,0.49l0.24,0c7.5,0,10.14-12.54,12.7-24.66c2.21-10.5,4.5-21.35,9.8-21.35c0.08,0,0.17,0,0.26,0.01
			c0.6,0.04,2.27,0.62,4.79,1.5c75.7,26.45,199.61,33.9,290.23,35.5c266.04,4.69,560.72,16.43,574.51,16.98V510.49z"/>
		<path d="M992.01,205c9.39,0.01,10.39,9.7,10.85,24.48c0.35,11.44,0.72,23.27,10.11,23.52c2.82,0.07,5.12,0.3,7.35,0.51
			c2.04,0.2,4.16,0.4,6.64,0.49c0.09,0,0.17,0,0.26,0c7.91,0,10.59-12.74,13.19-25.06c2.17-10.3,4.42-20.95,9.31-20.96
			c0.07,0,0.15,0,0.22,0.01c0.53,0.03,2.26,0.64,4.65,1.47c9.67,3.38,32.32,11.29,77.76,18.92c56.82,9.54,128.36,15.13,212.63,16.61
			c263.46,4.64,554.99,16.2,574.02,16.96v248.03c-19.29-0.24-304.7-3.92-570.95-16.99c-30.16-1.48-58.79-2.2-87.5-2.2
			c-55.98,0-105.16,2.79-157.22,5.75c-43.51,2.47-88.51,5.03-143.36,6.45c-12.39,0.32-24.7,0.48-36.59,0.48
			c-57.43,0-100.04-3.68-141.25-7.25c-37.98-3.28-73.86-6.39-118.44-6.39c-15.66,0-31.28,0.38-47.75,1.15
			C338.07,504.1,21.41,509.64,1,509.98V261.97c20.51-0.61,353.61-10.52,630.01-13.97c90.3-1.13,173.85-7.58,248.33-19.19
			c59.07-9.2,94.28-18.85,107.53-22.48C989.51,205.61,991.6,205.04,992.01,205 M992,204c-3.56,0-121,40-361,43
			C343.83,250.59,0,261,0,261v250c0,0,326.84-5.37,616-19c17.08-0.81,32.85-1.15,47.7-1.15c93.03,0,149.42,13.63,259.69,13.63
			c11.57,0,23.75-0.15,36.61-0.48c122.44-3.16,199.16-12.2,300.55-12.2c26.96,0,55.67,0.64,87.45,2.2c277.54,13.62,572,17,572,17
			V261c0,0-300.73-12.17-575-17c-227-4-289.64-36.67-295-37c-0.1-0.01-0.19-0.01-0.29-0.01c-11.84,0.01-8.8,46.01-22.49,46.01
			c-0.07,0-0.15,0-0.22,0c-5.16-0.18-8.56-0.86-14-1C995.31,251.53,1013.19,204,992,204L992,204z"/>
	</g>
	<g>
		<path class="st3" d="M0.5,545.5c1.28,0.01,5.01,0.03,11.06,0.03c49.53,0,231.51-1.3,493.47-18.03
			c107.97-15.46,196.3-22.98,270.05-22.98c50.97,0,86.95,3.49,118.69,6.57c24.33,2.36,45.35,4.4,68.22,4.4
			c20.7,0,50.37-1.02,84.73-2.19c47.9-1.64,107.51-3.68,165.71-3.68c98.45,0,167.28,5.84,210.43,17.86
			c137.08,12.65,481.36,13.97,496.63,14.02v49.01c-3.51,0.04-25.48,0.27-58.57,0.27c-109.81,0-312.28-2.41-434.51-18.58
			c-55.96-7.4-119.15-11-193.18-11c-49.65,0-97.23,1.52-143.25,2.99c-39.74,1.27-77.28,2.47-111.14,2.47
			c-6.91,0-13.59-0.05-19.84-0.15c-20.76-0.33-44.27-0.89-69.16-1.48c-52.71-1.25-112.45-2.66-172.7-2.66
			c-91.01,0-161.4,3.32-215.21,10.14c-123.9,15.72-485.6,21.73-501.44,21.99V545.5z"/>
		<path d="M775.08,505.02c50.94,0,86.91,3.49,118.65,6.57c24.35,2.36,45.37,4.4,68.27,4.4c20.71,0,50.38-1.02,84.74-2.19
			c47.89-1.64,107.5-3.68,165.7-3.68c98.4,0,167.19,5.84,210.29,17.84l0.09,0.02l0.09,0.01c135.76,12.52,475.05,13.93,496.09,14
			v48.01c-4.75,0.05-26.27,0.27-58.07,0.27c-109.8,0-312.24-2.41-434.45-18.58c-55.98-7.4-119.19-11-193.25-11
			c-49.66,0-97.24,1.52-143.26,2.99c-39.74,1.27-77.27,2.47-111.12,2.47c-6.91,0-13.58-0.05-19.83-0.15
			c-20.76-0.33-44.27-0.89-69.17-1.48c-52.71-1.25-112.45-2.66-172.7-2.66c-91.03,0-161.44,3.32-215.27,10.15
			C379.11,587.58,22.78,593.63,1,593.98v-47.98c1.62,0.01,5.19,0.03,10.56,0.03c49.54,0,231.52-1.3,493.51-18.03l0.04,0l0.04-0.01
			C613.05,512.54,701.35,505.02,775.08,505.02 M775.08,504.02c-62.19,0-146.27,5.25-270.08,22.98
			c-263.74,16.85-447.02,18.03-493.44,18.03C3.94,545.03,0,545,0,545v50c0,0,374.47-5.82,502-22
			c61.9-7.85,138.68-10.14,215.15-10.14c89.08,0,177.73,3.11,241.85,4.14c6.47,0.1,13.08,0.15,19.85,0.15
			c72.33,0,161.04-5.46,254.38-5.46c63.46,0,129.06,2.52,193.12,11c124.14,16.42,332.99,18.59,434.58,18.59
			c36.43,0,59.07-0.28,59.07-0.28v-50c0,0-356-1-497-14c-50.3-14.01-129.89-17.88-210.56-17.88c-99.45,0-200.54,5.88-250.44,5.88
			C909.3,515,865.09,504.02,775.08,504.02L775.08,504.02z"/>
	</g>
	<g>
		<path class="st4" d="M151.96,542.29c-82.12,0-145.31-1.61-151.46-1.78V511.5c13.72-0.02,295.7-0.87,520.94-28.33
			c147.11-3.23,283-12.78,403.85-28.39c6.17-0.8,9.9-1.28,10.65-1.28c1.72,0.07,3.22,0.11,4.49,0.11c5.09,0,6.38-0.56,7.62-1.1
			c1.19-0.52,2.31-1.01,7.11-1.01l0.66,0c1,1.52,3.94,15.38,6.31,26.55c5.05,23.85,5.86,26.45,6.86,26.45h14
			c4.9,0,7.82-12.4,11.19-26.75c3.33-14.18,7.1-30.25,12.8-30.25c0.6,0,2.25,0.36,4.98,0.94c87.97,18.85,272.06,33.27,411.01,42.06
			c103.53,6.54,480.73,20.4,496.53,20.98v29.02c-4.02,0.03-32.06,0.25-72.75,0.25c-122.45,0-340.31-1.85-423.67-14.24
			c-57.79-8.59-158.15-12.77-306.84-12.77c-38.48,0-74.53,0.27-103.49,0.48c-20.25,0.15-37.74,0.28-50.74,0.28
			c-18.03,0-42.57-0.8-70.99-1.73c-40.89-1.34-91.78-3.01-145.77-3.01c-91.77,0-167.11,4.82-230.32,14.75
			C421.29,539.2,265.86,542.29,151.96,542.29z"/>
		<path d="M1006.99,448c0.54,0,2.26,0.37,4.86,0.93c88,18.85,272.12,33.28,411.08,42.07c102.66,6.49,474.35,20.17,496.06,20.97
			v28.04c-5.45,0.04-32.95,0.24-72.26,0.24c-122.43,0-340.26-1.85-423.59-14.24c-57.81-8.59-158.2-12.77-306.92-12.77
			c-38.48,0-74.53,0.27-103.5,0.48C992.48,513.87,975,514,962,514c-18.02,0-42.56-0.8-70.98-1.73
			c-40.89-1.34-91.78-3.01-145.78-3.01c-91.79,0-167.15,4.82-230.4,14.75c-93.61,14.69-249.01,17.78-362.89,17.78
			c-80.31,0-142.51-1.54-150.95-1.76V512c18.94-0.04,297.48-1.15,520.45-28.33c147.16-3.23,283.05-12.78,403.91-28.4
			c5.94-0.77,9.87-1.27,10.6-1.27c1.69,0.07,3.2,0.11,4.48,0.11c5.2,0,6.53-0.58,7.81-1.14c1.14-0.5,2.21-0.97,6.92-0.97
			c0.12,0,0.23,0,0.35,0c1.08,2.36,3.87,15.5,6.13,26.16C967.33,505,967.65,505,969,505h8.59H983c5.04,0,7.72-10.31,11.67-27.13
			c3.12-13.31,7.01-29.86,12.31-29.87H1006.99 M1006.98,447c-11.6,0-14.49,57-23.98,57c-4.52,0-5.41,0-5.41,0h0.39
			c0,0-1.34,0-8.97,0c-1.73,0-11.19-52.98-13-53c-0.29,0-0.57,0-0.83,0c-9.85,0-4.78,2.11-14.73,2.11c-1.23,0-2.69-0.03-4.44-0.1
			c-0.02,0-0.04,0-0.06,0c-5.6,0-156.94,24.02-414.56,29.68C289,511,0,511,0,511v30c0,0,64.92,1.79,151.95,1.79
			c115.44,0,269.77-3.15,363.05-17.79c73.67-11.56,155.36-14.74,230.25-14.74c91.44,0,172.73,4.74,216.75,4.74
			c31.67,0,88.96-0.76,154.23-0.76c106.66,0,234.63,2.04,306.77,12.76c84.24,12.52,307.22,14.25,423.74,14.25
			c44.34,0,73.26-0.25,73.26-0.25v-30c0,0-390.57-14.27-497-21c-348-22-410.88-42.97-416-43C1006.99,447,1006.99,447,1006.98,447
			L1006.98,447z"/>
	</g>
</g>
<g id="arrow">
	<g>
		<line class="st5" x1="994.5" y1="206.5" x2="953.86" y2="449.49"/>
	</g>
	<g>
		<line class="st5" x1="1012.5" y1="254.5" x2="969.5" y2="504.5"/>
	</g>
	<g>
		<line class="st5" x1="1027.5" y1="253.5" x2="983.5" y2="504.5"/>
	</g>
	<g>
		<line class="st5" x1="1048.69" y1="209.32" x2="1007.5" y2="447.5"/>
	</g>
	<polygon class="st6" points="1507.5,566.47 1507.25,551.28 1531.29,549.5 1530.54,536.4 1564.98,554.35 1532.92,578.16 
		1532.17,565.06 	"/>
	<polygon class="st6" points="1332.5,359.47 1332.25,344.28 1356.29,342.5 1355.54,329.4 1389.98,347.35 1357.92,371.16 
		1357.17,358.06 	"/>
	<polygon class="st6" points="671.55,340.73 669.9,355.83 645.83,354.59 644.93,367.69 613.01,345.56 647.79,325.95 646.9,339.04 	
		"/>
	<polygon class="st6" points="472.89,547.73 471.24,562.82 447.17,561.58 446.27,574.68 414.34,552.55 449.13,532.94 448.23,546.04 
			"/>
</g>
<g id="Layer_5">
	<g class="st7">
		<polygon class="st8" points="898,452.94 0,452.94 0,197 969,197 		"/>
	</g>
	<g class="st7">
		<polygon class="st8" points="1920,452.94 898,455 969,197 1920,197 		"/>
	</g>
	<g>
		<path class="st1" d="M952.65,565.5c13.45-50.7,16.19-59.52,16.7-61h12.9c-1.88,4.72-11.25,32.13,10.73,61H952.65z"/>
		<path d="M981.51,505c-1.04,2.72-3.09,9.17-3.38,17.97c-0.34,10.32,1.84,25.84,13.86,42.03h-24.99H953.3
			c12.55-47.3,15.68-57.76,16.41-60H981.51 M983,504h-14c0,0-1,1.66-17,62c15.12,0,18.93,0,18.93,0h-3.94c0,0,5.12,0,27.01,0
			C969,534,983,504,983,504L983,504z"/>
	</g>
</g>
</svg>
