<?xml version="1.0" encoding="utf-8"?>
<!-- Generator: Adobe Illustrator 25.0.1, SVG Export Plug-In . SVG Version: 6.00 Build 0)  -->
<svg version="1.1" xmlns="http://www.w3.org/2000/svg" xmlns:xlink="http://www.w3.org/1999/xlink" x="0px" y="0px"
	 viewBox="0 0 1920 1080" style="enable-background:new 0 0 1920 1080;" xml:space="preserve">
<style type="text/css">
	.st0{fill:#81D4FA;}
	.st1{fill:#B71C1C;}
	.st2{fill:url(#SVGID_1_);}
	.st3{fill:#9E9E9E;}
	.st4{fill:none;stroke:#000000;stroke-miterlimit:10;}
	.st5{stroke:#000000;stroke-miterlimit:10;}
	.st6{opacity:0.8;}
	.st7{fill:#42A5F5;}
</style>
<g id="sky">
	<g>
		<rect x="0.5" y="0.5" class="st0" width="1919" height="270"/>
		<path d="M1919,1v269H1V1H1919 M1920,0H0v271h1920V0L1920,0z"/>
	</g>
</g>
<g id="mantle">
	<g>
		<rect x="0.5" y="541.5" class="st1" width="1919" height="538"/>
		<path d="M1919,542v537H1V542H1919 M1920,541H0v539h1920V541L1920,541z"/>
	</g>
</g>
<g id="plate">
	<g>
		<linearGradient id="SVGID_1_" gradientUnits="userSpaceOnUse" x1="0.5" y1="357.4971" x2="1919.5" y2="357.4971">
			<stop  offset="0" style="stop-color:#BDBDBD"/>
			<stop  offset="0.1305" style="stop-color:#BABABA"/>
			<stop  offset="0.2089" style="stop-color:#B2B2B2"/>
			<stop  offset="0.2736" style="stop-color:#A4A4A4"/>
			<stop  offset="0.3309" style="stop-color:#8F8F8F"/>
			<stop  offset="0.3832" style="stop-color:#757575"/>
			<stop  offset="0.4319" style="stop-color:#555555"/>
			<stop  offset="0.4769" style="stop-color:#2F2F2F"/>
			<stop  offset="0.4989" style="stop-color:#1A1A1A"/>
			<stop  offset="0.5211" style="stop-color:#2F2F2F"/>
			<stop  offset="0.5663" style="stop-color:#555555"/>
			<stop  offset="0.6152" style="stop-color:#757575"/>
			<stop  offset="0.6677" style="stop-color:#8F8F8F"/>
			<stop  offset="0.7252" style="stop-color:#A4A4A4"/>
			<stop  offset="0.7902" style="stop-color:#B2B2B2"/>
			<stop  offset="0.869" style="stop-color:#BABABA"/>
			<stop  offset="1" style="stop-color:#BDBDBD"/>
		</linearGradient>
		<path class="st2" d="M1919.5,510.49c-13.98-0.17-302.5-3.79-571.48-16.99c-30.16-1.48-58.77-2.2-87.48-2.2
			c-55.97,0-105.13,2.79-157.19,5.75c-43.52,2.47-88.52,5.03-143.38,6.45c-12.4,0.32-24.71,0.48-36.6,0.48
			c-57.45,0-100.07-3.69-141.29-7.25c-37.97-3.28-73.84-6.39-118.4-6.39c-15.66,0-31.27,0.38-47.73,1.15
			C335.4,504.73,15.3,510.24,0.5,510.49V261.49c14.85-0.45,351.55-10.5,630.51-13.99c139.65-1.75,262.66-16.15,355.73-41.65
			c2.86-0.78,4.93-1.35,5.26-1.35c10.59,0,10.98,12.69,11.36,24.96c0.35,11.21,0.7,22.8,9.62,23.04c2.83,0.07,5.15,0.3,7.39,0.51
			c2.04,0.2,4.14,0.4,6.61,0.49l0.24,0c7.5,0,10.14-12.54,12.7-24.66c2.21-10.5,4.5-21.35,9.8-21.35c0.08,0,0.17,0,0.26,0.01
			c0.6,0.04,2.27,0.62,4.79,1.5c75.7,26.45,199.61,33.9,290.23,35.5c266.04,4.69,560.72,16.43,574.51,16.98V510.49z"/>
		<path d="M992.01,205c9.39,0.01,10.39,9.7,10.85,24.48c0.35,11.44,0.72,23.27,10.11,23.52c2.82,0.07,5.12,0.3,7.35,0.51
			c2.04,0.2,4.16,0.4,6.64,0.49c0.09,0,0.17,0,0.26,0c7.91,0,10.59-12.74,13.19-25.06c2.17-10.3,4.42-20.95,9.31-20.96
			c0.07,0,0.15,0,0.22,0.01c0.53,0.03,2.26,0.64,4.65,1.47c9.67,3.38,32.32,11.29,77.76,18.92c56.82,9.54,128.36,15.13,212.63,16.61
			c263.46,4.64,554.99,16.2,574.02,16.96v248.03c-19.29-0.24-304.7-3.92-570.95-16.99c-30.16-1.48-58.79-2.2-87.5-2.2
			c-55.98,0-105.16,2.79-157.22,5.75c-43.51,2.47-88.51,5.03-143.36,6.45c-12.39,0.32-24.7,0.48-36.59,0.48
			c-57.43,0-100.04-3.68-141.25-7.25c-37.98-3.28-73.86-6.39-118.44-6.39c-15.66,0-31.28,0.38-47.75,1.15
			C338.07,504.1,21.41,509.64,1,509.98V261.97c20.51-0.61,353.61-10.52,630.01-13.97c90.3-1.13,173.85-7.58,248.33-19.19
			c59.07-9.2,94.28-18.85,107.53-22.48C989.51,205.61,991.6,205.04,992.01,205 M992,204c-3.56,0-121,40-361,43
			C343.83,250.59,0,261,0,261v250c0,0,326.84-5.37,616-19c17.08-0.81,32.85-1.15,47.7-1.15c93.03,0,149.42,13.63,259.69,13.63
			c11.57,0,23.75-0.15,36.61-0.48c122.44-3.16,199.16-12.2,300.55-12.2c26.96,0,55.67,0.64,87.45,2.2c277.54,13.62,572,17,572,17
			V261c0,0-300.73-12.17-575-17c-227-4-289.64-36.67-295-37c-0.1-0.01-0.19-0.01-0.29-0.01c-11.84,0.01-8.8,46.01-22.49,46.01
			c-0.07,0-0.15,0-0.22,0c-5.16-0.18-8.56-0.86-14-1C995.31,251.53,1013.19,204,992,204L992,204z"/>
	</g>
	<g>
		<path class="st3" d="M13.32,594.52c-6.98,0-11.4-0.01-12.82-0.02v-83c13.72-0.02,295.7-0.87,520.94-28.33
			c147.11-3.23,283-12.78,403.85-28.39c6.17-0.8,9.9-1.28,10.65-1.28c1.72,0.07,3.22,0.11,4.49,0.11c5.09,0,6.38-0.56,7.62-1.1
			c1.19-0.52,2.31-1.01,7.11-1.01l0.66,0c1,1.52,3.94,15.38,6.31,26.55c5.05,23.85,5.86,26.45,6.86,26.45h14
			c4.9,0,7.82-12.4,11.19-26.75c3.33-14.18,7.1-30.25,12.8-30.25c0.6,0,2.25,0.36,4.98,0.94c87.97,18.85,272.06,33.27,411.01,42.06
			c103.53,6.54,480.73,20.4,496.53,20.98v79.02c-15.8-0.04-380.43-1.19-493.43-17.99c-43.57-6.48-110.7-9.63-205.24-9.63
			c-60.4,0-121.55,1.29-170.68,2.32c-33.27,0.7-62,1.3-81.15,1.3c-20.34,0-49.47-1.42-83.2-3.07
			c-50.09-2.44-112.43-5.49-177.27-5.49c-75.77,0-138.77,4.11-192.61,12.56C370.3,593.36,71.7,594.52,13.32,594.52z"/>
		<path d="M1006.99,448c0.54,0,2.26,0.37,4.86,0.93c88,18.85,272.12,33.28,411.08,42.07c102.66,6.49,474.35,20.17,496.06,20.97V590
			c-21.75-0.06-380.89-1.34-492.85-17.99c-43.59-6.48-110.75-9.63-205.31-9.63c-60.4,0-121.56,1.29-170.69,2.32
			c-33.27,0.7-62,1.3-81.14,1.3c-20.33,0-49.45-1.42-83.18-3.07c-50.09-2.44-112.43-5.48-177.29-5.49
			c-75.79,0-138.82,4.11-192.69,12.56c-145.59,22.85-444.16,24.01-502.53,24.01c-6.3,0-10.51-0.01-12.32-0.02V512
			c18.94-0.04,297.48-1.15,520.45-28.33c147.16-3.23,283.05-12.78,403.91-28.4c5.94-0.77,9.87-1.27,10.6-1.27
			c1.69,0.07,3.2,0.11,4.48,0.11c5.2,0,6.53-0.58,7.81-1.14c1.14-0.5,2.21-0.97,6.92-0.97c0.12,0,0.23,0,0.35,0
			c1.08,2.36,3.87,15.5,6.13,26.16C967.33,505,967.65,505,969,505h8.59H983c5.04,0,7.72-10.31,11.67-27.13
			c3.12-13.31,7.01-29.86,12.31-29.87H1006.99 M1006.98,447c-11.6,0-14.49,57-23.98,57c-4.52,0-5.41,0-5.41,0h0.39
			c0,0-1.34,0-8.97,0c-1.73,0-11.19-52.98-13-53c-0.29,0-0.57,0-0.83,0c-9.85,0-4.78,2.11-14.73,2.11c-1.23,0-2.69-0.03-4.44-0.1
			c-0.02,0-0.04,0-0.06,0c-5.6,0-156.94,24.02-414.56,29.68C289,511,0,511,0,511v84c0,0,4.72,0.02,13.32,0.02
			c65.71,0,358.01-1.31,502.68-24.02c60.86-9.55,128.03-12.55,192.53-12.55C817.43,558.45,918.7,567,969,567
			c47.25,0,150.26-3.62,251.84-3.62c77.78,0,154.73,2.12,205.16,9.62c116.29,17.29,494,18,494,18v-80c0,0-390.57-14.27-497-21
			c-348-22-410.88-42.97-416-43C1006.99,447,1006.99,447,1006.98,447L1006.98,447z"/>
	</g>
</g>
<g id="arrow">
	<g>
		<line class="st4" x1="994.5" y1="206.5" x2="953.86" y2="449.49"/>
	</g>
	<g>
		<line class="st4" x1="1012.5" y1="254.5" x2="969.5" y2="504.5"/>
	</g>
	<g>
		<line class="st4" x1="1027.5" y1="253.5" x2="983.5" y2="504.5"/>
	</g>
	<g>
		<line class="st4" x1="1048.69" y1="209.32" x2="1007.5" y2="447.5"/>
	</g>
	<polygon class="st5" points="1507.5,566.47 1507.25,551.28 1531.29,549.5 1530.54,536.4 1564.98,554.35 1532.92,578.16 
		1532.17,565.06 	"/>
	<polygon class="st5" points="1332.5,359.47 1332.25,344.28 1356.29,342.5 1355.54,329.4 1389.98,347.35 1357.92,371.16 
		1357.17,358.06 	"/>
	<polygon class="st5" points="671.55,340.73 669.9,355.83 645.83,354.59 644.93,367.69 613.01,345.56 647.79,325.95 646.9,339.04 	
		"/>
	<polygon class="st5" points="472.89,547.73 471.24,562.82 447.17,561.58 446.27,574.68 414.34,552.55 449.13,532.94 448.23,546.04 
			"/>
</g>
<g id="Layer_5">
	<g class="st6">
		<polygon class="st7" points="898,452.94 0,452.94 0,197 969,197 		"/>
	</g>
	<g class="st6">
		<polygon class="st7" points="1920,452.94 898,455 969,197 1920,197 		"/>
	</g>
	<g>
		<path class="st1" d="M952.65,565.5c13.45-50.7,16.19-59.52,16.7-61h12.9c-1.88,4.72-11.25,32.13,10.73,61H952.65z"/>
		<path d="M981.51,505c-1.04,2.72-3.09,9.17-3.38,17.97c-0.34,10.32,1.84,25.84,13.86,42.03h-24.99H953.3
			c12.55-47.3,15.68-57.76,16.41-60H981.51 M983,504h-14c0,0-1,1.66-17,62c15.12,0,18.93,0,18.93,0h-3.94c0,0,5.12,0,27.01,0
			C969,534,983,504,983,504L983,504z"/>
	</g>
</g>
</svg>
