<?xml version="1.0" encoding="utf-8"?>
<!-- Generator: Adobe Illustrator 25.0.0, SVG Export Plug-In . SVG Version: 6.00 Build 0)  -->
<svg version="1.1" xmlns="http://www.w3.org/2000/svg" xmlns:xlink="http://www.w3.org/1999/xlink" x="0px" y="0px"
	 viewBox="0 0 1920 1080" style="enable-background:new 0 0 1920 1080;" xml:space="preserve">
<style type="text/css">
	.st0{fill:#81D4FA;}
	.st1{fill:#B71C1C;}
	.st2{fill:#607D8B;}
	.st3{fill:#BDBDBD;}
	.st4{fill:#CCCCCC;stroke:#000000;stroke-miterlimit:10;}
	.st5{fill:#E0E0E0;}
	.st6{fill:url(#SVGID_1_);}
	.st7{stroke:#000000;stroke-miterlimit:10;}
	.st8{opacity:0.8;}
	.st9{fill:#42A5F5;}
	.st10{opacity:0.8;fill:#42A5F5;}
	.st11{fill:#9E9E9E;}
</style>
<g id="sky">
	<g>
		<rect x="0.5" y="0.5" class="st0" width="1919" height="354"/>
		<path d="M1919,1v353H1V1H1919 M1920,0H0v355h1920V0L1920,0z"/>
	</g>
</g>
<g id="mantle">
	<g>
		<rect x="0.5" y="584.5" class="st1" width="1919" height="495"/>
		<path d="M1919,585v494H1V585H1919 M1920,584H0v496h1920V584L1920,584z"/>
	</g>
</g>
<g id="plate">
	<g>
		<polygon class="st2" points="1150.23,634.56 968.83,545.34 1284.06,517.56 1251.31,688.24 		"/>
		<path d="M1283.44,518.11l-32.5,169.37l-100.51-53.38l-179.79-88.42L1283.44,518.11 M1284.67,517L967,545l183,90l101.67,54
			L1284.67,517L1284.67,517z"/>
	</g>
	<g>
		<polygon class="st3" points="0.5,263.5 973.35,263.5 906.62,509.5 0.5,511.5 		"/>
		<path d="M972.69,264l-66.46,245L1,511V264H972.69 M974,263H0v249l907-2L974,263L974,263z"/>
	</g>
	<path class="st4" d="M960,600"/>
	<path class="st4" d="M1588.5,577.5"/>
	<path class="st4" d="M960,600"/>
	<g>
		<polygon class="st5" points="932.41,599.5 915.66,540.5 1918.5,540.5 1918.5,599.5 		"/>
		<path d="M1918,541v58H932.79l-16.47-58H1918 M1919,540H915l17.03,60H1919V540L1919,540z"/>
	</g>
	<g>
		<linearGradient id="SVGID_1_" gradientUnits="userSpaceOnUse" x1="903.8584" y1="356.1658" x2="1918.5" y2="356.1658">
			<stop  offset="0.1882" style="stop-color:#BDBDBD"/>
			<stop  offset="0.3453" style="stop-color:#CCCCCC"/>
			<stop  offset="0.5147" style="stop-color:#BDBDBD"/>
		</linearGradient>
		<path class="st6" d="M974.11,259.22c13.72-19.12,52-21.02,100.44-23.44c51.18-2.55,114.86-5.73,167.49-32.24
			c51.36,15.62,154.69,27.24,307.14,34.54c120.75,5.78,248.84,7.94,369.31,9.42v251c-45.79-0.84-113.41-3.38-191.65-6.32
			c-151.28-5.68-339.56-12.75-500.28-12.75c-187.41,0-293.04,9.61-322.71,29.37L974.11,259.22z"/>
		<path d="M1242.09,204.07c51.47,15.6,154.77,27.21,307.07,34.5c120.59,5.77,248.51,7.94,368.84,9.41v249.99
			c-45.78-0.85-113.18-3.38-191.14-6.31c-151.29-5.68-339.56-12.75-500.29-12.75c-185.21,0-290.64,9.4-321.87,28.74l69.87-248.22
			c13.62-18.85,51.76-20.76,100.01-23.16C1125.74,233.73,1189.39,230.55,1242.09,204.07 M1242,203c-101,51-239.52,15.58-268.35,56
			L903,510c31.65-22.94,162.87-30.08,323.57-30.08c245.56,0,559.88,16.67,692.43,19.08V247C1717.56,244.54,1360,239,1242,203
			L1242,203z"/>
	</g>
</g>
<g id="arrow">
	<polygon class="st7" points="428.77,399.07 428.46,380.37 458.05,378.18 457.13,362.05 499.54,384.15 460.07,413.46 459.15,397.33 
			"/>
	<polygon class="st7" points="1705.97,385.55 1704.33,404.17 1674.67,403.28 1673.91,419.42 1634.03,393.03 1676.33,367.98 
		1675.57,384.12 	"/>
	<polygon class="st7" points="1464.26,564.01 1462.84,580.11 1437.21,579.34 1436.55,593.29 1402.08,570.48 1438.64,548.82 
		1437.99,562.77 	"/>
</g>
<g id="ocean">
	<g class="st8">
		<polygon class="st9" points="1068,482 0,480 0,231 1121,231 		"/>
	</g>
	<g class="st8">
		<polygon class="st9" points="1920,480 1379,482 1417,223 1920,231 		"/>
	</g>
	<path class="st10" d="M1121,231c0,0,33,52,121,58s175-66,175-66l-35,251c3.68-0.64-45.94-35.26-158-32c-103,3-156,40-156,40
		L1121,231z"/>
	<g>
		<path class="st11" d="M904.95,546.5c-0.21-3.32-0.25-12.44,0.54-36.18c34.11-16.98,67.25-19.46,105.6-22.32
			c53.35-3.99,119.73-8.94,216.82-55.4c51.73,47.1,181.14,53.15,288.16,53.15c54.38,0,112.28-1.78,168.27-3.51
			c56.38-1.73,109.63-3.37,160.01-3.37c28.35,0,52.93,0.53,75.12,1.61l-2.95,61.02H905.64l-0.05,0.45
			C905.42,543.52,905.18,545.25,904.95,546.5z"/>
		<path d="M1227.82,433.19c22.33,20.19,59.49,34.16,113.56,42.68c44.86,7.07,100.37,10.37,174.69,10.37
			c54.39,0,112.3-1.78,168.3-3.51c56.37-1.73,109.61-3.37,159.99-3.37c28.12,0,52.53,0.52,74.58,1.58l-2.91,60.05H906.09h-0.76
			c-0.02-5.29,0.12-14.48,0.65-30.37c33.93-16.82,66.94-19.28,105.15-22.14C1064.46,484.51,1130.82,479.55,1227.82,433.19 M1228,432
			c-167,80-241,37-323,78c-1.03,31.04-0.71,38.53-0.15,38.53c0.52,0,1.24-6.53,1.24-6.53H1917l3-62
			c-23.76-1.17-49.13-1.63-75.64-1.63c-102.07,0-220.9,6.88-328.28,6.88C1387.47,485.25,1275.27,475.38,1228,432L1228,432z"/>
	</g>
	<g>
		<path class="st1" d="M1212.25,599.5c14.36-97.91,15.21-131.38,15.25-136.72l11.95,5.52c-0.8,6.12-10.2,85.08,31.09,131.2H1212.25z
			"/>
		<path d="M1227.99,463.56l10.92,5.04c-0.51,3.99-2.72,23.5-0.57,47.49c2.17,24.24,9.35,58.05,31.1,82.91h-56.61
			C1226.54,505.44,1227.88,470.92,1227.99,463.56 M1227,462c0,0,0.67,29-15.33,138c48,0,0,0,60,0c-44-48-31.67-132-31.67-132
			L1227,462L1227,462z"/>
	</g>
	<g>
		<path class="st11" d="M862.06,538.5l-861.56,1v-29H880c66.02,0,123.06,18.19,159.28,33.45c35.08,14.78,57.93,29.73,62.56,32.86
			l-33.85,9.67L862.06,538.5z"/>
		<path d="M880,511c29.11,0,58.91,3.51,88.58,10.43c23.74,5.54,47.46,13.27,70.48,22.96c33.18,13.98,55.41,28.11,61.61,32.23
			l-32.69,9.34l-205.75-47.94l-0.11-0.03l-0.12,0L1,539v-28H880 M880,510c-128,0-880,0-880,0v30l862-1l206,48l35-10
			C1103,577,1008,510,880,510L880,510z"/>
	</g>
	<g>
		<path class="st5" d="M1157.2,694.48c-2.16-2.26-24.66-25-74.49-47.44C1034.53,625.35,950.2,599.5,822,599.5H0.5v-59.01
			c13.87-0.21,305.68-4.5,555.91-4.5c149.83,0,255.67,1.52,314.56,4.51c101.68,5.16,199.51,44.83,263.67,77.2
			c63.69,32.13,107.69,63.59,114.98,68.92L1157.2,694.48z"/>
		<path d="M556.46,536.49c149.79,0,255.6,1.52,314.49,4.51c44.84,2.28,92.69,11.41,142.21,27.13
			c39.63,12.59,80.42,29.41,121.23,49.99c61.05,30.79,104.01,60.99,113.86,68.11l-90.86,7.73c-3-3.09-25.67-25.4-74.48-47.37
			c-30.69-13.82-65.6-24.83-103.74-32.72C931.52,604,878.64,599,822,599H1v-58.01c19.15-0.28,307.66-4.49,555.44-4.49H556.46
			 M556.41,535.49C298.35,535.49,0,540,0,540v60c0,0,574,0,822,0s335,95,335,95l94-8c0,0-183-137-380-147
			C804.41,536.62,685.47,535.49,556.41,535.49L556.41,535.49z"/>
	</g>
	<polygon class="st7" points="711.5,579.44 711.25,564.26 735.29,562.48 734.54,549.37 768.98,567.33 736.92,591.14 736.17,578.04 	
		"/>
</g>
</svg>
