<?xml version="1.0" encoding="utf-8"?>
<!-- Generator: Adobe Illustrator 25.0.1, SVG Export Plug-In . SVG Version: 6.00 Build 0)  -->
<svg version="1.1" xmlns="http://www.w3.org/2000/svg" xmlns:xlink="http://www.w3.org/1999/xlink" x="0px" y="0px"
	 viewBox="0 0 1920 1080" style="enable-background:new 0 0 1920 1080;" xml:space="preserve">
<style type="text/css">
	.st0{fill:#81D4FA;}
	.st1{fill:#B71C1C;}
	.st2{fill:#607D8B;}
	.st3{fill:#BDBDBD;}
	.st4{fill:url(#SVGID_1_);}
	.st5{stroke:#000000;stroke-miterlimit:10;}
	.st6{opacity:0.8;}
	.st7{fill:#42A5F5;}
	.st8{opacity:0.8;fill:#42A5F5;}
	.st9{fill:#9E9E9E;}
</style>
<g id="sky">
	<g>
		<rect x="0.5" y="0.5" class="st0" width="1919" height="354"/>
		<path d="M1919,1v353H1V1H1919 M1920,0H0v355h1920V0L1920,0z"/>
	</g>
</g>
<g id="mantle">
	<g>
		<rect x="0.5" y="584.5" class="st1" width="1919" height="495"/>
		<path d="M1919,585v494H1V585H1919 M1920,584H0v496h1920V584L1920,584z"/>
	</g>
</g>
<g id="plate">
	<g>
		<polygon class="st2" points="1030.93,566.57 838.57,454.53 1171.94,459.41 1139.19,630.12 		"/>
		<path d="M840.47,455.06l330.87,4.84l-32.51,169.44l-107.65-63.2L840.47,455.06 M836.67,454l194,113l108.87,63.91l33-172
			L836.67,454L836.67,454z"/>
	</g>
	<g>
		<polygon class="st3" points="0.5,263.5 973.35,263.5 906.62,509.5 0.5,511.5 		"/>
		<path d="M972.69,264l-66.46,245L1,511V264H972.69 M974,263H0v249l907-2L974,263L974,263z"/>
	</g>
	<g>
		<linearGradient id="SVGID_1_" gradientUnits="userSpaceOnUse" x1="903.8584" y1="366.1567" x2="1918.5" y2="366.1567">
			<stop  offset="0.1882" style="stop-color:#BDBDBD"/>
			<stop  offset="0.3453" style="stop-color:#CCCCCC"/>
			<stop  offset="0.5147" style="stop-color:#BDBDBD"/>
		</linearGradient>
		<path class="st4" d="M974.11,259.22c15.69-21.85,65.72-22.14,123.65-22.48c46.33-0.27,98.84-0.57,138.27-13.22
			c98.11,22.11,342.63,22.72,539.12,23.21c52.03,0.13,101.19,0.25,143.36,0.76v251c-45.79-0.84-113.4-3.38-191.65-6.32
			c-151.28-5.68-339.56-12.75-500.28-12.75c-187.41,0-293.04,9.61-322.71,29.37L974.11,259.22z"/>
		<path d="M1236.05,224.04c98.26,22.09,342.68,22.7,539.1,23.19c51.83,0.13,100.8,0.25,142.85,0.76v249.99
			c-45.78-0.85-113.18-3.38-191.14-6.31c-151.28-5.68-339.56-12.75-500.29-12.75c-185.21,0-290.64,9.4-321.87,28.74l69.87-248.22
			c7.08-9.79,21.61-15.83,45.71-19c21.83-2.87,48.86-3.03,77.48-3.2C1144.08,236.97,1196.56,236.67,1236.05,224.04 M1236,223
			c-87,28-233.52-4.42-262.35,36L903,510c31.65-22.94,162.87-30.08,323.57-30.08c245.56,0,559.88,16.67,692.43,19.08V247
			C1717.56,244.54,1360,251,1236,223L1236,223z"/>
	</g>
</g>
<g id="arrow">
	<polygon class="st5" points="404.77,399.07 404.46,380.37 434.05,378.18 433.13,362.05 475.54,384.15 436.07,413.46 435.15,397.33 
			"/>
	<polygon class="st5" points="1725.97,385.55 1724.33,404.17 1694.67,403.28 1693.91,419.42 1654.03,393.03 1696.33,367.98 
		1695.57,384.12 	"/>
</g>
<g id="ocean">
	<g class="st6">
		<polygon class="st7" points="1148,482 0,480 0,231 1189,233 		"/>
	</g>
	<g class="st6">
		<polygon class="st7" points="1920,480 1278,480 1307,233 1920,231 		"/>
	</g>
	<path class="st8" d="M1189,233c0,0,9.04,38.72,54,36c33-2,64-36,64-36l-28,237c3.68-0.64-19.09-25.29-55-28c-53-4-76,30-76,30
		L1189,233z"/>
	<g>
		<path class="st9" d="M1088,599.5c-0.38-0.07-46.67-7.66-92.1-22.48c-41.67-13.59-91.1-36.18-90.4-66.71
			c38.26-19.06,73.35-20.89,117.74-23.22c49.89-2.61,111.97-5.86,202.71-35.55c52.84,29.7,165.11,33.51,257.06,33.51
			c55.64,0,116.04-1.65,174.45-3.25c57.94-1.59,117.85-3.23,172.59-3.23c34.06,0,63.33,0.62,89.45,1.9l-0.99,119.02H1088z"/>
		<path d="M1225.89,452.09c22.53,12.6,56.59,21.36,104.12,26.76c39.67,4.51,89.72,6.7,152.99,6.7c55.65,0,116.06-1.65,174.48-3.25
			c57.93-1.59,117.84-3.22,172.58-3.22c33.84,0,62.94,0.61,88.93,1.87L1918.01,599h-829.93c-2.18-0.36-47.52-7.94-92.04-22.46
			c-26.62-8.68-47.73-18.1-62.75-28.01c-18.28-12.05-27.46-24.8-27.31-37.91c38.06-18.88,73.04-20.72,117.28-23.03
			C1073.14,484.98,1135.19,481.74,1225.89,452.09 M1226,451c-171,56-239,18-321,59c-2,60,183,90,183,90h831l1-120
			c-28.11-1.38-58.33-1.92-89.95-1.92c-109.78,0-236.08,6.48-347.04,6.48C1370.41,484.56,1273.59,477.88,1226,451L1226,451z"/>
	</g>
	<g>
		<path class="st1" d="M1212.25,599.5c5.21-35.49,8.54-59.13,9.92-70.3l11.26,6.06c-0.43,2.63-1.28,18.2,25.69,64.24H1212.25z"/>
		<path d="M1222.58,529.99l10.32,5.55c-0.41,3.62-0.13,19.77,25.36,63.46h-27.37h-18.05
			C1217.88,564.57,1221.16,541.38,1222.58,529.99 M1222.33,521.95c-0.24,0-1.33,6.05-1.33,6.05l0.77,0.41
			C1222.36,523.55,1222.46,521.95,1222.33,521.95L1222.33,521.95z M1221.77,528.41c-1.1,9.04-3.89,29.36-10.09,71.59
			c17.22,0,20.58,0,20.58,0h-1.38c0,0,4.42,0,29.12,0c-30-51-26-65-26-65L1221.77,528.41L1221.77,528.41z"/>
	</g>
	<g>
		<path class="st9" d="M937,548.5l-74.93-10l-861.57,1v-29c14.77-0.14,341.41-3.15,594.55-3.15c151.38,0,247.24,1.06,284.92,3.15
			c48.38,2.69,104.71,32.32,115.1,38H937z"/>
		<path d="M595.08,507.84c151.35,0,247.19,1.06,284.86,3.15c46.04,2.56,99.32,29.59,113.15,37h-56.03l-74.93-9.99l-0.07-0.01
			l-0.07,0L1,539v-28.01c20.39-0.19,343.29-3.15,594.07-3.15H595.08 M595.05,506.84C334.32,506.84,0,510,0,510v30l862-1l75,10h60
			c0,0-63-36-117-39C837.39,507.63,725.44,506.84,595.05,506.84L595.05,506.84z"/>
	</g>
	<g>
		<path class="st9" d="M1027.1,626.5c-1.33-0.52-18.31-7.05-50.76-13.49C945.3,606.85,893.33,599.5,822,599.5H0.5v-87.01
			c14.84-0.26,345.8-6.03,607.54-6.03c127.63,0,219.12,1.36,271.93,4.04c44.87,2.28,86.44,10.04,123.55,23.08
			c29.69,10.43,56.6,24.24,80.01,41.04c36.11,25.93,52.66,51.14,55.56,55.85L1027.1,626.5z"/>
		<path d="M608.04,506.96c127.62,0,219.11,1.36,271.91,4.04c44.8,2.27,86.31,10.03,123.37,23.04
			c29.64,10.41,56.51,24.18,79.87,40.95c34.38,24.67,51,48.7,54.98,54.95l-110.97-3.93c-1.85-0.72-18.84-7.15-50.76-13.49
			C945.38,606.35,893.37,599,822,599H1v-86.02C21.43,512.62,348.71,506.96,608.04,506.96 M608.04,505.96C338.5,505.96,0,512,0,512
			v88c0,0,574,0,822,0c138,0,205,27,205,27l113,4c0,0-63-111-260-121C821.15,507.01,720.62,505.96,608.04,505.96L608.04,505.96z"/>
	</g>
	<polygon class="st5" points="1506.26,564.01 1504.84,580.11 1479.21,579.34 1478.55,593.29 1444.08,570.48 1480.64,548.82 
		1479.99,562.77 	"/>
	<polygon class="st5" points="676.5,579.44 676.25,564.26 700.29,562.48 699.54,549.37 733.98,567.33 701.92,591.14 701.17,578.04 	
		"/>
</g>
</svg>
