<?xml version="1.0" encoding="utf-8"?>
<!-- Generator: Adobe Illustrator 25.0.0, SVG Export Plug-In . SVG Version: 6.00 Build 0)  -->
<svg version="1.1" xmlns="http://www.w3.org/2000/svg" xmlns:xlink="http://www.w3.org/1999/xlink" x="0px" y="0px"
	 viewBox="0 0 1920 1080" style="enable-background:new 0 0 1920 1080;" xml:space="preserve">
<style type="text/css">
	.st0{fill:#81D4FA;}
	.st1{fill:#B71C1C;}
	.st2{fill:#BDBDBD;}
	.st3{fill:#CCCCCC;stroke:#000000;stroke-miterlimit:10;}
	.st4{fill:#E0E0E0;}
	.st5{fill:url(#SVGID_1_);}
	.st6{fill:#607D8B;}
	.st7{stroke:#000000;stroke-miterlimit:10;}
	.st8{opacity:0.8;}
	.st9{fill:#42A5F5;}
	.st10{opacity:0.8;fill:#42A5F5;}
	.st11{fill:#9E9E9E;}
</style>
<g id="sky">
	<g>
		<rect x="0.5" y="0.5" class="st0" width="1919" height="354"/>
		<path d="M1919,1v353H1V1H1919 M1920,0H0v355h1920V0L1920,0z"/>
	</g>
</g>
<g id="mantle">
	<g>
		<rect x="0.5" y="584.5" class="st1" width="1919" height="495"/>
		<path d="M1919,585v494H1V585H1919 M1920,584H0v496h1920V584L1920,584z"/>
	</g>
</g>
<g id="plate">
	<g>
		<polygon class="st2" points="0.5,263.5 973.35,263.5 906.62,509.5 0.5,511.5 		"/>
		<path d="M972.69,264l-66.46,245L1,511V264H972.69 M974,263H0v249l907-2L974,263L974,263z"/>
	</g>
	<path class="st3" d="M960,600"/>
	<path class="st3" d="M1588.5,577.5"/>
	<path class="st3" d="M960,600"/>
	<g>
		<polygon class="st4" points="932.41,599.5 915.66,540.5 1918.5,540.5 1918.5,599.5 		"/>
		<path d="M1918,541v58H932.79l-16.47-58H1918 M1919,540H915l17.03,60H1919V540L1919,540z"/>
	</g>
	<g>
		<linearGradient id="SVGID_1_" gradientUnits="userSpaceOnUse" x1="903.8584" y1="348.1843" x2="1918.5" y2="348.1843">
			<stop  offset="0.1882" style="stop-color:#BDBDBD"/>
			<stop  offset="0.3453" style="stop-color:#CCCCCC"/>
			<stop  offset="0.5147" style="stop-color:#BDBDBD"/>
		</linearGradient>
		<path class="st5" d="M974.11,259.22c12.93-18,52.42-21.56,98.13-25.68c55.44-5,124.42-11.21,170.83-45.97
			c111.01,47.64,438.46,57.02,675.43,59.92v251c-45.79-0.84-113.41-3.38-191.65-6.32c-151.28-5.68-339.56-12.75-500.28-12.75
			c-187.41,0-293.04,9.61-322.71,29.37L974.11,259.22z"/>
		<path d="M1243.14,188.15c50.82,21.71,153.69,37.75,305.76,47.68c127.46,8.32,264.09,10.87,369.1,12.16v249.99
			c-45.78-0.85-113.18-3.38-191.14-6.31c-151.29-5.68-339.56-12.75-500.29-12.75c-185.21,0-290.64,9.4-321.87,28.74l69.87-248.22
			c12.85-17.75,52.19-21.3,97.72-25.4c27.89-2.51,59.5-5.36,89.39-11.9C1195.82,214.68,1222.47,203.56,1243.14,188.15 M1243,187
			c-84.39,63.47-240.52,31.58-269.35,72L903,510c31.65-22.94,162.87-30.08,323.57-30.08c245.56,0,559.88,16.67,692.43,19.08V247
			C1717.56,244.54,1359,237,1243,187L1243,187z"/>
	</g>
	<g>
		<polygon class="st6" points="1287.96,712.59 1095.53,600.5 1407.39,600.5 1374.33,771.16 		"/>
		<path d="M1406.79,601l-32.81,169.32l-85.75-58.15l-0.03-0.02l-0.03-0.02L1097.38,601H1406.79 M1408,600h-314.33l194,113l87,59
			L1408,600L1408,600z"/>
	</g>
</g>
<g id="arrow">
	<polygon class="st7" points="449.5,399.07 449.19,380.37 478.78,378.18 477.86,362.05 520.26,384.15 480.8,413.46 479.88,397.33 	
		"/>
	<polygon class="st7" points="1683.54,385.55 1681.9,404.17 1652.24,403.28 1651.48,419.42 1611.6,393.03 1653.9,367.98 
		1653.14,384.12 	"/>
	<polygon class="st7" points="1433.26,564.01 1431.84,580.11 1406.21,579.34 1405.55,593.29 1371.08,570.48 1407.64,548.82 
		1406.99,562.77 	"/>
</g>
<g id="ocean">
	<g class="st8">
		<polygon class="st9" points="1068,482 0,480 0,231 1121,231 		"/>
	</g>
	<g class="st8">
		<polygon class="st9" points="1920,480 1379,482 1417,223 1920,231 		"/>
	</g>
	<path class="st10" d="M1121,231c0,0,39,67,127,73s169-81,169-81l-35,251c3.68-0.64-37-32-149-37s-165,45-165,45L1121,231z"/>
	<g>
		<path class="st11" d="M904.95,546.5c-0.21-3.32-0.25-12.44,0.54-36.18c29.78-14.79,69.87-18.85,112.3-23.15
			c74.05-7.5,157.96-16,212.13-84.25c16.92,31.54,56.13,53.18,119.81,66.14c50.94,10.37,117.29,15.2,208.8,15.2
			c49.84,0,101.61-1.39,151.68-2.73c48.82-1.31,94.93-2.54,138.23-2.54c27.09,0,50.33,0.49,71.03,1.5l-2.95,61.02H905.64l-0.05,0.45
			C905.42,543.52,905.18,545.25,904.95,546.5z"/>
		<path d="M1229.84,403.81c17.19,31.32,56.4,52.82,119.79,65.72c50.98,10.38,117.36,15.21,208.9,15.21
			c49.85,0,101.64-1.39,151.73-2.73c48.8-1.31,94.9-2.54,138.23-2.54c26.83,0,49.89,0.48,70.46,1.47l-2.91,60.05H906.09h-0.76
			c-0.02-5.29,0.12-14.47,0.65-30.37c29.67-14.65,69.6-18.69,111.86-22.97C1091.78,480.17,1175.53,471.69,1229.84,403.81 M1230,402
			c-85,108-243,67-325,108c-1.03,31.04-0.71,38.53-0.15,38.53c0.52,0,1.24-6.53,1.24-6.53H1917l3-62
			c-22.31-1.1-46.29-1.52-71.56-1.52c-88.68,0-192.53,5.27-289.91,5.27C1404.13,483.75,1265.9,470.49,1230,402L1230,402z"/>
	</g>
	<g>
		<path class="st1" d="M1212.25,599.5c14.85-101.36,15.85-160.04,15.92-166.84l12.96,3.7c-0.42,3.72-3.3,31.3-1.45,63.66
			c1.81,31.66,8.65,74.44,30.88,99.47H1212.25z"/>
		<path d="M1228.66,433.32l11.92,3.41c-0.55,5.05-3.2,31.94-1.41,63.33c1.17,20.39,3.95,38.67,8.28,54.33
			c5.17,18.67,12.56,33.67,21.99,44.61h-56.62c8.16-55.77,12.03-98.07,13.84-123.8C1228.32,451.83,1228.61,437.55,1228.66,433.32
			 M1227.67,432c0,0,0,59-16,168c48,0,0,0,60,0c-44-48-30-164-30-164L1227.67,432L1227.67,432z"/>
	</g>
	<g>
		<path class="st11" d="M1121.07,614.5l-259-76l-861.57,1v-29H880c66.02,0,141,28.52,192.28,52.45
			c49.72,23.2,87.35,46.67,95.02,51.55H1121.07z"/>
		<path d="M880,511c29.1,0,62.36,5.5,98.86,16.36c29.23,8.69,60.58,20.82,93.19,36.03c47.08,21.97,83.32,44.19,93.52,50.61h-44.42
			l-258.86-75.96l-0.14-0.04l-0.14,0L1,539v-28H880 M880,510c-128,0-880,0-880,0v30l862-1l259,76h48C1169,615,1008,510,880,510
			L880,510z"/>
	</g>
	<g>
		<path class="st4" d="M1274.18,771.5c-3.05-2.54-53.93-44.51-132.95-85.94c-47.64-24.98-96.03-44.89-143.84-59.16
			c-59.77-17.85-118.78-26.9-175.39-26.9H0.5v-59H871c45.56,0,100.43,12.18,163.1,36.21c50.16,19.23,105.38,46.05,164.14,79.71
			c93.26,53.42,166.16,107.5,176.26,115.07H1274.18z"/>
		<path d="M871,541c45.49,0,100.3,12.17,162.91,36.18c50.13,19.22,105.33,46.03,164.07,79.68C1288.15,708.5,1359.28,760.76,1373,771
			h-98.64c-4.22-3.5-54.85-44.96-132.9-85.89c-47.67-25-96.09-44.91-143.93-59.2C937.72,608.06,878.66,599,822,599H1v-58H871
			 M871,540c-200,0-871,0-871,0v60c0,0,574,0,822,0s452,172,452,172h102C1376,772,1071,540,871,540L871,540z"/>
	</g>
	<polygon class="st7" points="779.5,580.44 779.25,565.26 803.29,563.48 802.54,550.37 836.98,568.33 804.92,592.14 804.17,579.04 	
		"/>
</g>
</svg>
