<?xml version="1.0" encoding="utf-8"?>
<!-- Generator: Adobe Illustrator 25.0.1, SVG Export Plug-In . SVG Version: 6.00 Build 0)  -->
<svg version="1.1" xmlns="http://www.w3.org/2000/svg" xmlns:xlink="http://www.w3.org/1999/xlink" x="0px" y="0px"
	 viewBox="0 0 1920 1080" style="enable-background:new 0 0 1920 1080;" xml:space="preserve">
<style type="text/css">
	.st0{fill:#81D4FA;}
	.st1{fill:#B71C1C;}
	.st2{fill:#607D8B;}
	.st3{fill:#BDBDBD;}
	.st4{fill:url(#SVGID_1_);}
	.st5{stroke:#000000;stroke-miterlimit:10;}
	.st6{opacity:0.8;}
	.st7{fill:#42A5F5;}
	.st8{opacity:0.8;fill:#42A5F5;}
	.st9{fill:#9E9E9E;}
</style>
<g id="sky">
	<g>
		<rect x="0.5" y="0.5" class="st0" width="1919" height="354"/>
		<path d="M1919,1v353H1V1H1919 M1920,0H0v355h1920V0L1920,0z"/>
	</g>
</g>
<g id="mantle">
	<g>
		<rect x="0.5" y="584.5" class="st1" width="1919" height="495"/>
		<path d="M1919,585v494H1V585H1919 M1920,584H0v496h1920V584L1920,584z"/>
	</g>
</g>
<g id="plate">
	<g>
		<polygon class="st2" points="1187.23,640.56 1005.83,551.34 1321.06,523.56 1288.31,694.24 		"/>
		<path d="M1320.44,524.11l-32.5,169.37l-100.51-53.38l-179.79-88.42L1320.44,524.11 M1321.67,523L1004,551l183,90l101.67,54
			L1321.67,523L1321.67,523z"/>
	</g>
	<g>
		<polygon class="st3" points="0.5,263.5 973.35,263.5 906.62,509.5 0.5,511.5 		"/>
		<path d="M972.69,264l-66.46,245L1,511V264H972.69 M974,263H0v249l907-2L974,263L974,263z"/>
	</g>
	<g>
		<linearGradient id="SVGID_1_" gradientUnits="userSpaceOnUse" x1="903.8584" y1="356.1658" x2="1918.5" y2="356.1658">
			<stop  offset="0.1882" style="stop-color:#BDBDBD"/>
			<stop  offset="0.3453" style="stop-color:#CCCCCC"/>
			<stop  offset="0.5147" style="stop-color:#BDBDBD"/>
		</linearGradient>
		<path class="st4" d="M974.11,259.22c13.72-19.12,52-21.02,100.44-23.44c51.18-2.55,114.86-5.73,167.49-32.24
			c51.36,15.62,154.69,27.24,307.14,34.54c120.75,5.78,248.84,7.94,369.31,9.42v251c-45.79-0.84-113.41-3.38-191.65-6.32
			c-151.28-5.68-339.56-12.75-500.28-12.75c-187.41,0-293.04,9.61-322.71,29.37L974.11,259.22z"/>
		<path d="M1242.09,204.07c51.47,15.6,154.77,27.21,307.07,34.5c120.59,5.77,248.51,7.94,368.84,9.41v249.99
			c-45.78-0.85-113.18-3.38-191.14-6.31c-151.29-5.68-339.56-12.75-500.29-12.75c-185.21,0-290.64,9.4-321.87,28.74l69.87-248.22
			c13.62-18.85,51.76-20.76,100.01-23.16C1125.74,233.73,1189.39,230.55,1242.09,204.07 M1242,203c-101,51-239.52,15.58-268.35,56
			L903,510c31.65-22.94,162.87-30.08,323.57-30.08c245.56,0,559.88,16.67,692.43,19.08V247C1717.56,244.54,1360,239,1242,203
			L1242,203z"/>
	</g>
</g>
<g id="arrow">
	<polygon class="st5" points="428.77,399.07 428.46,380.37 458.05,378.18 457.13,362.05 499.54,384.15 460.07,413.46 459.15,397.33 
			"/>
	<polygon class="st5" points="1705.97,385.55 1704.33,404.17 1674.67,403.28 1673.91,419.42 1634.03,393.03 1676.33,367.98 
		1675.57,384.12 	"/>
</g>
<g id="ocean">
	<g class="st6">
		<polygon class="st7" points="1068,482 0,480 0,231 1121,231 		"/>
	</g>
	<g class="st6">
		<polygon class="st7" points="1920,480 1379,482 1417,223 1920,231 		"/>
	</g>
	<path class="st8" d="M1121,231c0,0,33,52,121,58s175-66,175-66l-35,251c3.68-0.64-45.94-35.26-158-32c-103,3-156,40-156,40
		L1121,231z"/>
	<g>
		<path class="st9" d="M1099,599.5c-0.41-0.07-49.45-7.66-97.61-22.48c-44.16-13.59-96.57-36.18-95.9-66.71
			c34.1-16.98,67.24-19.45,105.6-22.32c53.35-3.99,119.73-8.94,216.82-55.4c51.73,47.1,181.14,53.15,288.16,53.15
			c54.38,0,112.28-1.78,168.27-3.51c56.38-1.73,109.63-3.37,160.01-3.37c28.36,0,52.94,0.53,75.14,1.61l-0.99,119.02H1099z"/>
		<path d="M1227.82,433.19c22.33,20.19,59.49,34.16,113.56,42.68c44.86,7.07,100.37,10.37,174.69,10.37
			c54.39,0,112.3-1.78,168.3-3.51c56.37-1.73,109.61-3.37,159.99-3.37c28.14,0,52.56,0.52,74.62,1.59L1918.01,599h-818.93
			c-2.19-0.34-50.28-7.92-97.53-22.46c-28.22-8.68-50.61-18.11-66.55-28.02c-19.39-12.06-29.15-24.8-29.01-37.9
			c33.92-16.81,66.94-19.28,105.14-22.13C1064.46,484.51,1130.82,479.55,1227.82,433.19 M1228,432c-167,80-241,37-323,78
			c-2,60,194,90,194,90h820l1-120c-23.76-1.17-49.13-1.63-75.64-1.63c-102.07,0-220.9,6.88-328.28,6.88
			C1387.47,485.25,1275.27,475.38,1228,432L1228,432z"/>
	</g>
	<g>
		<path class="st1" d="M1212.25,599.5c14.36-97.91,15.21-131.38,15.25-136.72l11.95,5.52c-0.8,6.12-10.2,85.08,31.09,131.2H1212.25z
			"/>
		<path d="M1227.99,463.56l10.92,5.04c-0.51,3.99-2.72,23.5-0.57,47.49c2.17,24.24,9.35,58.05,31.1,82.91h-56.61
			C1226.54,505.44,1227.88,470.92,1227.99,463.56 M1227,462c0,0,0.67,29-15.33,138c48,0,0,0,60,0c-44-48-31.67-132-31.67-132
			L1227,462L1227,462z"/>
	</g>
	<g>
		<path class="st9" d="M1157.22,694.5c-2.05-2.15-24.54-24.96-74.51-47.46C1034.53,625.35,950.2,599.5,822,599.5H0.5v-89.01
			c13.99-0.21,309.73-4.5,562.58-4.5c151.38,0,258,1.52,316.9,4.51c44.88,2.28,94.35,13.41,147.02,33.09
			c42.15,15.75,86.44,36.98,131.63,63.09c70.9,40.97,121.96,81.38,129.96,87.82H1157.22z"/>
		<path d="M563.11,506.49c151.35,0,257.95,1.52,316.84,4.51c44.83,2.28,94.24,13.4,146.85,33.06
			c42.12,15.74,86.38,36.95,131.54,63.04c68.16,39.38,117.98,78.25,128.82,86.9h-129.74c-2.85-2.95-25.5-25.34-74.52-47.41
			c-30.69-13.82-65.6-24.83-103.74-32.72C931.52,604,878.64,599,822,599H1v-88.01c19.27-0.28,311.7-4.49,562.09-4.49H563.11
			 M563.08,505.49C302.35,505.49,0,510,0,510v90c0,0,574,0,822,0s335,95,335,95h133c0,0-213-175-410-185
			C813.41,506.62,693.47,505.49,563.08,505.49L563.08,505.49z"/>
	</g>
	<polygon class="st5" points="1464.26,564.01 1462.84,580.11 1437.21,579.34 1436.55,593.29 1402.08,570.48 1438.64,548.82 
		1437.99,562.77 	"/>
	<polygon class="st5" points="711.5,579.44 711.25,564.26 735.29,562.48 734.54,549.37 768.98,567.33 736.92,591.14 736.17,578.04 	
		"/>
</g>
</svg>
