<?xml version="1.0" encoding="utf-8"?>
<!-- Generator: Adobe Illustrator 25.0.0, SVG Export Plug-In . SVG Version: 6.00 Build 0)  -->
<svg version="1.1" xmlns="http://www.w3.org/2000/svg" xmlns:xlink="http://www.w3.org/1999/xlink" x="0px" y="0px"
	 viewBox="0 0 1920 1080" style="enable-background:new 0 0 1920 1080;" xml:space="preserve">
<style type="text/css">
	.st0{fill:#B71C1C;}
	.st1{fill:#81D4FA;}
	.st2{fill:#E0E0E0;}
	.st3{fill:#A1887F;}
	.st4{fill:url(#SVGID_1_);}
	.st5{fill:#CCCCCC;stroke:#000000;stroke-miterlimit:10;}
	.st6{fill:none;stroke:#000000;stroke-miterlimit:10;}
	.st7{stroke:#000000;stroke-miterlimit:10;}
</style>
<g id="mantle">
	<g>
		<rect x="0.5" y="584.5" class="st0" width="1919" height="495"/>
		<path d="M1919,585v494H1V585H1919 M1920,584H0v496h1920V584L1920,584z"/>
	</g>
</g>
<g id="plate">
	<g id="sky">
		<g>
			<rect x="0.5" y="0.5" class="st1" width="1919" height="230"/>
			<path d="M1919,1v229H1V1H1919 M1920,0H0v231h1920V0L1920,0z"/>
		</g>
	</g>
	<g>
		<path class="st2" d="M960,641.5c-144.55,0-275.86-18.4-391.72-34.63c-41.01-5.75-79.75-11.17-116.23-15.37
			c-19-2.19-50.79-3.3-94.49-3.3c-135.29,0-345.04,10.65-357.07,11.27v-59l618.41-32.97c2.37,1.03,42.23,18.11,102.58,34.98
			C778.66,558.46,866.44,577.5,960,577.5c51.64,0,135.11-6.08,239.51-35.02c60.85-16.87,101.2-33.96,103.58-34.98l616.41,32.97
			v59.01c-13.43-0.39-276.18-8.05-421.46-8.05c-43.84,0-73.14,0.7-87.09,2.07c-19.27,1.9-46.38,6.23-80.71,11.7
			C1239.68,619.66,1102.81,641.5,960,641.5z"/>
		<path d="M1303.18,508.01L1919,540.95v58.02c-18.5-0.54-277.22-8.04-420.96-8.04c-43.85,0-73.17,0.7-87.14,2.07
			c-19.28,1.9-46.4,6.23-80.74,11.71C1239.61,619.16,1102.77,641,960,641c-144.51,0-275.81-18.39-391.65-34.62
			c-41.02-5.75-79.76-11.17-116.24-15.37c-19.02-2.19-50.83-3.3-94.55-3.3C223.91,587.71,17.61,598.1,1,598.95v-58l617.82-32.94
			c3.29,1.42,42.93,18.29,102.54,34.95c36.4,10.17,73.02,18.27,108.84,24.09C874.99,574.32,918.66,578,960,578
			c41.34,0,85.11-3.68,130.11-10.95c35.99-5.81,72.84-13.92,109.53-24.09C1259.75,526.3,1299.88,509.42,1303.18,508.01 M1303,507
			c0,0-162,70-343,70s-341-70-341-70L0,540v60c0,0,217.35-11.29,357.57-11.29c40.06,0,73.83,0.92,94.43,3.29c139,16,312,50,508,50
			s380-41,451-48c15.06-1.49,46.62-2.07,87.04-2.07c150.08,0,421.96,8.07,421.96,8.07v-60L1303,507L1303,507z"/>
	</g>
	<g>
		<path class="st3" d="M960,583.5c-219.13,0-293.83-14-397.21-33.39c-18.17-3.41-36.95-6.93-57.7-10.61
			c-41.61-7.38-106.77-11.12-193.68-11.12c-143.68,0-300.51,10.38-310.91,11.08v-59.03L960,355.5l959.5,124.94v59.06H1465
			c-65,0-119.61,8.16-182.85,17.62C1199.42,569.48,1105.66,583.5,960,583.5z"/>
		<path d="M960,356.01l959,124.87V539h-454c-65.04,0-119.67,8.17-182.92,17.62C1199.37,568.99,1105.62,583,960,583
			c-219.09,0-293.76-14-397.12-33.38c-18.17-3.41-36.95-6.93-57.7-10.61c-41.64-7.38-106.83-11.13-193.77-11.13
			c-141.64,0-296.07,10.08-310.41,11.04v-58.05L960,356.01 M960,355L0,480v60c0,0,161.77-11.11,311.41-11.11
			c74.81,0,146.6,2.78,193.59,11.11c141,25,198,44,455,44s355-44,505-44s455,0,455,0v-60L960,355L960,355z"/>
	</g>
	<g>
		<linearGradient id="SVGID_1_" gradientUnits="userSpaceOnUse" x1="0.5" y1="329.0222" x2="1919.5" y2="329.0222">
			<stop  offset="0" style="stop-color:#4CAF50"/>
			<stop  offset="0.2948" style="stop-color:#4EB052"/>
			<stop  offset="0.4008" style="stop-color:#55B359"/>
			<stop  offset="0.4762" style="stop-color:#60B864"/>
			<stop  offset="0.5" style="stop-color:#66BB6A"/>
			<stop  offset="0.5237" style="stop-color:#60B864"/>
			<stop  offset="0.5989" style="stop-color:#55B359"/>
			<stop  offset="0.7047" style="stop-color:#4EB052"/>
			<stop  offset="0.9988" style="stop-color:#4CAF50"/>
		</linearGradient>
		<path class="st4" d="M128.19,480.54c-73.6,0-122.33-0.92-127.69-1.03V231.47c74.71-5.18,156.31-5.93,250.77-6.79
			c194.26-1.78,436-4,753.72-47.17c196.86,35.04,330.77,37.94,461.79,37.94c15.09,0,30.22-0.04,45.48-0.08
			c15.53-0.04,31.19-0.08,47.07-0.08c94.83,0,208.67,1.25,360.16,16.17v248.03c-99.77-3.06-196.76-4.62-290.55-6.13
			c-273.69-4.39-510.06-8.18-678.83-46.85l-0.1-0.02l-0.1,0.02c-103.39,20.74-246.22,35.8-424.52,44.76
			C373.07,478.93,225.32,480.54,128.19,480.54z"/>
		<path d="M1004.98,178.01c196.86,35.03,330.77,37.93,461.8,37.93c15.09,0,30.54-0.04,45.48-0.08c15.33-0.04,31.18-0.08,47.09-0.08
			c94.72,0,208.4,1.25,359.64,16.12v247.06c-99.6-3.05-196.41-4.61-290.05-6.11c-273.66-4.39-510.01-8.18-678.73-46.83l-0.21-0.05
			l-0.21,0.04c-103.36,20.74-246.17,35.79-424.45,44.76c-152.31,7.66-300.05,9.26-397.17,9.26c-71.73,0-119.83-0.88-127.19-1.02
			V231.93c74.57-5.15,156.02-5.89,250.27-6.76C445.52,223.39,687.28,221.17,1004.98,178.01 M1005,177C534,241,230,215,0,231v249
			c0,0,49.58,1.04,128.19,1.04c199.5,0,585.81-6.69,821.81-54.04c227,52,580,41,970,53V231c-147.09-14.51-258.66-16.22-360.66-16.22
			c-31.51,0-62.11,0.16-92.56,0.16C1332.01,214.95,1200.17,211.74,1005,177L1005,177z"/>
	</g>
	<path class="st5" d="M960,600"/>
	<path class="st5" d="M1588.5,577.5"/>
	<path class="st5" d="M960,600"/>
</g>
<g id="lines">
	<g>
		<line class="st6" x1="949.13" y1="426.57" x2="927.64" y2="458.22"/>
	</g>
	<g>
		<line class="st6" x1="926.01" y1="458.8" x2="951.64" y2="493.22"/>
	</g>
	<g>
		<line class="st6" x1="917.01" y1="515.8" x2="929.5" y2="537.5"/>
	</g>
	<g>
		<line class="st6" x1="950.99" y1="495.05" x2="917.87" y2="514.17"/>
	</g>
	<g>
		<line class="st6" x1="931.5" y1="539.93" x2="908.5" y2="580.5"/>
	</g>
	<g>
		<line class="st6" x1="908.39" y1="584.16" x2="946.5" y2="641.5"/>
	</g>
</g>
<g id="arrow">
	<polygon class="st7" points="1273,509.66 1272.24,528.34 1242.57,528.84 1242.57,545 1201.5,520.51 1242.57,493.5 1242.57,509.66 	
		"/>
	<polygon class="st7" points="1500.36,327.6 1499.7,343.81 1473.96,344.25 1473.96,358.27 1438.33,337.02 1473.96,313.59 
		1473.96,327.6 	"/>
	<polygon class="st7" points="638.59,525.52 639.35,506.84 669.02,506.33 669.02,490.18 710.09,514.66 669.02,541.68 669.02,525.52 
			"/>
	<polygon class="st7" points="451.01,329.91 451.64,314.28 476.47,313.85 476.47,300.33 510.84,320.82 476.47,343.43 476.47,329.91 
			"/>
</g>
</svg>
