<?xml version="1.0" encoding="utf-8"?>
<!-- Generator: Adobe Illustrator 25.0.1, SVG Export Plug-In . SVG Version: 6.00 Build 0)  -->
<svg version="1.1" xmlns="http://www.w3.org/2000/svg" xmlns:xlink="http://www.w3.org/1999/xlink" x="0px" y="0px"
	 viewBox="0 0 1920 1080" style="enable-background:new 0 0 1920 1080;" xml:space="preserve">
<style type="text/css">
	.st0{fill:#B71C1C;}
	.st1{fill:#81D4FA;}
	.st2{fill:#A1887F;}
	.st3{fill:#4CAF50;}
</style>
<g id="mantle">
	<g>
		<rect x="0.5" y="584.5" class="st0" width="1919" height="495"/>
		<path d="M1919,585v494H1V585H1919 M1920,584H0v496h1920V584L1920,584z"/>
	</g>
</g>
<g id="plate">
	<g id="sky">
		<g>
			<rect x="0.5" y="0.5" class="st1" width="1919" height="230"/>
			<path d="M1919,1v229H1V1H1919 M1920,0H0v231h1920V0L1920,0z"/>
		</g>
	</g>
	<g>
		<polygon class="st2" points="932.38,599.5 898.66,482.5 1918.5,482.5 1918.5,599.5 		"/>
		<path d="M1918,483v116H932.75l-33.42-116H1918 M1919,482H898l34,118h987V482L1919,482z"/>
	</g>
	<g>
		<polygon class="st3" points="969.38,231.5 1919.5,231.5 1919.5,479.5 898.66,481.5 		"/>
		<path d="M1919,232v247l-1019.68,2l70.43-249H1919 M1920,231H969l-71,251l1022-2V231L1920,231z"/>
	</g>
	<g>
		<polygon class="st3" points="0.5,479.5 0.5,231.5 968.34,231.5 897.62,479.5 		"/>
		<path d="M967.68,232l-70.43,247H1V232H967.68 M969,231H0v249h898L969,231L969,231z"/>
	</g>
	<g>
		<polygon class="st2" points="0.5,599.5 0.5,480.5 896.62,480.5 931.33,599.5 		"/>
		<path d="M896.25,481l34.42,118H1V481H896.25 M897,480H0v120h932L897,480L897,480z"/>
	</g>
</g>
<g id="arrow">
</g>
</svg>
