<?xml version="1.0" encoding="utf-8"?>
<!-- Generator: Adobe Illustrator 25.0.0, SVG Export Plug-In . SVG Version: 6.00 Build 0)  -->
<svg version="1.1" xmlns="http://www.w3.org/2000/svg" xmlns:xlink="http://www.w3.org/1999/xlink" x="0px" y="0px"
	 viewBox="0 0 1920 1080" style="enable-background:new 0 0 1920 1080;" xml:space="preserve">
<style type="text/css">
	.st0{fill:#B71C1C;}
	.st1{fill:#81D4FA;}
	.st2{fill:#CCCCCC;stroke:#000000;stroke-miterlimit:10;}
	.st3{fill:#A1887F;}
	.st4{fill:#4CAF50;}
	.st5{fill:#E0E0E0;}
</style>
<g id="mantle">
	<g>
		<rect x="0.5" y="584.5" class="st0" width="1919" height="495"/>
		<path d="M1919,585v494H1V585H1919 M1920,584H0v496h1920V584L1920,584z"/>
	</g>
</g>
<g id="plate">
	<g id="sky">
		<g>
			<rect x="0.5" y="0.5" class="st1" width="1919" height="230"/>
			<path d="M1919,1v229H1V1H1919 M1920,0H0v231h1920V0L1920,0z"/>
		</g>
	</g>
	<path class="st2" d="M960,600"/>
	<path class="st2" d="M1588.5,577.5"/>
	<path class="st2" d="M960,600"/>
	<g>
		<polygon class="st3" points="917.37,541.5 898.68,482.5 1918.5,482.5 1918.5,541.5 		"/>
		<path d="M1918,483v58H917.73l-18.37-58H1918 M1919,482H898l19,60h1002V482L1919,482z"/>
	</g>
	<g>
		<polygon class="st4" points="969.38,231.5 1919.5,231.5 1919.5,479.5 898.66,481.5 		"/>
		<path d="M1919,232v247l-1019.68,2l70.43-249H1919 M1920,231H969l-71,251l1022-2V231L1920,231z"/>
	</g>
	<g>
		<polygon class="st5" points="932.41,599.5 915.66,540.5 1918.5,540.5 1918.5,599.5 		"/>
		<path d="M1918,541v58H932.79l-16.47-58H1918 M1919,540H915l17.03,60H1919V540L1919,540z"/>
	</g>
	<g>
		<polygon class="st4" points="0.5,479.5 0.5,231.5 968.34,231.5 897.62,479.5 		"/>
		<path d="M967.68,232l-70.43,247H1V232H967.68 M969,231H0v249h898L969,231L969,231z"/>
	</g>
	<g>
		<polygon class="st3" points="0.5,539.5 0.5,480.5 896.64,480.5 916.31,539.5 		"/>
		<path d="M896.28,481l19.33,58H1v-58H896.28 M897,480H0v60h917L897,480L897,480z"/>
	</g>
	<g>
		<polygon class="st5" points="0.5,599.5 0.5,540.5 914.66,540.5 931.34,599.5 		"/>
		<path d="M914.28,541l16.4,58H1v-58H914.28 M915.04,540H0v60h932L915.04,540L915.04,540z"/>
	</g>
</g>
<g id="arrow">
</g>
</svg>
