<?xml version="1.0" encoding="utf-8"?>
<!-- Generator: Adobe Illustrator 25.0.0, SVG Export Plug-In . SVG Version: 6.00 Build 0)  -->
<svg version="1.1" xmlns="http://www.w3.org/2000/svg" xmlns:xlink="http://www.w3.org/1999/xlink" x="0px" y="0px"
	 viewBox="0 0 1920 1080" style="enable-background:new 0 0 1920 1080;" xml:space="preserve">
<style type="text/css">
	.st0{fill:#81D4FA;}
	.st1{fill:#B71C1C;}
	.st2{fill:#BDBDBD;}
	.st3{fill:#CCCCCC;stroke:#000000;stroke-miterlimit:10;}
	.st4{fill:#A1887F;}
	.st5{fill:url(#SVGID_1_);}
	.st6{fill:#E0E0E0;}
	.st7{fill:#999999;stroke:#000000;stroke-miterlimit:10;}
	.st8{fill:#9E9E9E;}
	.st9{stroke:#000000;stroke-miterlimit:10;}
	.st10{opacity:0.8;}
	.st11{fill:#29ABE2;}
</style>
<g id="sky">
	<g>
		<rect x="0.5" y="0.5" class="st0" width="1919" height="290"/>
		<path d="M1919,1v289H1V1H1919 M1920,0H0v291h1920V0L1920,0z"/>
	</g>
</g>
<g id="mantle">
	<g>
		<rect x="0.5" y="584.5" class="st1" width="1919" height="495"/>
		<path d="M1919,585v494H1V585H1919 M1920,584H0v496h1920V584L1920,584z"/>
	</g>
</g>
<g id="plate">
	<g>
		<polygon class="st2" points="0.5,263.5 973.35,263.5 906.62,509.5 0.5,511.5 		"/>
		<path d="M972.69,264l-66.46,245L1,511V264H972.69 M974,263H0v249l907-2L974,263L974,263z"/>
	</g>
	<path class="st3" d="M960,600"/>
	<path class="st3" d="M1588.5,577.5"/>
	<path class="st3" d="M960,600"/>
	<g>
		<path class="st4" d="M949.14,541.5l-50.25-31.53c31.03-22.7,139.52-94.6,273.13-99.47c18.61-0.68,38.38-1.02,58.75-1.02
			c291.97,0,673.04,70.21,687.73,72.94v59.08H949.14z"/>
		<path d="M1230.81,409.98c154.77,0,333.59,19.85,456.35,36.5c126.57,17.17,221.14,34.55,230.84,36.35V541H949.29l-49.51-31.06
			c13.87-10.1,48.75-33.91,96.5-55.45c59.35-26.77,118.48-41.4,175.75-43.49c18.59-0.68,38.35-1.02,58.76-1.02H1230.81
			 M1230.77,408.98c-20.02,0-39.69,0.33-58.77,1.02c-134.32,4.9-244.03,77.98-274,100c51,32,51,32,51,32h970v-60
			C1919,482,1530.51,408.97,1230.77,408.98L1230.77,408.98z"/>
	</g>
	<g>
		<linearGradient id="SVGID_1_" gradientUnits="userSpaceOnUse" x1="898.6465" y1="366.8635" x2="1918.5" y2="366.8635">
			<stop  offset="0" style="stop-color:#4CAF50"/>
			<stop  offset="0.8587" style="stop-color:#4CAF50"/>
			<stop  offset="1" style="stop-color:#4CAF50"/>
		</linearGradient>
		<path class="st5" d="M898.65,509.26c2.47-13.26,33.57-178.57,62.81-246.06c5.84-13.48,46.05-23.64,119.5-30.19
			c63.52-5.67,150.66-8.54,259-8.54c205.63,0,446.55,10.55,578.54,20.99v245.03c-12.65-0.3-249.26-5.88-490.49-5.88
			C1126.28,484.6,948.2,492.9,898.65,509.26z"/>
		<path d="M1339.97,224.97c205.37,0,445.94,10.53,578.03,20.95v244.05c-17.46-0.42-251.47-5.87-489.99-5.87
			c-133.71,0-244.92,1.69-330.54,5.03c-103.91,4.05-170.55,10.57-198.18,19.38c3.39-18.13,33.91-178.86,62.63-245.12
			c2.92-6.75,15.04-12.76,36.01-17.87c19.79-4.82,47.74-8.87,83.07-12.02C1144.5,227.84,1231.63,224.97,1339.97,224.97
			L1339.97,224.97 M1339.96,223.97c-198.19,0-366.28,9.76-378.96,39.03c-30.7,70.84-63,247-63,247
			c57.88-19.78,297.47-24.9,530.01-24.9c249.55,0,490.99,5.9,490.99,5.9V245C1789.5,234.74,1548.12,223.97,1339.96,223.97
			L1339.96,223.97z"/>
	</g>
	<g>
		<polygon class="st6" points="932.41,599.5 915.66,540.5 1918.5,540.5 1918.5,599.5 		"/>
		<path d="M1918,541v58H932.79l-16.47-58H1918 M1919,540H915l17.03,60H1919V540L1919,540z"/>
	</g>
	<path class="st7" d="M458.5,540"/>
	<g>
		<path class="st1" d="M1148.58,599.5c3.83-26.08,6.52-45.19,8.03-56.86l9.15,10.68c-0.37,0.1-0.68,0.33-0.9,0.69
			c-2.02,3.23,3.14,17.53,15.34,42.49c-24.2,0.01-24.23,0.46-24.28,1.19c-0.05,0.69,0.57,0.82,4.9,1.43
			c0.43,0.06,0.91,0.13,1.38,0.2C1159.91,599.42,1155.79,599.5,1148.58,599.5z M1155.54,539.86c0.35-1.89,0.73-3.86,1.08-5.57
			c-0.17,1.51-0.4,3.47-0.72,6L1155.54,539.86z"/>
		<path d="M1156.96,543.82l8.01,9.34c-0.2,0.15-0.38,0.35-0.53,0.58c-0.79,1.26-3.16,5.05,14.96,42.26
			c-23.86,0.01-23.89,0.38-23.98,1.65c-0.05,0.68,0.26,1.02,1.33,1.3c-2.01,0.03-4.5,0.04-7.59,0.05
			C1152.82,574.03,1155.44,555.49,1156.96,543.82 M1157.44,529.02c-0.43,0-2.44,10.98-2.44,10.98l1.25,1.46
			C1157.45,532.09,1157.67,529.02,1157.44,529.02L1157.44,529.02z M1156.25,541.46c-1.32,10.36-3.83,28.41-8.25,58.54
			c48,0-27-3,33-3c-19.28-39.36-16.62-43.23-14.83-43.23c0.44,0,0.83,0.23,0.83,0.23L1156.25,541.46L1156.25,541.46z"/>
	</g>
	<g>
		<path class="st8" d="M871.07,541.5l-9.01-1l-861.56,1v-29c14.77-0.14,341.41-3.15,594.55-3.15c151.38,0,247.24,1.06,284.92,3.15
			c48.46,2.69,74.55,34.93,78.95,40.85L871.07,541.5z"/>
		<path d="M595.05,509.84c151.37,0,247.22,1.06,284.89,3.15c27.6,1.53,47.67,12.74,59.63,21.87c9.61,7.33,15.68,14.53,18.22,17.82
			l-86.69-11.69l-9-1l-0.06-0.01l-0.06,0L1,541v-28.01C21.39,512.8,344.29,509.84,595.05,509.84 M595.05,508.84
			C334.32,508.84,0,512,0,512v30l862-1l9,1l89,12c0,0-26-39-80-42C837.39,509.63,725.44,508.84,595.05,508.84L595.05,508.84z"/>
	</g>
	<g>
		<path class="st6" d="M0.5,601.5v-59c13.94-0.06,305.6-1.29,555.81-1.29c149.84,0,255.71,0.43,314.69,1.29
			c40.7,0.59,92.79,6.73,109.82,32.62c8.19,12.45,4.56,24.34,3.84,26.38H0.5z"/>
		<path d="M556.38,541.71c149.79,0,255.64,0.43,314.6,1.29c32.69,0.47,58.95,4.16,78.05,10.97c14.94,5.32,25.48,12.52,31.34,21.38
			c7.72,11.7,4.81,22.94,3.92,25.65H904h-82H1v-58c19.24-0.08,307.59-1.28,555.35-1.28H556.38 M556.31,540.71
			C298.24,540.71,0,542,0,542v60c0,0,574,0,822,0c76.18,0,93.24,0,93.24,0H904h81c0,0,24-58-114-60
			C804.33,541.03,685.36,540.71,556.31,540.71L556.31,540.71z"/>
	</g>
</g>
<g id="arrow">
	<polygon class="st9" points="1695.86,352.7 1695.2,368.91 1669.46,369.35 1669.46,383.36 1633.83,362.12 1669.46,338.68 
		1669.46,352.7 	"/>
	<polygon class="st9" points="1765.59,560.29 1764.93,576.5 1739.2,576.93 1739.2,590.95 1703.56,569.71 1739.2,546.27 
		1739.2,560.29 	"/>
	<polygon class="st9" points="564.5,582.23 564.19,563.53 593.78,561.34 592.86,545.21 635.26,567.31 595.8,596.62 594.88,580.49 	
		"/>
	<polygon class="st9" points="187.5,403.26 187.19,384.57 216.78,382.37 215.86,366.24 258.26,388.35 218.8,417.66 217.88,401.53 	
		"/>
</g>
<g id="ocean">
	<g class="st10">
		<polygon class="st11" points="988,491 0,491 0,231 1055,231 		"/>
	</g>
</g>
</svg>
