<?xml version="1.0" encoding="utf-8"?>
<!-- Generator: Adobe Illustrator 25.0.0, SVG Export Plug-In . SVG Version: 6.00 Build 0)  -->
<svg version="1.1" xmlns="http://www.w3.org/2000/svg" xmlns:xlink="http://www.w3.org/1999/xlink" x="0px" y="0px"
	 viewBox="0 0 1920 1080" style="enable-background:new 0 0 1920 1080;" xml:space="preserve">
<style type="text/css">
	.st0{fill:#B71C1C;}
	.st1{fill:#81D4FA;}
	.st2{fill:#E0E0E0;}
	.st3{fill:#A1887F;}
	.st4{fill:url(#SVGID_1_);}
	.st5{fill:#CCCCCC;stroke:#000000;stroke-miterlimit:10;}
	.st6{fill:none;stroke:#000000;stroke-miterlimit:10;}
	.st7{stroke:#000000;stroke-miterlimit:10;}
</style>
<g id="mantle">
	<g>
		<rect x="0.5" y="584.5" class="st0" width="1919" height="495"/>
		<path d="M1919,585v494H1V585H1919 M1920,584H0v496h1920V584L1920,584z"/>
	</g>
</g>
<g id="plate">
	<g id="sky">
		<g>
			<rect x="0.5" y="0.5" class="st1" width="1919" height="230"/>
			<path d="M1919,1v229H1V1H1919 M1920,0H0v231h1920V0L1920,0z"/>
		</g>
	</g>
	<g>
		<path class="st2" d="M960,691.5c-143.24,0-218.66-33.75-285.2-63.54c-24.02-10.75-46.72-20.91-70.65-28.44
			c-26.3-8.27-92.34-12.47-196.3-12.47c-172.8,0-394.93,11.75-407.35,12.42v-59l618.34-32.96c2.76,2.2,42.52,33.51,102.56,64.44
			c57.19,29.45,145,64.56,238.6,64.56c93.6,0,181.96-35.11,239.6-64.55c60.54-30.93,100.79-62.26,103.56-64.44l616.34,32.96v59.02
			c-11.61-0.13-214.97-2.39-381.11-2.39c-119.43,0-191.58,1.14-214.44,3.4c-24.56,2.42-51.62,13.78-85.88,28.15
			C1174.87,655.18,1088.3,691.5,960,691.5z"/>
		<path d="M1303.32,508.02L1919,540.95v58.04c-16.03-0.18-216.49-2.38-380.61-2.38c-119.45,0-191.61,1.14-214.48,3.4
			c-24.64,2.43-51.72,13.8-86.02,28.19C1174.71,654.7,1088.2,691,960,691c-63.82,0-119.95-6.79-171.61-20.75
			c-45.16-12.21-79.84-27.73-113.38-42.74c-24.04-10.76-46.74-20.92-70.71-28.46c-26.34-8.29-92.44-12.49-196.45-12.49
			c-170.77,0-389.71,11.48-406.85,12.39v-58l617.67-32.93c3.82,3.03,43.32,33.9,102.49,64.37c36.42,18.75,73.06,33.7,108.91,44.41
			C874.9,630.2,918.62,637,960,637c41.38,0,85.2-6.8,130.24-20.2c36.01-10.72,72.89-25.66,109.59-44.41
			C1259.5,541.9,1299.48,511.02,1303.32,508.02 M1303,507c0,0-162,129-343,129S619,507,619,507L0,540v60
			c0,0,228.89-12.45,407.85-12.44c89.47,0,166.48,3.11,196.15,12.44c89,28,160,92,356,92s293-84,364-91
			c26.16-2.58,113.92-3.39,214.39-3.39c172.19,0,381.61,2.39,381.61,2.39v-60L1303,507L1303,507z"/>
	</g>
	<g>
		<path class="st3" d="M960,635.5c-157.7,0-200.5-27.03-241.9-53.17c-25.82-16.3-52.52-33.17-107.02-42.83
			c-41.61-7.38-116.02-11.12-221.16-11.12c-174.58,0-377.6,10.47-389.43,11.08v-59.03L960,355.5l959.5,124.94v59.06H1327
			c-65.11,0-94.16,17.84-127.8,38.5C1155.3,604.95,1105.55,635.5,960,635.5z"/>
		<path d="M960,356.01l959,124.87V539h-592c-65.25,0-94.36,17.87-128.06,38.57C1155.1,604.49,1105.41,635,960,635
			c-70.68,0-124.42-5.45-164.29-16.66c-35.43-9.96-56.74-23.42-77.34-36.43c-25.86-16.33-52.6-33.22-107.2-42.9
			c-41.64-7.38-116.08-11.13-221.25-11.13C217.5,527.89,17.32,538.1,1,538.95v-58.07L960,356.01 M960,355L0,480v60
			c0,0,208.89-11.11,389.93-11.11c90.51,0,174.08,2.78,221.07,11.11c141,25,92,96,349,96s217-96,367-96s593,0,593,0v-60L960,355
			L960,355z"/>
	</g>
	<g>
		<linearGradient id="SVGID_1_" gradientUnits="userSpaceOnUse" x1="0.5" y1="278.6357" x2="1919.5" y2="278.6357">
			<stop  offset="0" style="stop-color:#4CAF50"/>
			<stop  offset="0.1877" style="stop-color:#4FB052"/>
			<stop  offset="0.3006" style="stop-color:#57B45B"/>
			<stop  offset="0.3936" style="stop-color:#65BA69"/>
			<stop  offset="0.4755" style="stop-color:#79C47C"/>
			<stop  offset="0.5" style="stop-color:#81C784"/>
			<stop  offset="0.5245" style="stop-color:#79C47C"/>
			<stop  offset="0.6061" style="stop-color:#65BA69"/>
			<stop  offset="0.6989" style="stop-color:#57B45B"/>
			<stop  offset="0.8115" style="stop-color:#4FB052"/>
			<stop  offset="0.9988" style="stop-color:#4CAF50"/>
		</linearGradient>
		<path class="st4" d="M104.37,480.67c-59.78,0-99.1-1.02-103.87-1.15V231.47c29.45-2.03,65.28-2.94,116.09-2.94
			c23.9,0,48.83,0.19,75.22,0.39c28.45,0.21,57.87,0.43,88.26,0.43c114.34,0,248.83-2.88,379.31-24.24
			c145.02-23.74,258.08-65.78,345.64-128.5c203.88,130.86,381.23,134.64,605.72,139.42c90.94,1.94,193.98,4.13,308.76,15.43v248.03
			c-49.35-1.51-102.54-2.19-172.39-2.19c-31.51,0-63.45,0.14-94.34,0.27c-30.37,0.13-61.77,0.26-92.22,0.26
			c-267,0-513.82-9.42-600.16-123.13l-0.29-0.39l-0.4,0.29c-68.04,49.03-204.62,84.49-405.95,105.42
			C389.47,477.08,218.7,480.67,104.37,480.67z"/>
		<path d="M1005.03,77.21c203.89,130.77,381.22,134.54,605.7,139.32c90.81,1.93,193.7,4.12,308.27,15.38v247.06
			c-49.2-1.5-102.27-2.17-171.89-2.17c-31.52,0-63.46,0.14-94.36,0.27c-30.36,0.13-61.75,0.26-92.2,0.26
			c-128.82,0-262.78-2.34-369.81-19.3c-56-8.87-101.31-20.99-138.53-37.03c-40.86-17.61-70.76-39.4-91.42-66.6l-0.59-0.78
			l-0.79,0.57c-67.97,48.98-204.47,84.41-405.71,105.32c-164.28,17.07-335.03,20.65-449.34,20.65c-58.08,0-96.85-0.97-103.37-1.14
			V231.93c29.35-2.01,65.06-2.91,115.59-2.91c23.9,0,48.83,0.19,75.21,0.39c28.45,0.21,57.87,0.43,88.26,0.43
			c114.36,0,248.87-2.88,379.39-24.25c67.79-11.1,129.8-26.6,184.33-46.06C904.94,137.7,959.18,110,1005.03,77.21 M1005,76
			C810.99,215.17,518.77,228.85,280.06,228.85c-58.44,0-113.68-0.82-163.48-0.82c-43.5,0-82.87,0.63-116.59,2.97v249
			c0,0,40.1,1.17,104.37,1.17C319.04,481.17,803,468.13,960,355c85.75,112.94,328.96,123.33,600.55,123.33
			c61.25,0,123.9-0.53,186.56-0.53c58.04,0,116.09,0.45,172.89,2.2V231C1526.34,192.18,1293,261,1005,76L1005,76z"/>
	</g>
	<path class="st5" d="M960,600"/>
	<path class="st5" d="M1588.5,577.5"/>
	<path class="st5" d="M960,600"/>
</g>
<g id="lines">
	<g>
		<line class="st6" x1="958.99" y1="354.86" x2="937.5" y2="386.5"/>
	</g>
	<g>
		<line class="st6" x1="940.88" y1="381.08" x2="966.5" y2="415.5"/>
	</g>
	<g>
		<line class="st6" x1="967.13" y1="413.57" x2="945.64" y2="445.22"/>
	</g>
	<g>
		<line class="st6" x1="949.01" y1="439.8" x2="974.64" y2="474.22"/>
	</g>
	<g>
		<line class="st6" x1="969.13" y1="472.57" x2="947.64" y2="504.22"/>
	</g>
	<g>
		<line class="st6" x1="947.01" y1="501.8" x2="972.5" y2="536.5"/>
	</g>
	<g>
		<line class="st6" x1="978.94" y1="536.42" x2="947.93" y2="558.81"/>
	</g>
	<g>
		<line class="st6" x1="947.95" y1="556.87" x2="971.5" y2="635.5"/>
	</g>
	<g>
		<line class="st6" x1="971.5" y1="633.93" x2="950.01" y2="665.57"/>
	</g>
	<g>
		<line class="st6" x1="949.39" y1="663.16" x2="986.5" y2="691.5"/>
	</g>
</g>
<g id="arrow">
	<polygon class="st7" points="1120,506.66 1119.24,525.34 1089.57,525.84 1089.57,542 1048.5,517.51 1089.57,490.5 1089.57,506.66 	
		"/>
	<polygon class="st7" points="1347.36,324.6 1346.7,340.81 1320.96,341.25 1320.96,355.27 1285.33,334.02 1320.96,310.59 
		1320.96,324.6 	"/>
	<polygon class="st7" points="803.59,525.52 804.35,506.84 834.02,506.33 834.02,490.18 875.09,514.66 834.02,541.68 834.02,525.52 
			"/>
	<polygon class="st7" points="616.01,329.91 616.64,314.28 641.47,313.85 641.47,300.33 675.84,320.82 641.47,343.43 641.47,329.91 
			"/>
</g>
</svg>
