<?xml version="1.0" encoding="utf-8"?>
<!-- Generator: Adobe Illustrator 25.0.0, SVG Export Plug-In . SVG Version: 6.00 Build 0)  -->
<svg version="1.1" xmlns="http://www.w3.org/2000/svg" xmlns:xlink="http://www.w3.org/1999/xlink" x="0px" y="0px"
	 viewBox="0 0 1920 1080" style="enable-background:new 0 0 1920 1080;" xml:space="preserve">
<style type="text/css">
	.st0{fill:#81D4FA;}
	.st1{fill:#B71C1C;}
	.st2{fill:#607D8B;}
	.st3{fill:#BDBDBD;}
	.st4{fill:#CCCCCC;stroke:#000000;stroke-miterlimit:10;}
	.st5{fill:#A1887F;}
	.st6{fill:url(#SVGID_1_);}
	.st7{fill:#E0E0E0;}
	.st8{fill:#999999;stroke:#000000;stroke-miterlimit:10;}
	.st9{fill:#9E9E9E;}
	.st10{stroke:#000000;stroke-miterlimit:10;}
	.st11{opacity:0.8;}
	.st12{fill:#29ABE2;}
</style>
<g id="sky">
	<g>
		<rect x="0.5" y="0.5" class="st0" width="1919" height="290"/>
		<path d="M1919,1v289H1V1H1919 M1920,0H0v291h1920V0L1920,0z"/>
	</g>
</g>
<g id="mantle">
	<g>
		<rect x="0.5" y="584.5" class="st1" width="1919" height="495"/>
		<path d="M1919,585v494H1V585H1919 M1920,584H0v496h1920V584L1920,584z"/>
	</g>
</g>
<g id="plate">
	<g>
		<polygon class="st2" points="1150.23,636.56 968.83,547.34 1284.06,519.56 1251.31,690.24 		"/>
		<path d="M1283.44,520.11l-32.5,169.37l-100.51-53.38l-179.79-88.42L1283.44,520.11 M1284.67,519L967,547l183,90l101.67,54
			L1284.67,519L1284.67,519z"/>
	</g>
	<g>
		<polygon class="st3" points="0.5,263.5 973.35,263.5 906.62,509.5 0.5,511.5 		"/>
		<path d="M972.69,264l-66.46,245L1,511V264H972.69 M974,263H0v249l907-2L974,263L974,263z"/>
	</g>
	<path class="st4" d="M960,600"/>
	<path class="st4" d="M1588.5,577.5"/>
	<path class="st4" d="M960,600"/>
	<g>
		<path class="st5" d="M1016.71,541.73c-11,0-44.46-3.11-117.69-31.86c31.21-22.81,139.57-94.5,272.99-99.37
			c18.61-0.68,38.38-1.02,58.75-1.02c291.97,0,673.04,70.21,687.73,72.94v59.08H1021C1020.9,541.51,1019.59,541.73,1016.71,541.73z"
			/>
		<path d="M1230.81,409.98c154.77,0,333.59,19.85,456.35,36.5c126.57,17.17,221.14,34.55,230.84,36.35V541h-897l-0.09,0l-0.08,0.01
			c-0.01,0-1.3,0.21-4.12,0.21c-10.94,0-44.1-3.09-116.66-31.49c14.06-10.21,48.78-33.85,96.22-55.24
			c59.35-26.77,118.48-41.4,175.75-43.49c18.59-0.68,38.35-1.02,58.76-1.02H1230.81 M1230.77,408.98c-20.02,0-39.69,0.33-58.77,1.02
			c-134.32,4.9-244.03,77.98-274,100c74.01,29.13,107.72,32.23,118.71,32.23c2.97,0,4.29-0.23,4.29-0.23h898v-60
			C1919,482,1530.51,408.97,1230.77,408.98L1230.77,408.98z"/>
	</g>
	<g>
		<linearGradient id="SVGID_1_" gradientUnits="userSpaceOnUse" x1="898.9141" y1="352.9307" x2="1919.5" y2="352.9307">
			<stop  offset="0" style="stop-color:#4CAF50"/>
			<stop  offset="0.0939" style="stop-color:#4FB052"/>
			<stop  offset="0.1503" style="stop-color:#57B45B"/>
			<stop  offset="0.1968" style="stop-color:#65BA69"/>
			<stop  offset="0.2377" style="stop-color:#79C47C"/>
			<stop  offset="0.25" style="stop-color:#81C784"/>
			<stop  offset="0.2868" style="stop-color:#79C47C"/>
			<stop  offset="0.4096" style="stop-color:#65BA69"/>
			<stop  offset="0.5491" style="stop-color:#57B45B"/>
			<stop  offset="0.7184" style="stop-color:#4FB052"/>
			<stop  offset="1" style="stop-color:#4CAF50"/>
		</linearGradient>
		<path class="st6" d="M898.91,508.32c4.44-18.64,42.02-176.07,62.57-245.17c2.39-8.04,15.41-9.37,36.98-11.57
			c36.51-3.73,97.6-9.97,179.58-54.02c86,30.79,198.55,34.74,287.02,34.74c49.57,0,102.03-1.43,152.76-2.81
			c52.28-1.42,106.34-2.9,158.97-2.9c54.36,0,101.04,1.6,142.71,4.88v248.06c-10.27,0.45-179.98,7.73-354.62,7.73
			c-105.29,0-191.75-2.61-256.98-7.75c-81.42-6.42-129.71-16.8-143.54-30.85l-0.3-0.31l-0.35,0.26
			c-66.49,48.85-161.25,52.26-217.87,54.31C921.3,503.79,904.27,504.4,898.91,508.32z"/>
		<path d="M1178.08,198.09c36.78,13.14,79.94,22.24,131.92,27.82c43.76,4.69,93.04,6.88,155.06,6.88
			c49.57,0,102.04-1.43,152.78-2.81c52.28-1.42,106.33-2.9,158.96-2.9c54.14,0,100.66,1.58,142.2,4.84v247.12
			c-14.18,0.61-181.74,7.71-354.12,7.71c-105.28,0-191.73-2.61-256.94-7.75c-81.3-6.41-129.49-16.74-143.23-30.7l-0.61-0.62
			l-0.7,0.51c-66.36,48.75-161.03,52.17-217.59,54.21c-23.88,0.86-39.8,1.44-46.13,4.84c5.55-23.3,42.12-176.16,62.28-243.96
			c2.29-7.72,15.19-9.04,36.55-11.22C1035.03,248.34,1096.11,242.1,1178.08,198.09 M1178,197c-132,71-210.44,43.93-217,66
			c-22,74-63,247-63,247c8.92-15.53,168,11,266-61c30.5,31,219.5,38.75,400.88,38.75S1920,480,1920,480V231
			c-46.33-3.67-94.42-4.92-143.2-4.92c-104.23,0-211.61,5.71-311.73,5.71C1356.37,231.79,1256.22,225.06,1178,197L1178,197z"/>
	</g>
	<g>
		<polygon class="st7" points="932.41,599.5 915.66,540.5 1918.5,540.5 1918.5,599.5 		"/>
		<path d="M1918,541v58H932.79l-16.47-58H1918 M1919,540H915l17.03,60H1919V540L1919,540z"/>
	</g>
	<path class="st8" d="M458.5,540"/>
	<g>
		<path class="st1" d="M1148.58,599.5c13.93-95.06,14.9-135.58,14.93-143.87l13.96,20.48c-0.75,4.4-12.25,76.93,29.4,123.39H1148.58
			z"/>
		<path d="M1164,457.24l12.95,18.99c-0.49,2.92-3.27,21.01-1.44,43.85c1.8,22.46,8.53,54.15,30.26,78.92h-56.6
			c8.15-55.69,11.75-92.05,13.34-112.8C1163.66,470.98,1163.94,461.72,1164,457.24 M1163,454c0,0,1,37-15,146c48,0,0,0,60,0
			c-44-48-30-124-30-124L1163,454L1163,454z"/>
	</g>
	<g>
		<path class="st9" d="M862.06,540.5l-861.56,1v-29H880c66.03,0,123.06,18.19,159.28,33.45c35.08,14.78,57.93,29.73,62.56,32.86
			l-33.85,9.67L862.06,540.5z"/>
		<path d="M880,513c29.11,0,58.91,3.51,88.58,10.43c23.74,5.54,47.46,13.27,70.48,22.96c33.18,13.98,55.41,28.11,61.61,32.23
			l-32.69,9.34l-205.75-47.94l-0.11-0.03l-0.12,0L1,541v-28H880 M880,512c-128,0-880,0-880,0v30l862-1l206,48l35-10
			C1103,579,1008,512,880,512L880,512z"/>
	</g>
	<g>
		<path class="st7" d="M1157.2,696.48c-2.16-2.26-24.66-25-74.49-47.44C1034.53,627.35,950.2,601.5,822,601.5H0.5v-59.01
			c13.87-0.21,305.68-4.5,555.91-4.5c149.83,0,255.67,1.52,314.56,4.51c101.67,5.16,199.5,44.82,263.66,77.19
			c63.69,32.13,107.7,63.6,115,68.93L1157.2,696.48z"/>
		<path d="M556.44,538.49c149.81,0,255.62,1.52,314.51,4.51c44.84,2.28,92.69,11.41,142.21,27.13
			c39.63,12.59,80.42,29.41,121.23,49.99c61.05,30.79,104.01,60.99,113.86,68.11l-90.86,7.73c-3-3.09-25.67-25.4-74.48-47.37
			c-30.69-13.82-65.6-24.83-103.74-32.72C931.52,606,878.64,601,822,601H1v-58.01c19.15-0.28,307.66-4.49,555.43-4.49H556.44
			 M556.41,537.49C298.35,537.49,0,542,0,542v60c0,0,574,0,822,0s335,95,335,95l94-8c0,0-183-137-380-147
			C804.41,538.62,685.47,537.49,556.41,537.49L556.41,537.49z"/>
	</g>
</g>
<g id="arrow">
	<polygon class="st10" points="1563.86,352.7 1563.2,368.91 1537.46,369.35 1537.46,383.36 1501.83,362.12 1537.46,338.68 
		1537.46,352.7 	"/>
	<polygon class="st10" points="1633.59,560.29 1632.93,576.5 1607.2,576.93 1607.2,590.95 1571.56,569.71 1607.2,546.27 
		1607.2,560.29 	"/>
	<polygon class="st10" points="716.5,581.23 716.19,562.53 745.78,560.34 744.86,544.21 787.26,566.31 747.8,595.62 746.88,579.49 	
		"/>
	<polygon class="st10" points="339.5,402.26 339.19,383.57 368.78,381.37 367.86,365.24 410.26,387.35 370.8,416.66 369.88,400.53 	
		"/>
</g>
<g id="ocean">
	<g class="st11">
		<polygon class="st12" points="988,491 0,491 0,231 1055,231 		"/>
	</g>
</g>
</svg>
