<?xml version="1.0" encoding="utf-8"?>
<!-- Generator: Adobe Illustrator 25.0.1, SVG Export Plug-In . SVG Version: 6.00 Build 0)  -->
<svg version="1.1" xmlns="http://www.w3.org/2000/svg" xmlns:xlink="http://www.w3.org/1999/xlink" x="0px" y="0px"
	 viewBox="0 0 1920 1080" style="enable-background:new 0 0 1920 1080;" xml:space="preserve">
<style type="text/css">
	.st0{fill:#B71C1C;}
	.st1{fill:#81D4FA;}
	.st2{fill:#A1887F;}
	.st3{fill:url(#SVGID_1_);}
	.st4{fill:#CCCCCC;stroke:#000000;stroke-miterlimit:10;}
	.st5{fill:none;stroke:#000000;stroke-miterlimit:10;}
	.st6{stroke:#000000;stroke-miterlimit:10;}
</style>
<g id="mantle">
	<g>
		<rect x="0.5" y="584.5" class="st0" width="1919" height="495"/>
		<path d="M1919,585v494H1V585H1919 M1920,584H0v496h1920V584L1920,584z"/>
	</g>
</g>
<g id="plate">
	<g id="sky">
		<g>
			<rect x="0.5" y="0.5" class="st1" width="1919" height="230"/>
			<path d="M1919,1v229H1V1H1919 M1920,0H0v231h1920V0L1920,0z"/>
		</g>
	</g>
	<g>
		<path class="st2" d="M960,691.5c-165.03,0-218.2-30.11-265.11-56.68c-25.89-14.66-50.34-28.51-90.81-35.32
			c-41.67-7.01-115.5-10.56-219.44-10.56c-172.54,0-372.41,9.94-384.14,10.53V480.44L960,355.5l959.5,124.94V599.5
			c-17.26,0.04-449.45,1-595.5,1c-71.06,0-98.6,17.28-130.48,37.29C1153.4,662.96,1107.92,691.5,960,691.5z"/>
		<path d="M960,356.01l959,124.87V599c-23.71,0.05-450.13,1-595,1c-32.53,0-58.03,3.58-80.27,11.28
			c-19.88,6.88-34.74,16.21-50.48,26.08C1153.19,662.5,1107.78,691,960,691c-164.9,0-218.01-30.08-264.86-56.61
			c-25.93-14.69-50.42-28.56-90.97-35.37c-41.7-7.01-115.56-10.57-219.52-10.57c-170.4,0-367.46,9.69-383.64,10.5V480.88L960,356.01
			 M960,355L0,480v120c0,0,205.68-10.55,384.64-10.55c89.48,0,172.29,2.64,219.36,10.55c113,19,99,92,356,92
			c263.91,0,202.44-91,364-91c150,0,596-1,596-1V480L960,355L960,355z"/>
	</g>
	<g>
		<linearGradient id="SVGID_1_" gradientUnits="userSpaceOnUse" x1="0.5" y1="278.6357" x2="1919.5" y2="278.6357">
			<stop  offset="0" style="stop-color:#4CAF50"/>
			<stop  offset="0.1877" style="stop-color:#4FB052"/>
			<stop  offset="0.3006" style="stop-color:#57B45B"/>
			<stop  offset="0.3936" style="stop-color:#65BA69"/>
			<stop  offset="0.4755" style="stop-color:#79C47C"/>
			<stop  offset="0.5" style="stop-color:#81C784"/>
			<stop  offset="0.5245" style="stop-color:#79C47C"/>
			<stop  offset="0.6061" style="stop-color:#65BA69"/>
			<stop  offset="0.6989" style="stop-color:#57B45B"/>
			<stop  offset="0.8115" style="stop-color:#4FB052"/>
			<stop  offset="0.9988" style="stop-color:#4CAF50"/>
		</linearGradient>
		<path class="st3" d="M104.37,480.67c-59.78,0-99.1-1.02-103.87-1.15V231.47c29.45-2.03,65.28-2.94,116.09-2.94
			c23.9,0,48.83,0.19,75.22,0.39c28.45,0.21,57.87,0.43,88.26,0.43c114.34,0,248.83-2.88,379.31-24.24
			c145.02-23.74,258.08-65.78,345.64-128.5c203.88,130.86,381.23,134.64,605.72,139.42c90.94,1.94,193.98,4.13,308.76,15.43v248.03
			c-49.35-1.51-102.54-2.19-172.39-2.19c-31.51,0-63.45,0.14-94.34,0.27c-30.37,0.13-61.77,0.26-92.22,0.26
			c-267,0-513.82-9.42-600.16-123.13l-0.29-0.39l-0.4,0.29c-68.04,49.03-204.62,84.49-405.95,105.42
			C389.47,477.08,218.7,480.67,104.37,480.67z"/>
		<path d="M1005.03,77.21c203.89,130.77,381.22,134.54,605.7,139.32c90.81,1.93,193.7,4.12,308.27,15.38v247.06
			c-49.2-1.5-102.27-2.17-171.89-2.17c-31.52,0-63.46,0.14-94.36,0.27c-30.36,0.13-61.75,0.26-92.2,0.26
			c-128.82,0-262.78-2.34-369.81-19.3c-56-8.87-101.31-20.99-138.53-37.03c-40.86-17.61-70.76-39.4-91.42-66.6l-0.59-0.78
			l-0.79,0.57c-67.97,48.98-204.47,84.41-405.71,105.32c-164.28,17.07-335.03,20.65-449.34,20.65c-58.08,0-96.85-0.97-103.37-1.14
			V231.93c29.35-2.01,65.06-2.91,115.59-2.91c23.9,0,48.83,0.19,75.21,0.39c28.45,0.21,57.87,0.43,88.26,0.43
			c114.36,0,248.87-2.88,379.39-24.25c67.79-11.1,129.8-26.6,184.33-46.06C904.94,137.7,959.18,110,1005.03,77.21 M1005,76
			C810.99,215.17,518.77,228.85,280.06,228.85c-58.44,0-113.68-0.82-163.48-0.82c-43.5,0-82.87,0.63-116.59,2.97v249
			c0,0,40.1,1.17,104.37,1.17C319.04,481.17,803,468.13,960,355c85.75,112.94,328.96,123.33,600.55,123.33
			c61.25,0,123.9-0.53,186.56-0.53c58.04,0,116.09,0.45,172.89,2.2V231C1526.34,192.18,1293,261,1005,76L1005,76z"/>
	</g>
	<path class="st4" d="M960,600"/>
	<path class="st4" d="M1588.5,577.5"/>
	<path class="st4" d="M960,600"/>
</g>
<g id="lines">
	<g>
		<line class="st5" x1="958.99" y1="354.86" x2="937.5" y2="386.5"/>
	</g>
	<g>
		<line class="st5" x1="940.88" y1="381.08" x2="966.5" y2="415.5"/>
	</g>
	<g>
		<line class="st5" x1="967.13" y1="413.57" x2="945.64" y2="445.22"/>
	</g>
	<g>
		<line class="st5" x1="949.01" y1="439.8" x2="974.64" y2="474.22"/>
	</g>
	<g>
		<line class="st5" x1="969.13" y1="472.57" x2="947.64" y2="504.22"/>
	</g>
	<g>
		<line class="st5" x1="947.01" y1="501.8" x2="972.5" y2="536.5"/>
	</g>
	<g>
		<line class="st5" x1="978.94" y1="536.42" x2="947.93" y2="558.81"/>
	</g>
	<g>
		<line class="st5" x1="947.95" y1="556.87" x2="971.5" y2="635.5"/>
	</g>
	<g>
		<line class="st5" x1="971.5" y1="633.93" x2="950.01" y2="665.57"/>
	</g>
	<g>
		<line class="st5" x1="949.39" y1="663.16" x2="986.5" y2="691.5"/>
	</g>
</g>
<g id="arrow">
	<polygon class="st6" points="1120,506.66 1119.24,525.34 1089.57,525.84 1089.57,542 1048.5,517.51 1089.57,490.5 1089.57,506.66 	
		"/>
	<polygon class="st6" points="1347.36,324.6 1346.7,340.81 1320.96,341.25 1320.96,355.27 1285.33,334.02 1320.96,310.59 
		1320.96,324.6 	"/>
	<polygon class="st6" points="803.59,525.52 804.35,506.84 834.02,506.33 834.02,490.18 875.09,514.66 834.02,541.68 834.02,525.52 
			"/>
	<polygon class="st6" points="616.01,329.91 616.64,314.28 641.47,313.85 641.47,300.33 675.84,320.82 641.47,343.43 641.47,329.91 
			"/>
</g>
</svg>
