<?xml version="1.0" encoding="utf-8"?>
<!-- Generator: Adobe Illustrator 25.0.0, SVG Export Plug-In . SVG Version: 6.00 Build 0)  -->
<svg version="1.1" xmlns="http://www.w3.org/2000/svg" xmlns:xlink="http://www.w3.org/1999/xlink" x="0px" y="0px"
	 viewBox="0 0 1920 1080" style="enable-background:new 0 0 1920 1080;" xml:space="preserve">
<style type="text/css">
	.st0{fill:#81D4FA;}
	.st1{fill:#B71C1C;}
	.st2{fill:#795548;stroke:#000000;stroke-miterlimit:10;}
	.st3{fill:#A1887F;}
	.st4{fill:#6D4C41;stroke:#000000;stroke-miterlimit:10;}
	.st5{fill:#388E3C;}
	.st6{fill:#43A047;}
	.st7{fill:#4CAF50;}
	.st8{fill:#E0E0E0;}
	.st9{fill:#A1887F;stroke:#000000;stroke-miterlimit:10;}
	.st10{fill:#8D6E63;stroke:#000000;stroke-miterlimit:10;}
	.st11{stroke:#000000;stroke-miterlimit:10;}
</style>
<g id="sky">
	<g>
		<rect x="0.5" y="0.5" class="st0" width="1919" height="332"/>
		<path d="M1919,1v331H1V1H1919 M1920,0H0v333h1920V0L1920,0z"/>
	</g>
</g>
<g id="mantle">
	<g>
		<rect x="0.5" y="584.5" class="st1" width="1919" height="495"/>
		<path d="M1919,585v494H1V585H1919 M1920,584H0v496h1920V584L1920,584z"/>
	</g>
</g>
<g id="plate">
	<polygon class="st2" points="839,542.51 833.5,528.5 902.5,274.5 905.5,296.5 	"/>
	<g>
		<polygon class="st3" points="789.49,527.51 833.37,528.59 851.15,586.31 788.51,586.5 		"/>
		<path d="M789.98,528.02l43.01,1.05l17.48,56.73L789.02,586L789.98,528.02 M789,527l-1,60l63.83-0.19l-18.09-58.71L789,527L789,527
			z"/>
	</g>
	<polygon class="st4" points="938.5,539.5 838.5,540.5 905.5,296.5 1002.5,296.5 	"/>
	<g>
		<polygon class="st5" points="937.02,532.5 1008.38,281.5 1061.92,281.5 998.17,532.5 		"/>
		<path d="M1061.28,282l-63.49,250h-60.1l71.07-250H1061.28 M1062.56,281H1008l-71.64,252h62.2L1062.56,281L1062.56,281z"/>
	</g>
	<g>
		<polygon class="st6" points="978.46,502.5 1049.38,251.5 1103.36,251.5 1039.61,502.5 		"/>
		<path d="M1102.71,252l-63.49,250h-60.1l70.64-250H1102.71 M1104,251h-55l-71.2,252h62.2L1104,251L1104,251z"/>
	</g>
	<g>
		<polygon class="st7" points="-152.5,479.5 -152.5,231.5 815.34,231.5 744.62,479.5 		"/>
		<path d="M814.68,232l-70.43,247H-152V232H814.68 M816,231h-969v249h898L816,231L816,231z"/>
	</g>
	<g>
		<polygon class="st3" points="997.54,562.31 978.86,503.31 1059.51,503.5 1060.49,562.5 		"/>
		<path d="M979.54,503.81l79.48,0.19l0.97,58l-62.08-0.19L979.54,503.81 M978.17,502.81l19,60L1061,563l-1-60L978.17,502.81
			L978.17,502.81z"/>
	</g>
	<g>
		<polygon class="st3" points="955.63,591.21 936.95,532.21 988.69,532.5 1018.28,591.4 		"/>
		<path d="M937.63,532.72l50.75,0.28l29.08,57.9L956,590.71L937.63,532.72 M936.26,531.71l19,60l63.83,0.19L989,532L936.26,531.71
			L936.26,531.71z"/>
	</g>
	<g>
		<polygon class="st3" points="745.49,500.51 789.37,501.59 807.15,559.31 744.51,559.5 		"/>
		<path d="M745.98,501.02l43.01,1.05l17.48,56.73L745.02,559L745.98,501.02 M745,500l-1,60l63.83-0.19l-18.09-58.71L745,500L745,500
			z"/>
	</g>
	<g>
		<polygon class="st3" points="1052.37,541.5 1033.68,482.5 2053.5,482.5 2053.5,541.5 		"/>
		<path d="M2053,483v58H1052.73l-18.37-58H2053 M2054,482H1033l19,60h1002V482L2054,482z"/>
	</g>
	<g>
		<polygon class="st7" points="1104.38,231.5 2054.5,231.5 2054.5,479.5 1033.66,481.5 		"/>
		<path d="M2054,232v247l-1019.68,2l70.43-249H2054 M2055,231h-951l-71,251l1022-2V231L2055,231z"/>
	</g>
	<g>
		<polygon class="st3" points="-152.5,539.5 -152.5,480.5 743.64,480.5 763.31,539.5 		"/>
		<path d="M743.28,481l19.33,58H-152v-58H743.28 M744,480h-897v60h917L744,480L744,480z"/>
	</g>
	<g>
		<polygon class="st8" points="-152.5,599.5 -152.5,540.5 927.6,540.5 947.31,599.5 		"/>
		<path d="M927.24,541l19.37,58H-152v-58H927.24 M927.96,540H-153v60H948L927.96,540L927.96,540z"/>
	</g>
	<g>
		<polygon class="st8" points="945.42,599.5 926.68,540.5 2048.5,540.5 2048.5,599.5 		"/>
		<path d="M2048,541v58H945.78l-18.42-58H2048 M2049,540H926l19.05,60H2049V540L2049,540z"/>
	</g>
	<polygon class="st9" points="751.5,502.5 744.18,478.81 816.5,230.5 824.5,259.5 	"/>
	<g>
		<polygon class="st6" points="825.38,257.48 861.32,255.54 789.62,500.52 751.68,502.46 		"/>
		<path d="M860.64,256.07l-71.4,243.96l-36.87,1.89l73.39-243.97L860.64,256.07 M862,255l-37,2l-74,246l39-2L862,255L862,255z"/>
	</g>
	<g>
		<polygon class="st5" points="795.33,526.52 867.38,275.5 902.35,275.5 833.62,527.49 		"/>
		<path d="M901.69,276l-68.45,250.98l-37.25-0.95L867.75,276H901.69 M903,275h-36l-72.33,252l39.33,1L903,275L903,275z"/>
	</g>
	<polygon class="st10" points="795.5,526.5 788.17,503.07 860.5,254.76 867.5,274.5 	"/>
</g>
<g id="arrow">
	<polygon class="st11" points="1427.5,362.2 1427.45,343.5 1457.07,341.72 1456.37,325.57 1498.47,348.27 1458.59,377.03 
		1457.9,360.89 	"/>
	<polygon class="st11" points="287.87,342.39 286.45,361.03 256.79,360.5 256.22,376.65 216.03,350.73 258.03,325.18 257.46,341.32 
			"/>
	<polygon class="st11" points="1284.5,580.85 1284.45,562.15 1314.07,560.37 1313.37,544.23 1355.47,566.92 1315.59,595.68 
		1314.9,579.54 	"/>
	<polygon class="st11" points="420.12,561.48 418.71,580.13 389.04,579.59 388.47,595.74 348.28,569.83 390.28,544.27 
		389.71,560.42 	"/>
</g>
</svg>
