<?xml version="1.0" encoding="utf-8"?>
<!-- Generator: Adobe Illustrator 25.0.1, SVG Export Plug-In . SVG Version: 6.00 Build 0)  -->
<svg version="1.1" xmlns="http://www.w3.org/2000/svg" xmlns:xlink="http://www.w3.org/1999/xlink" x="0px" y="0px"
	 viewBox="0 0 1920 1080" style="enable-background:new 0 0 1920 1080;" xml:space="preserve">
<style type="text/css">
	.st0{fill:#B71C1C;}
	.st1{fill:#81D4FA;}
	.st2{fill:#A1887F;}
	.st3{fill:url(#SVGID_1_);}
	.st4{fill:#CCCCCC;stroke:#000000;stroke-miterlimit:10;}
	.st5{fill:none;stroke:#000000;stroke-miterlimit:10;}
	.st6{stroke:#000000;stroke-miterlimit:10;}
</style>
<g id="mantle">
	<g>
		<rect x="0.5" y="584.5" class="st0" width="1919" height="495"/>
		<path d="M1919,585v494H1V585H1919 M1920,584H0v496h1920V584L1920,584z"/>
	</g>
</g>
<g id="plate">
	<g id="sky">
		<g>
			<rect x="0.5" y="0.5" class="st1" width="1919" height="230"/>
			<path d="M1919,1v229H1V1H1919 M1920,0H0v231h1920V0L1920,0z"/>
		</g>
	</g>
	<g>
		<path class="st2" d="M951,663.5c-170.87,0-224.15-17.56-280.57-36.14c-29.06-9.57-59.1-19.47-106.35-27.85
			c-41.61-7.38-111.92-11.12-208.98-11.12c-160.88,0-343.41,10.43-354.61,11.08V480.44L960,355.5l959.5,124.94V599.5
			c-16.42-0.16-406.61-4-552.5-4c-65.05,0-103.17,12.62-147.31,27.24C1162,641.85,1096.61,663.5,951,663.5z"/>
		<path d="M960,356.01l959,124.87v118.11c-22.63-0.22-407.37-3.99-552-3.99c-65.13,0-103.28,12.64-147.47,27.27
			C1161.88,641.36,1096.53,663,951,663c-78,0-136.08-3.49-182.78-10.98c-41.56-6.67-68.79-15.64-97.63-25.14
			c-29.07-9.58-59.13-19.48-106.42-27.87c-41.64-7.38-111.98-11.13-209.06-11.13c-158.78,0-338.63,10.16-354.11,11.05V480.88
			L960,356.01 M960,355L0,480v120c0,0,188-11.11,355.11-11.11c83.55,0,161.89,2.78,208.89,11.11c141,25,130,64,387,64s266-68,416-68
			s553,4,553,4V480L960,355L960,355z"/>
	</g>
	<g>
		<linearGradient id="SVGID_1_" gradientUnits="userSpaceOnUse" x1="0.5" y1="312.5" x2="1919.5" y2="312.5">
			<stop  offset="0" style="stop-color:#4CAF50"/>
			<stop  offset="0.2555" style="stop-color:#4EB052"/>
			<stop  offset="0.3475" style="stop-color:#55B358"/>
			<stop  offset="0.4131" style="stop-color:#60B864"/>
			<stop  offset="0.4657" style="stop-color:#71C075"/>
			<stop  offset="0.5" style="stop-color:#81C784"/>
			<stop  offset="0.5342" style="stop-color:#71C075"/>
			<stop  offset="0.5867" style="stop-color:#60B864"/>
			<stop  offset="0.6522" style="stop-color:#55B358"/>
			<stop  offset="0.744" style="stop-color:#4EB052"/>
			<stop  offset="0.9988" style="stop-color:#4CAF50"/>
		</linearGradient>
		<path class="st3" d="M191.16,482.46c-107.36,0-183.9-2.7-190.66-2.95V231.47c34.36-2.38,74.41-3.44,129.73-3.44
			c29.2,0,59.6,0.28,91.79,0.58c34.78,0.32,70.75,0.66,108.06,0.66c203.82,0,443.25-10.3,673.89-86.74
			c149.17,68.7,276.37,82.78,421.42,82.78c39.61,0,79.65-1.02,122.05-2.11c45.54-1.16,92.62-2.37,142.62-2.37
			c82.98,0,155.89,3.37,229.44,10.61v248.03c-43.73-1.34-90.95-1.99-144.32-1.99c-57.21,0-114.31,0.74-169.54,1.46
			c-54.23,0.7-105.45,1.37-155.87,1.37c-223.59,0-392.74-14.07-491.47-82.73l-0.23-0.16l-0.26,0.11
			c-73.28,32.21-194.32,55.68-359.74,69.77C516.94,474.23,380.49,482.46,191.16,482.46z"/>
		<path d="M1003.94,143.07c70.86,32.62,141.17,54.71,214.92,67.52c60.58,10.53,124.28,15.22,206.54,15.22
			c39.62,0,79.67-1.02,122.06-2.11c45.53-1.16,92.61-2.37,142.61-2.37c82.78,0,155.55,3.36,228.93,10.56v247.06
			c-43.59-1.33-90.65-1.97-143.82-1.97c-57.2,0-114.31,0.74-169.53,1.45c-54.24,0.7-105.46,1.37-155.89,1.37
			c-84.49,0-193.37-1.67-286.11-14.73c-90.64-12.76-157.72-34.97-205.08-67.91l-0.46-0.32l-0.51,0.23
			c-73.23,32.19-194.21,55.65-359.58,69.73c-146.96,12.52-302.37,15.15-406.86,15.15c-105.24,0-180.85-2.59-190.16-2.93v-247.1
			c34.25-2.35,74.16-3.4,129.23-3.4c29.2,0,59.6,0.28,91.79,0.58c34.79,0.32,70.75,0.66,108.06,0.66
			c87.86,0,204.37-1.66,326.47-14.6C784.93,201.57,898.56,177.98,1003.94,143.07 M1004,142c-231.55,76.77-470.6,86.78-673.92,86.78
			c-71.68,0-138.96-1.24-199.85-1.24c-47.59,0-91.3,0.76-130.23,3.47v249c0,0,77.92,2.96,191.16,2.96
			c228.57,0,601-12.07,766.84-84.96c102.26,71.11,281.85,82.82,491.76,82.82c103.02,0,213.37-2.82,325.42-2.82
			c48.1,0,96.53,0.52,144.82,2.01V231c-83.83-8.27-159.61-10.66-229.94-10.66c-96.27,0-182.26,4.47-264.67,4.47
			C1285.3,224.82,1155.64,211.87,1004,142L1004,142z"/>
	</g>
	<path class="st4" d="M960,600"/>
	<path class="st4" d="M1588.5,577.5"/>
	<path class="st4" d="M960,600"/>
</g>
<g id="lines">
	<g>
		<line class="st5" x1="958.13" y1="397.57" x2="936.64" y2="429.22"/>
	</g>
	<g>
		<line class="st5" x1="935.01" y1="429.8" x2="960.64" y2="464.22"/>
	</g>
	<g>
		<line class="st5" x1="961.13" y1="463.57" x2="939.64" y2="495.22"/>
	</g>
	<g>
		<line class="st5" x1="938.01" y1="494.8" x2="950.5" y2="516.5"/>
	</g>
	<g>
		<line class="st5" x1="950.99" y1="516.05" x2="917.87" y2="535.17"/>
	</g>
	<g>
		<line class="st5" x1="918.5" y1="534.5" x2="937.5" y2="608.5"/>
	</g>
	<g>
		<line class="st5" x1="936.5" y1="605.93" x2="915.01" y2="637.57"/>
	</g>
	<g>
		<line class="st5" x1="913.39" y1="635.16" x2="950.5" y2="663.5"/>
	</g>
</g>
<g id="arrow">
	<polygon class="st6" points="1191,509.66 1190.24,528.34 1160.57,528.84 1160.57,545 1119.5,520.51 1160.57,493.5 1160.57,509.66 	
		"/>
	<polygon class="st6" points="1418.36,327.6 1417.7,343.81 1391.96,344.25 1391.96,358.27 1356.33,337.02 1391.96,313.59 
		1391.96,327.6 	"/>
	<polygon class="st6" points="721.59,525.52 722.35,506.84 752.02,506.33 752.02,490.18 793.09,514.66 752.02,541.68 752.02,525.52 
			"/>
	<polygon class="st6" points="534.01,329.91 534.64,314.28 559.47,313.85 559.47,300.33 593.84,320.82 559.47,343.43 559.47,329.91 
			"/>
</g>
</svg>
