<?xml version="1.0" encoding="utf-8"?>
<!-- Generator: Adobe Illustrator 25.0.0, SVG Export Plug-In . SVG Version: 6.00 Build 0)  -->
<svg version="1.1" xmlns="http://www.w3.org/2000/svg" xmlns:xlink="http://www.w3.org/1999/xlink" x="0px" y="0px"
	 viewBox="0 0 1920 1080" style="enable-background:new 0 0 1920 1080;" xml:space="preserve">
<style type="text/css">
	.st0{fill:#81D4FA;}
	.st1{fill:#B71C1C;}
	.st2{fill:#8D6E63;stroke:#000000;stroke-miterlimit:10;}
	.st3{fill:#4CAF50;}
	.st4{fill:#A1887F;}
	.st5{fill:#E0E0E0;}
	.st6{fill:#A1887F;stroke:#000000;stroke-miterlimit:10;}
	.st7{stroke:#000000;stroke-miterlimit:10;}
</style>
<g id="sky">
	<g>
		<rect x="0.5" y="0.5" class="st0" width="1919" height="332"/>
		<path d="M1919,1v331H1V1H1919 M1920,0H0v333h1920V0L1920,0z"/>
	</g>
</g>
<g id="mantle">
	<g>
		<rect x="0.5" y="584.5" class="st1" width="1919" height="495"/>
		<path d="M1919,585v494H1V585H1919 M1920,584H0v496h1920V584L1920,584z"/>
	</g>
</g>
<g id="plate">
	<polygon class="st2" points="955.5,504.5 855.5,505.5 922.5,261.5 1019.5,261.5 	"/>
	<g>
		<polygon class="st3" points="-50.5,482.5 -50.5,234.5 917.34,234.5 846.62,482.5 		"/>
		<path d="M916.68,235l-70.43,247H-50V235H916.68 M918,234H-51v249h898L918,234L918,234z"/>
	</g>
	<g>
		<polygon class="st4" points="863.99,562.31 835.79,503.31 958,503.5 959.49,562.5 		"/>
		<path d="M836.59,503.81L957.52,504l1.46,58l-94.67-0.19L836.59,503.81 M835,502.81l28.67,60L960,563l-1.51-60L835,502.81
			L835,502.81z"/>
	</g>
	<g>
		<polygon class="st4" points="956.37,538.5 937.68,479.5 1957.5,479.5 1957.5,538.5 		"/>
		<path d="M1957,480v58H956.73l-18.37-58H1957 M1958,479H937l19,60h1002V479L1958,479z"/>
	</g>
	<g>
		<polygon class="st3" points="1008.38,228.5 1958.5,228.5 1958.5,476.5 937.66,478.5 		"/>
		<path d="M1958,229v247l-1019.68,2l70.43-249H1958 M1959,228h-951l-71,251l1022-2V228L1959,228z"/>
	</g>
	<g>
		<polygon class="st4" points="-50.5,542.5 -50.5,483.5 845.64,483.5 865.31,542.5 		"/>
		<path d="M845.28,484l19.33,58H-50v-58H845.28 M846,483H-51v60h917L846,483L846,483z"/>
	</g>
	<g>
		<polygon class="st5" points="-152.5,599.5 -152.5,540.5 927.6,540.5 947.31,599.5 		"/>
		<path d="M927.24,541l19.37,58H-152v-58H927.24 M927.96,540H-153v60H948L927.96,540L927.96,540z"/>
	</g>
	<g>
		<polygon class="st5" points="945.42,599.5 926.68,540.5 2048.5,540.5 2048.5,599.5 		"/>
		<path d="M2048,541v58H945.78l-18.42-58H2048 M2049,540H926l19.05,60H2049V540L2049,540z"/>
	</g>
	<polygon class="st6" points="853.5,505.5 846.18,481.81 918.5,233.5 926.5,262.5 	"/>
</g>
<g id="arrow">
	<polygon class="st7" points="1287.5,358.74 1287.45,340.05 1317.07,338.26 1316.37,322.12 1358.47,344.82 1318.59,373.57 
		1317.9,357.43 	"/>
	<polygon class="st7" points="468.87,338.94 467.45,357.58 437.79,357.05 437.22,373.19 397.03,347.28 439.03,321.72 438.46,337.87 
			"/>
	<polygon class="st7" points="1144.5,577.4 1144.45,558.7 1174.07,556.92 1173.37,540.78 1215.47,563.47 1175.59,592.23 
		1174.9,576.09 	"/>
	<polygon class="st7" points="601.12,558.03 599.71,576.68 570.04,576.14 569.47,592.29 529.28,566.38 571.28,540.82 570.71,556.97 
			"/>
</g>
</svg>
