<?xml version="1.0" encoding="utf-8"?>
<!-- Generator: Adobe Illustrator 25.0.0, SVG Export Plug-In . SVG Version: 6.00 Build 0)  -->
<svg version="1.1" xmlns="http://www.w3.org/2000/svg" xmlns:xlink="http://www.w3.org/1999/xlink" x="0px" y="0px"
	 viewBox="0 0 1920 1080" style="enable-background:new 0 0 1920 1080;" xml:space="preserve">
<style type="text/css">
	.st0{fill:#2AD8FF;}
	.st1{fill:#C1272D;}
	.st2{fill:#B3B3B3;}
	.st3{fill:#CCCCCC;}
	.st4{fill:#999999;}
	.st5{opacity:0.8;}
	.st6{fill:#29ABE2;}
	.st7{fill:#CCCCCC;stroke:#000000;stroke-miterlimit:10;}
	.st8{fill:none;stroke:#000000;stroke-miterlimit:10;}
</style>
<g id="sky">
	<g>
		<rect x="0.5" y="0.5" class="st0" width="1919" height="270"/>
		<path d="M1919,1v269H1V1H1919 M1920,0H0v271h1920V0L1920,0z"/>
	</g>
</g>
<g id="mantle">
	<g>
		<rect x="0.5" y="541.5" class="st1" width="1919" height="538"/>
		<path d="M1919,542v537H1V542H1919 M1920,541H0v539h1920V541L1920,541z"/>
	</g>
</g>
<g id="plate">
	<g>
		<path class="st2" d="M1919.5,510.49c-13.98-0.17-302.5-3.79-571.48-16.99c-61.79-3.03-111.87-9.08-160.31-14.93
			c-61.68-7.45-119.94-14.49-195.42-14.49c-10.59,0-21.46,0.14-32.31,0.42c-85.71,2.21-141.32,8.38-195.11,14.35
			c-43.46,4.82-88.39,9.8-148.9,12.66C335.4,504.73,15.3,510.24,0.5,510.49V261.5c15.1-0.01,351.96-0.48,630.52-14
			c57.93-2.81,91.37-9.22,123.71-15.42C799.8,223.44,846.4,214.5,960,214.5c114.97,0,172.44,7.5,233.28,15.44
			c42.36,5.53,86.16,11.25,151.69,14.55c265.68,13.41,560.55,16.84,574.53,17V510.49z"/>
		<path d="M960,215c114.93,0,172.39,7.5,233.22,15.44c42.37,5.53,86.18,11.25,151.73,14.56c263.06,13.28,554.74,16.77,574.05,16.99
			v248c-19.29-0.24-304.7-3.92-570.95-16.99c-61.77-3.03-111.85-9.08-160.27-14.93c-61.69-7.45-119.96-14.49-195.48-14.49
			c-10.59,0-21.47,0.14-32.32,0.42c-85.73,2.21-141.35,8.38-195.15,14.35c-43.45,4.82-88.38,9.8-148.87,12.65
			C338.07,504.1,21.41,509.64,1,509.98V262c20.79-0.02,354.03-0.61,630.05-14c57.96-2.81,91.42-9.23,123.78-15.43
			C799.87,223.93,846.45,215,960,215 M960,214c-196,0-191.22,26.31-329,33C344.15,260.92,0,261,0,261v250c0,0,326.84-5.37,616-19
			c135.35-6.38,189-23,344-27c11.13-0.29,21.87-0.42,32.3-0.42c134.8,0,215.3,22.53,355.7,29.42c277.54,13.62,572,17,572,17V261
			c0,0-301.04-3.17-575-17C1186.47,236,1156,214,960,214L960,214z"/>
	</g>
	<g>
		<path class="st3" d="M0.5,545.47c10.98-0.58,206.28-11.05,502.53-29.97c111.51-15.97,202.19-23.73,277.26-23.73
			c47.96,0,82.46,3.07,112.9,5.78c23.82,2.12,44.39,3.95,66.81,3.95c21.55,0,53.09-1.22,89.61-2.63c51.24-1.98,115-4.44,176.38-4.44
			c92.63,0,157.68,5.58,198.88,17.05c116.06,23.62,479,29.76,494.63,30.01v49.01c-3.51,0.04-25.48,0.27-58.57,0.27
			c-109.81,0-312.28-2.41-434.51-18.58c-108.96-14.41-223.7-16.4-331.45-16.4c-13.13,0-26,0.03-38.58,0.05
			c-12.02,0.02-23.77,0.05-35.21,0.05c-25.6,0-44.47-0.12-61.16-0.39c-22.38-0.36-48.08-1.11-75.3-1.9
			c-48.14-1.4-102.71-2.99-157.17-2.99c-95.61,0-167.45,5.1-219.61,15.58C385.47,590.79,16.44,594.35,0.5,594.5V545.47z"/>
		<path d="M780.29,492.27c47.94,0,82.42,3.07,112.85,5.78c23.83,2.12,44.41,3.95,66.86,3.95c21.57,0,53.11-1.22,89.64-2.63
			c51.23-1.98,114.99-4.44,176.36-4.44c92.57,0,157.57,5.57,198.73,17.03l0.03,0.01l0.03,0.01c34.06,6.93,112.43,16.74,292.4,24.12
			c101.7,4.17,191.46,5.71,201.8,5.88v48.03c-4.75,0.05-26.27,0.27-58.07,0.27c-109.8,0-312.24-2.41-434.45-18.58
			c-108.99-14.42-223.75-16.41-331.52-16.41c-0.06,0-0.12,0-0.18,0c-13.08,0-25.97,0.03-38.43,0.05
			c-12.21,0.02-23.74,0.05-35.18,0.05c-25.61,0-44.47-0.12-61.15-0.39c-22.37-0.36-48.08-1.11-75.3-1.9
			c-48.15-1.4-102.72-2.99-157.18-2.99c-95.64,0-167.51,5.1-219.71,15.59c-35.9,7.21-117.28,17.17-301.11,23.64
			C102.82,592.99,11.55,593.9,1,593.99v-48.04c15.21-0.81,209.36-11.25,502.06-29.95l0.04,0l0.04-0.01
			C614.59,500.03,705.24,492.27,780.29,492.27 M780.29,491.27c-62.88,0-148.63,5.3-277.29,23.73C195.99,534.61,0,545,0,545v50
			c0,0,382-3,508.03-28.33c60.72-12.2,140.14-15.57,219.51-15.57c85.38,0,170.7,3.9,232.46,4.9c19.16,0.31,39.62,0.39,61.17,0.39
			c23.43,0,48.13-0.1,73.8-0.1c101.83,0,218.77,1.5,331.39,16.4c124.14,16.42,332.99,18.59,434.58,18.59
			c36.43,0,59.07-0.28,59.07-0.28v-50c0,0-375.68-5.72-495-30c-47.58-13.25-122.07-17.07-199.01-17.07
			c-104.68,0-213.9,7.07-265.99,7.07C908.72,501,865.49,491.27,780.29,491.27L780.29,491.27z"/>
	</g>
	<g>
		<path class="st4" d="M17.91,540.54c-9.64,0-15.7-0.03-17.41-0.03v-29c13.72-0.02,295.7-0.87,520.94-28.33
			c98.59-14.69,190.98-21.84,282.47-21.84c41.67,0,76.78,1.46,105,2.63c19.8,0.82,36.9,1.53,51.09,1.53
			c297.42,0,417.01,10.34,464.97,19.01c102.1,18.47,478.62,26.64,494.53,26.98v29c-15.87-0.24-380.15-5.9-493.13-22.7
			c-103.35-15.37-328.25-15.37-402.16-15.37c-14.91,0-28.46,0.02-40.25,0.04c-9.09,0.02-17.13,0.03-23.96,0.03
			c-15.63,0-35.91-0.44-59.4-0.94c-32.52-0.7-73-1.56-116.35-1.56c-108,0-195.57,5.5-267.72,16.83
			C376.37,538.83,99.44,540.54,17.91,540.54z"/>
		<path d="M803.92,461.83c41.65,0,76.76,1.46,104.97,2.63C928.7,465.29,945.8,466,960,466c297.38,0,416.95,10.33,464.88,19
			c101.26,18.31,472.27,26.51,494.12,26.98v28.01c-21.85-0.33-380.62-6.04-492.56-22.68c-103.39-15.37-328.32-15.37-402.23-15.37
			c-14.91,0-28.38,0.02-40.25,0.04c-9.09,0.02-17.13,0.03-23.96,0.03c-15.62,0-35.91-0.43-59.39-0.94
			c-32.52-0.7-73-1.57-116.36-1.57c-108.02,0-195.62,5.51-267.79,16.84c-140.13,21.99-417.02,23.7-498.55,23.7
			c-8.82,0-14.69-0.02-16.91-0.03V512c18.94-0.04,297.52-1.15,520.53-28.34C620.07,468.97,712.44,461.83,803.92,461.83
			L803.92,461.83 M803.91,460.83c-72.17,0-165.08,4.33-282.53,21.84C289,511,0,511,0,511v30c0,0,6.4,0.04,17.91,0.04
			c73.82,0,357.15-1.5,498.7-23.72c86.81-13.63,183.77-16.82,267.64-16.82c74.2,0,138.16,2.5,175.75,2.5
			c15.68,0,37.81-0.07,64.21-0.07c114.09,0,307.64,1.32,402.08,15.36C1542.58,535.58,1920,541,1920,541v-30c0,0-390-8-494.94-26.98
			C1320.12,465.04,1032.94,465,960,465C925.51,465,874.68,460.83,803.91,460.83L803.91,460.83z"/>
	</g>
	<g class="st5">
		<polygon class="st6" points="898,452.94 0,452.94 0,197 969,197 		"/>
	</g>
	<g class="st5">
		<polygon class="st6" points="1920,452.94 898,455 969,197 1920,197 		"/>
	</g>
	<g>
		<path class="st1" d="M952.65,555.5c14.53-55,15.74-87.26,15.84-91.92l12.92,2.04c-0.57,2.92-3.19,17.76-1.4,35.07
			c1.8,17.4,8.53,40.84,30.25,54.81H952.65z"/>
		<path d="M968.98,464.17l11.84,1.87c-0.72,3.89-3.02,18.18-1.31,34.71c2.51,24.29,12.54,42.97,29.09,54.25H953.3
			C967.19,502.21,968.79,470.48,968.98,464.17 M968,463c0,0,0,32.66-16,93c48,0,0,0,60,0c-44-26.57-30-90.79-30-90.79L968,463
			L968,463z"/>
	</g>
	<path class="st7" d="M526.34,515.85"/>
</g>
<g id="arrow">
	<g>
		<line class="st8" x1="1020.5" y1="466.5" x2="1035.5" y2="552.5"/>
	</g>
	<g>
		<line class="st8" x1="1040.5" y1="468" x2="1055.5" y2="554"/>
	</g>
	<g>
		<line class="st8" x1="1062.5" y1="468" x2="1077.5" y2="554"/>
	</g>
	<g>
		<line class="st8" x1="1087.5" y1="468" x2="1102.5" y2="554"/>
	</g>
	<g>
		<line class="st8" x1="1108.5" y1="466" x2="1123.5" y2="552"/>
	</g>
	<g>
		<line class="st8" x1="912.5" y1="468" x2="927.5" y2="554"/>
	</g>
	<g>
		<line class="st8" x1="897.5" y1="466" x2="912.5" y2="552"/>
	</g>
	<g>
		<line class="st8" x1="875.5" y1="466" x2="890.5" y2="552"/>
	</g>
	<g>
		<line class="st8" x1="853.55" y1="464.56" x2="868.55" y2="550.56"/>
	</g>
	<g>
		<line class="st8" x1="832.62" y1="463.32" x2="847.5" y2="549.5"/>
	</g>
	<g>
		<line class="st8" x1="964.5" y1="214.5" x2="913.5" y2="463.5"/>
	</g>
	<g>
		<line class="st8" x1="1018.27" y1="214.12" x2="968.5" y2="463.5"/>
	</g>
	<g>
		<line class="st8" x1="1034.27" y1="214.12" x2="982.27" y2="467.12"/>
	</g>
	<g>
		<line class="st8" x1="1073.5" y1="216.5" x2="1022.27" y2="467.12"/>
	</g>
	<g>
		<line class="st8" x1="1089.27" y1="217.12" x2="1038.5" y2="465.5"/>
	</g>
	<g>
		<line class="st8" x1="950.27" y1="214.12" x2="899.5" y2="463.5"/>
	</g>
	<g>
		<line class="st8" x1="928.27" y1="214.12" x2="877.5" y2="462.5"/>
	</g>
	<g>
		<line class="st8" x1="904.27" y1="217.12" x2="854.5" y2="460.5"/>
	</g>
	<g>
		<line class="st8" x1="883.5" y1="214.5" x2="832.5" y2="460.5"/>
	</g>
	<g>
		<line class="st8" x1="1113.5" y1="223.5" x2="1063.27" y2="467.12"/>
	</g>
	<g>
		<line class="st8" x1="1135.5" y1="227.5" x2="1086.27" y2="467.12"/>
	</g>
	<g>
		<line class="st8" x1="1159.5" y1="225.5" x2="1109.27" y2="467.12"/>
	</g>
</g>
</svg>
