<?xml version="1.0" encoding="utf-8"?>
<!-- Generator: Adobe Illustrator 25.0.1, SVG Export Plug-In . SVG Version: 6.00 Build 0)  -->
<svg version="1.1" xmlns="http://www.w3.org/2000/svg" xmlns:xlink="http://www.w3.org/1999/xlink" x="0px" y="0px"
	 viewBox="0 0 1920 1080" style="enable-background:new 0 0 1920 1080;" xml:space="preserve">
<style type="text/css">
	.st0{fill:#81D4FA;}
	.st1{fill:#B71C1C;}
	.st2{fill:#BDBDBD;}
	.st3{fill:url(#SVGID_1_);}
	.st4{stroke:#000000;stroke-miterlimit:10;}
	.st5{opacity:0.8;}
	.st6{fill:#42A5F5;}
	.st7{fill:#9E9E9E;}
</style>
<g id="sky">
	<g>
		<rect x="0.5" y="0.5" class="st0" width="1919" height="354"/>
		<path d="M1919,1v353H1V1H1919 M1920,0H0v355h1920V0L1920,0z"/>
	</g>
</g>
<g id="mantle">
	<g>
		<rect x="0.5" y="584.5" class="st1" width="1919" height="495"/>
		<path d="M1919,585v494H1V585H1919 M1920,584H0v496h1920V584L1920,584z"/>
	</g>
</g>
<g id="plate">
	<g>
		<polygon class="st2" points="0.5,263.5 973.35,263.5 906.62,509.5 0.5,511.5 		"/>
		<path d="M972.69,264l-66.46,245L1,511V264H972.69 M974,263H0v249l907-2L974,263L974,263z"/>
	</g>
	<g>
		<linearGradient id="SVGID_1_" gradientUnits="userSpaceOnUse" x1="903.8584" y1="372.9146" x2="1918.5" y2="372.9146">
			<stop  offset="0.1882" style="stop-color:#BDBDBD"/>
			<stop  offset="0.3453" style="stop-color:#CCCCCC"/>
			<stop  offset="0.5147" style="stop-color:#BDBDBD"/>
		</linearGradient>
		<path class="st3" d="M974.11,259.22c10.82-14.72,118.8-22.19,320.96-22.19c152.17,0,332.65,4.16,464.43,7.2
			c65.04,1.5,121.24,2.8,159,3.26v251c-45.79-0.84-113.4-3.38-191.65-6.32c-151.28-5.68-339.56-12.75-500.28-12.75
			c-187.41,0-293.04,9.61-322.71,29.37L974.11,259.22z"/>
		<path d="M1295.13,237.53c152.15,0,332.61,4.16,464.37,7.2c64.75,1.49,120.75,2.78,158.5,3.26v249.99
			c-45.78-0.85-113.18-3.38-191.14-6.31c-151.28-5.68-339.56-12.75-500.29-12.75c-185.21,0-290.64,9.4-321.87,28.74l69.87-248.22
			c5.87-7.75,39.72-13.53,100.64-17.18c52.32-3.14,126.29-4.73,219.9-4.73H1295.13 M1295.06,236.53
			c-170.27,0-309.04,5.12-321.41,22.47L903,510c31.65-22.94,162.87-30.08,323.57-30.08c245.56,0,559.88,16.67,692.43,19.08V247
			C1803.99,245.6,1521.62,236.53,1295.06,236.53L1295.06,236.53z"/>
	</g>
</g>
<g id="arrow">
	<polygon class="st4" points="384.77,399.07 384.46,380.37 414.05,378.18 413.13,362.05 455.54,384.15 416.07,413.46 415.15,397.33 
			"/>
	<polygon class="st4" points="1745.97,385.55 1744.33,404.17 1714.67,403.28 1713.91,419.42 1674.03,393.03 1716.33,367.98 
		1715.57,384.12 	"/>
</g>
<g id="ocean">
	<g class="st5">
		<polygon class="st6" points="1148,482 0,480 0,231 1189,233 		"/>
	</g>
	<g class="st5">
		<polygon class="st6" points="1920,480 1148,482 1189,233 1920,231 		"/>
	</g>
	<g>
		<path class="st7" d="M985.09,599.5c-1.44-0.54-21.24-8.1-40.56-22.42c-18.33-13.58-39.96-36.2-39.04-66.87
			c14.61-14.01,76.92-24.51,185.21-31.2c89.79-5.55,208.23-8.36,352.03-8.36c190.24,0,380.33,5.08,476.76,9.82l-0.99,119.02H985.09z
			"/>
		<path d="M1442.75,471.16c189.91,0,379.67,5.07,476.24,9.79L1918.01,599H985.18c-1.97-0.75-21.41-8.28-40.37-22.33
			c-11.65-8.64-20.85-18.01-27.33-27.86c-7.98-12.14-11.85-25.04-11.49-38.37c14.78-13.86,76.93-24.26,184.75-30.92
			C1180.51,473.97,1298.94,471.16,1442.75,471.16L1442.75,471.16 M1442.73,470.16c-253.24,0-506.34,9.01-537.73,39.84
			c-2,60,80,90,80,90h934l1-120C1823.55,475.25,1633.1,470.16,1442.73,470.16L1442.73,470.16z"/>
	</g>
	<g>
		<path class="st7" d="M0.5,599.5v-89c15.04-0.09,352.04-2.07,608.83-2.07c109.96,0,190.59,0.36,239.66,1.07
			c51.1,0.74,88.83,13.38,112.15,37.56c21.98,22.79,23.29,48.59,23.36,52.44H0.5z"/>
		<path d="M609.4,508.93c109.91,0,190.52,0.36,239.58,1.07c50.95,0.74,88.55,13.32,111.78,37.39
			c21.07,21.84,23.04,46.45,23.22,51.61H904h-82H1v-88.01c20.77-0.12,353.93-2.07,608.38-2.07H609.4 M609.34,507.93
			C344.93,507.93,0,510,0,510v90c0,0,574,0,822,0c76.18,0,93.24,0,93.24,0H904h81c0,0,2-89-136-91
			C794.79,508.21,707.66,507.93,609.34,507.93L609.34,507.93z"/>
	</g>
	<polygon class="st4" points="1534.26,564.01 1532.84,580.11 1507.21,579.34 1506.55,593.29 1472.08,570.48 1508.64,548.82 
		1507.99,562.77 	"/>
	<polygon class="st4" points="647.5,579.44 647.25,564.26 671.29,562.48 670.54,549.37 704.98,567.33 672.92,591.14 672.17,578.04 	
		"/>
</g>
</svg>
