<?xml version="1.0" encoding="utf-8"?>
<!-- Generator: Adobe Illustrator 25.0.0, SVG Export Plug-In . SVG Version: 6.00 Build 0)  -->
<svg version="1.1" xmlns="http://www.w3.org/2000/svg" xmlns:xlink="http://www.w3.org/1999/xlink" x="0px" y="0px"
	 viewBox="0 0 1920 1080" style="enable-background:new 0 0 1920 1080;" xml:space="preserve">
<style type="text/css">
	.st0{fill:#2AD8FF;}
	.st1{fill:#C1272D;}
	.st2{fill:#999999;}
	.st3{fill:#B3B3B3;}
	.st4{fill:#CCCCCC;stroke:#000000;stroke-miterlimit:10;}
	.st5{fill:#CCCCCC;}
	.st6{fill:url(#SVGID_1_);}
	.st7{stroke:#000000;stroke-miterlimit:10;}
	.st8{opacity:0.8;}
	.st9{fill:#29ABE2;}
	.st10{opacity:0.8;fill:#29ABE2;}
</style>
<g id="sky">
	<g>
		<rect x="0.5" y="0.5" class="st0" width="1919" height="354"/>
		<path d="M1919,1v353H1V1H1919 M1920,0H0v355h1920V0L1920,0z"/>
	</g>
</g>
<g id="mantle">
	<g>
		<rect x="0.5" y="584.5" class="st1" width="1919" height="495"/>
		<path d="M1919,585v494H1V585H1919 M1920,584H0v496h1920V584L1920,584z"/>
	</g>
</g>
<g id="plate">
	<g>
		<path class="st2" d="M908.54,541.5l-10.01-90.4c32.43-32.03,147.96-47.6,353.14-47.6c170.2,0,381.61,10.71,568.13,20.17
			c34.19,1.73,66.49,3.37,98.71,4.96V541.5H908.54z"/>
		<path d="M1251.66,404c170.18,0,381.58,10.71,568.1,20.17c34.02,1.72,66.18,3.35,98.23,4.93V541H908.98l-9.94-89.71
			C931.61,419.47,1046.97,404,1251.66,404L1251.66,404 M1251.66,403c-178.96,0-317.28,11.6-353.66,47.92L908.09,542H1919V428.15
			C1702.92,417.51,1451.86,403,1251.66,403L1251.66,403z"/>
	</g>
	<g>
		<polygon class="st3" points="0.5,263.5 973.35,263.5 906.62,509.5 0.5,511.5 		"/>
		<path d="M972.69,264l-66.46,245L1,511V264H972.69 M974,263H0v249l907-2L974,263L974,263z"/>
	</g>
	<path class="st4" d="M960,600"/>
	<path class="st4" d="M1588.5,577.5"/>
	<path class="st4" d="M960,600"/>
	<g>
		<polygon class="st5" points="932.41,599.5 915.66,540.5 1918.5,540.5 1918.5,599.5 		"/>
		<path d="M1918,541v58H932.79l-16.47-58H1918 M1919,540H915l17.03,60H1919V540L1919,540z"/>
	</g>
	<g>
		<linearGradient id="SVGID_1_" gradientUnits="userSpaceOnUse" x1="903.8682" y1="351.1672" x2="1918.5" y2="351.1672">
			<stop  offset="0.1894" style="stop-color:#B3B3B3"/>
			<stop  offset="0.3466" style="stop-color:#CCCCCC"/>
			<stop  offset="0.5147" style="stop-color:#B3B3B3"/>
		</linearGradient>
		<path class="st6" d="M974.11,262.22c12.93-18,52.42-21.56,98.13-25.68c55.44-5,124.42-11.21,170.83-45.97
			c111.01,47.64,438.46,57.02,675.43,59.92v251c-13.11-0.24-26.62-0.47-40.47-0.71c-218.65-3.74-518.09-8.85-644.83-64.24l-0.2-0.09
			l-0.2,0.09c-103.94,44.93-167.57,46.43-218.7,47.63c-41.25,0.97-73.92,1.74-110.23,27.59L974.11,262.22z"/>
		<path d="M1243.14,191.15c50.82,21.71,153.69,37.75,305.76,47.68c127.46,8.32,264.09,10.87,369.1,12.16v249.99
			c-12.95-0.23-26.29-0.46-39.96-0.7c-218.6-3.74-517.99-8.85-644.64-64.2l-0.4-0.17l-0.4,0.17
			c-46.12,19.94-88.46,33.09-129.42,40.19c-35.37,6.14-63.92,6.81-89.1,7.4c-21.42,0.5-39.91,0.94-57.89,4.59
			c-18.8,3.82-35.23,10.92-51.46,22.27l69.84-248.1c12.85-17.75,52.19-21.3,97.72-25.4c27.89-2.51,59.5-5.36,89.39-11.9
			C1195.82,217.68,1222.47,206.56,1243.14,191.15 M1243,190c-84.39,63.47-240.52,31.58-269.35,72L903,513c80-58,138,7,330-76
			c135,59,466.7,61.02,686,65V250C1717.56,247.54,1359,240,1243,190L1243,190z"/>
	</g>
	<g>
		<path class="st2" d="M1121.07,614.5l-259-76l-861.57,1v-29H880c66.02,0,141,28.52,192.28,52.45
			c49.72,23.2,87.35,46.67,95.02,51.55H1121.07z"/>
		<path d="M880,511c29.1,0,62.36,5.5,98.86,16.36c29.23,8.69,60.58,20.82,93.19,36.03c47.08,21.97,83.32,44.19,93.52,50.61h-44.42
			l-258.86-75.96l-0.14-0.04l-0.14,0L1,539v-28H880 M880,510c-128,0-880,0-880,0v30l862-1l259,76h48C1169,615,1008,510,880,510
			L880,510z"/>
	</g>
	<g>
		<path class="st5" d="M1274.18,771.5c-3.05-2.54-53.93-44.51-132.95-85.94c-47.64-24.98-96.03-44.89-143.84-59.16
			c-59.77-17.85-118.78-26.9-175.39-26.9H0.5v-59H871c45.56,0,100.43,12.18,163.1,36.21c50.16,19.23,105.38,46.05,164.14,79.71
			c93.26,53.42,166.16,107.5,176.26,115.07H1274.18z"/>
		<path d="M871,541c45.49,0,100.3,12.17,162.91,36.18c50.13,19.22,105.33,46.03,164.07,79.68C1288.15,708.5,1359.28,760.76,1373,771
			h-98.64c-4.22-3.5-54.85-44.96-132.9-85.89c-47.67-25-96.09-44.91-143.93-59.2C937.72,608.06,878.66,599,822,599H1v-58H871
			 M871,540c-200,0-871,0-871,0v60c0,0,574,0,822,0s452,172,452,172h102C1376,772,1071,540,871,540L871,540z"/>
	</g>
	<g>
		<path class="st1" d="M1212.25,614.5c14.85-101.36,15.85-160.04,15.92-166.84l12.96,3.7c-0.42,3.72-3.3,31.3-1.45,63.66
			c1.81,31.66,8.65,74.44,30.88,99.47H1212.25z"/>
		<path d="M1228.66,448.32l11.92,3.41c-0.55,5.05-3.2,31.94-1.41,63.33c1.17,20.39,3.95,38.67,8.28,54.33
			c5.17,18.67,12.56,33.67,21.99,44.61h-56.62c8.16-55.77,12.03-98.07,13.84-123.8C1228.32,466.83,1228.61,452.55,1228.66,448.32
			 M1227.67,447c0,0,0,59-16,168c48,0,0,0,60,0c-44-48-30-164-30-164L1227.67,447L1227.67,447z"/>
	</g>
</g>
<g id="arrow">
	<polygon class="st7" points="779.5,580.44 779.25,565.26 803.29,563.48 802.54,550.37 836.98,568.33 804.92,592.14 804.17,579.04 	
		"/>
	<polygon class="st7" points="449.5,399.07 449.19,380.37 478.78,378.18 477.86,362.05 520.26,384.15 480.8,413.46 479.88,397.33 	
		"/>
	<polygon class="st7" points="1683.54,385.55 1681.9,404.17 1652.24,403.28 1651.48,419.42 1611.6,393.03 1653.9,367.98 
		1653.14,384.12 	"/>
	<polygon class="st7" points="1433.26,564.01 1431.84,580.11 1406.21,579.34 1405.55,593.29 1371.08,570.48 1407.64,548.82 
		1406.99,562.77 	"/>
</g>
<g id="ocean">
	<g class="st8">
		<polygon class="st9" points="1068,482 0,480 0,231 1121,231 		"/>
	</g>
	<g class="st8">
		<polygon class="st9" points="1920,480 1424,482 1462,231 1920,231 		"/>
	</g>
	<path class="st10" d="M1121,231c0,0,39,67,127,73s214-73,214-73l-38,251c3.68-0.64-143-28-191-45c-44,17-165,45-165,45L1121,231z"
		/>
</g>
</svg>
