<?xml version="1.0" encoding="utf-8"?>
<!-- Generator: Adobe Illustrator 25.0.0, SVG Export Plug-In . SVG Version: 6.00 Build 0)  -->
<svg version="1.1" xmlns="http://www.w3.org/2000/svg" xmlns:xlink="http://www.w3.org/1999/xlink" x="0px" y="0px"
	 viewBox="0 0 1920 1080" style="enable-background:new 0 0 1920 1080;" xml:space="preserve">
<style type="text/css">
	.st0{fill:#81D4FA;}
	.st1{fill:#B71C1C;}
	.st2{fill:url(#SVGID_1_);}
	.st3{fill:#E0E0E0;}
	.st4{fill:#9E9E9E;}
	.st5{fill:none;stroke:#000000;stroke-miterlimit:10;}
	.st6{stroke:#000000;stroke-miterlimit:10;}
	.st7{opacity:0.8;}
	.st8{fill:#42A5F5;}
</style>
<g id="sky">
	<g>
		<rect x="0.5" y="0.5" class="st0" width="1919" height="270"/>
		<path d="M1919,1v269H1V1H1919 M1920,0H0v271h1920V0L1920,0z"/>
	</g>
</g>
<g id="mantle">
	<g>
		<rect x="0.5" y="541.5" class="st1" width="1919" height="538"/>
		<path d="M1919,542v537H1V542H1919 M1920,541H0v539h1920V541L1920,541z"/>
	</g>
</g>
<g id="plate">
	<g>
		<linearGradient id="SVGID_1_" gradientUnits="userSpaceOnUse" x1="0.5" y1="387.9871" x2="1919.5" y2="387.9871">
			<stop  offset="0" style="stop-color:#BDBDBD"/>
			<stop  offset="0.2034" style="stop-color:#BBBBBB"/>
			<stop  offset="0.2767" style="stop-color:#B4B4B4"/>
			<stop  offset="0.3289" style="stop-color:#A9A9A9"/>
			<stop  offset="0.3711" style="stop-color:#989898"/>
			<stop  offset="0.4073" style="stop-color:#828282"/>
			<stop  offset="0.4394" style="stop-color:#666666"/>
			<stop  offset="0.4683" style="stop-color:#464646"/>
			<stop  offset="0.4941" style="stop-color:#222222"/>
			<stop  offset="0.4989" style="stop-color:#1A1A1A"/>
			<stop  offset="0.5038" style="stop-color:#222222"/>
			<stop  offset="0.5297" style="stop-color:#464646"/>
			<stop  offset="0.5588" style="stop-color:#666666"/>
			<stop  offset="0.5909" style="stop-color:#828282"/>
			<stop  offset="0.6273" style="stop-color:#989898"/>
			<stop  offset="0.6697" style="stop-color:#A9A9A9"/>
			<stop  offset="0.7221" style="stop-color:#B4B4B4"/>
			<stop  offset="0.7957" style="stop-color:#BBBBBB"/>
			<stop  offset="1" style="stop-color:#BDBDBD"/>
		</linearGradient>
		<path class="st2" d="M0.5,531.5V265.39c26.53-0.55,976.22-20.37,1003.89-20.88c-0.45,2.62-1.52,12.83,7.3,19.88
			c2.48,1.98,5.02,2.99,7.56,2.99c2.05,0,4.08-0.66,6.03-1.96c2.64-1.76,2.9-5.72,3.17-9.91c0.37-5.67,0.72-11.03,6.77-11.03
			c0.24,0,0.49,0.01,0.75,0.02c5.26,0.34,858.64,20.31,883.53,20.89V531.5H0.5z"/>
		<path d="M1035.22,243.97v1c0.23,0,0.47,0.01,0.71,0.02c5.28,0.35,835.15,19.76,883.07,20.88V531H1V265.88
			c35.64-0.74,964.71-20.13,1002.81-20.86c-0.46,3.41-0.88,13,7.57,19.76c2.57,2.06,5.22,3.1,7.87,3.1c2.15,0,4.27-0.69,6.31-2.05
			c2.85-1.9,3.12-6.17,3.39-10.29c0.43-6.57,1.06-10.56,6.27-10.56V243.97 M1035.22,243.97c-11.15,0-4.35,17.11-10.22,21.03
			c-1.9,1.27-3.83,1.88-5.76,1.88c-2.44,0-4.87-0.98-7.24-2.88c-10-8-7-20-7-20c-3.56,0-1005,20.9-1005,20.9V532h1920V264.9
			c0,0-878.64-20.55-884-20.9C1035.73,243.98,1035.47,243.97,1035.22,243.97L1035.22,243.97z"/>
	</g>
	<g>
		<polygon class="st3" points="0.5,535.31 1919.5,530.5 1919.5,589.69 0.5,594.5 		"/>
		<path d="M1919,531v58.19L1,594v-58.19L1919,531 M1920,530L0,534.81V595l1920-4.81V530L1920,530z"/>
	</g>
	<g>
		<path class="st4" d="M0.5,540.5v-29c24.51-0.03,838.68-1.01,940.97-1.01c6.23,0,9.84,0,10.53,0.01c0.82,0.3,4.22,5.86,6.7,9.92
			c4.78,7.81,6.32,10.08,7.3,10.08c5.01,0,7.01,0.16,7.79,0.31c-0.26,0.2-0.55,0.49-0.42,0.89c0.17,0.51,0.51,0.79,5.62,0.79
			c4.94,0,5.77-5.63,6.57-11.08c0.86-5.86,1.76-11.92,7.38-11.92c5.05,0.03,900.75,1.94,926.54,2v29H0.5z"/>
		<path d="M992.99,510c4.98,0.03,890.91,1.92,926.01,2v28H1v-28c33.33-0.04,838.96-1.01,940.49-1.01c5.86,0,9.32,0,10.31,0.01
			c1.02,0.78,4.15,5.91,6.46,9.68c5.37,8.78,6.52,10.32,7.73,10.32c3.82,0,5.83,0.1,6.89,0.2c-0.06,0.19-0.07,0.42,0.02,0.67
			c0.3,0.91,1.05,1.14,6.1,1.14c5.37,0,6.23-5.85,7.07-11.51c1.02-6.94,2.06-11.49,6.89-11.49H992.99 M992.96,509
			c-11.55,0-4.47,23-13.96,23c-13,0,5-2-13-2c-1.73,0-12.19-19.98-14-20c-0.69-0.01-4.3-0.01-10.51-0.01C837.15,509.99,0,511,0,511
			v30h1920v-30c0,0-921.88-1.97-927-2C992.99,509,992.97,509,992.96,509L992.96,509z"/>
	</g>
</g>
<g id="arrow">
	<g>
		<line class="st5" x1="1005.5" y1="244.5" x2="952.86" y2="511.49"/>
	</g>
	<g>
		<line class="st5" x1="1014.5" y1="265.5" x2="964.5" y2="531.5"/>
	</g>
	<g>
		<line class="st5" x1="1025.5" y1="265.5" x2="978.5" y2="531.5"/>
	</g>
	<g>
		<line class="st5" x1="1031.5" y1="244.5" x2="990.5" y2="508.5"/>
	</g>
	<polygon class="st6" points="1423.5,575.02 1423.25,559.83 1447.29,558.05 1446.54,544.95 1480.98,562.9 1448.92,586.71 
		1448.17,573.61 	"/>
	<polygon class="st6" points="1248.5,382.02 1248.25,366.83 1272.29,365.05 1271.54,351.95 1305.98,369.9 1273.92,393.71 
		1273.17,380.61 	"/>
	<polygon class="st6" points="724.55,361.28 722.9,376.38 698.83,375.14 697.93,388.24 666.01,366.11 700.79,346.5 699.9,359.59 	
		"/>
	<polygon class="st6" points="525.89,559.28 524.24,574.37 500.17,573.13 499.27,586.23 467.34,564.1 502.13,544.49 501.23,557.59 	
		"/>
</g>
<g id="Layer_5">
	<g class="st7">
		<polygon class="st8" points="898,452.94 0,452.94 0,197 969,197 		"/>
	</g>
	<g class="st7">
		<polygon class="st8" points="1920,452.94 898,455 969,197 1920,197 		"/>
	</g>
	<g>
		<path class="st1" d="M952.65,592.5c12.54-47.34,13.98-59.03,13.91-61.91l11.8,1.82c-1.2,4.21-7.6,31.01,14.63,60.09H952.65z"/>
		<path d="M967.04,531.17l10.67,1.64c-0.68,2.49-2.08,8.87-1.59,17.74c0.56,10.07,3.79,25.3,15.85,41.44h-24.99H953.3
			C962.03,559,966.89,537.45,967.04,531.17 M966,530c0,0,2,2.66-14,63c15.12,0,18.93,0,18.93,0h-3.94c0,0,5.12,0,27.01,0
			c-25-32-15-61-15-61L966,530L966,530z"/>
	</g>
</g>
</svg>
