<?xml version="1.0" encoding="utf-8"?>
<!-- Generator: Adobe Illustrator 25.0.1, SVG Export Plug-In . SVG Version: 6.00 Build 0)  -->
<svg version="1.1" xmlns="http://www.w3.org/2000/svg" xmlns:xlink="http://www.w3.org/1999/xlink" x="0px" y="0px"
	 viewBox="0 0 1920 1080" style="enable-background:new 0 0 1920 1080;" xml:space="preserve">
<style type="text/css">
	.st0{fill:#81D4FA;}
	.st1{fill:#B71C1C;}
	.st2{fill:url(#SVGID_1_);}
	.st3{fill:#9E9E9E;}
	.st4{fill:none;stroke:#000000;stroke-miterlimit:10;}
	.st5{stroke:#000000;stroke-miterlimit:10;}
	.st6{opacity:0.8;}
	.st7{fill:#42A5F5;}
</style>
<g id="sky">
	<g>
		<rect x="0.5" y="0.5" class="st0" width="1919" height="270"/>
		<path d="M1919,1v269H1V1H1919 M1920,0H0v271h1920V0L1920,0z"/>
	</g>
</g>
<g id="mantle">
	<g>
		<rect x="0.5" y="541.5" class="st1" width="1919" height="538"/>
		<path d="M1919,542v537H1V542H1919 M1920,541H0v539h1920V541L1920,541z"/>
	</g>
</g>
<g id="plate">
	<g>
		<linearGradient id="SVGID_1_" gradientUnits="userSpaceOnUse" x1="0.5" y1="356.4971" x2="1919.5" y2="356.4971">
			<stop  offset="0" style="stop-color:#BDBDBD"/>
			<stop  offset="0.0588" style="stop-color:#B4B4B4"/>
			<stop  offset="0.1548" style="stop-color:#9C9C9C"/>
			<stop  offset="0.276" style="stop-color:#747474"/>
			<stop  offset="0.4163" style="stop-color:#3E3E3E"/>
			<stop  offset="0.4989" style="stop-color:#1A1A1A"/>
			<stop  offset="0.5819" style="stop-color:#3E3E3E"/>
			<stop  offset="0.7228" style="stop-color:#747474"/>
			<stop  offset="0.8445" style="stop-color:#9C9C9C"/>
			<stop  offset="0.9409" style="stop-color:#B4B4B4"/>
			<stop  offset="1" style="stop-color:#BDBDBD"/>
		</linearGradient>
		<path class="st2" d="M1919.5,510.49c-13.98-0.17-302.5-3.79-571.48-16.99c-16.73-0.82-32.6-1.62-47.82-2.38
			c-91.8-4.62-158.12-7.95-243.05-7.95c-30.59,0-62.37,0.44-97.16,1.33c-64.94,1.68-112.73,2.06-154.9,2.4
			c-59.27,0.48-110.46,0.89-189.11,4.6C335.4,504.73,15.3,510.24,0.5,510.49V261.5c15.1-0.01,351.96-0.48,630.52-14
			c91-4.42,207.93-21.87,257.85-29.32c14.63-2.18,24.3-3.63,26.14-3.68c3-0.09,6.52-0.51,10.24-0.96c4.03-0.48,8.19-0.98,11.76-1.04
			c3.42-0.06,6.95-1.7,10.69-3.44c3.75-1.74,7.62-3.54,11.3-3.56c1.71-0.01,7.05-0.72,12.7-1.47c5.66-0.75,11.52-1.53,13.3-1.53
			c10.88,0,14.46,4.73,17.92,9.29c3.16,4.17,6.42,8.48,15.06,8.71c0.29,0.01,0.57,0.01,0.84,0.01c2.38,0,4.4-0.27,6.34-0.53
			c1.92-0.26,3.73-0.5,5.85-0.5c0.31,0,0.63,0.01,0.96,0.02c0.21,0.01,0.41,0.01,0.61,0.01c7.09,0,11.77-4.37,16.3-8.59
			c4.11-3.83,7.99-7.45,13.33-7.45c0.24,0,0.49,0.01,0.74,0.02c2.67,0.16,6.5,1.63,10.21,3.05c3.72,1.42,7.23,2.76,9.78,2.95
			c4.49,0.33,8.62,1.73,12.61,3.09c3.84,1.31,7.46,2.54,11.38,2.9c3.8,0.35,6.53,1.96,9.16,3.52c2.57,1.52,5.22,3.09,8.83,3.48
			c1.13,0.12,4.32,0.52,9.15,1.11c92.75,11.48,163.7,18.51,210.88,20.89c265.68,13.41,560.55,16.84,574.53,17V510.49z"/>
		<path d="M985,203c10.63,0,13.98,4.42,17.52,9.1c3.23,4.26,6.57,8.67,15.45,8.9c0.29,0.01,0.58,0.01,0.85,0.01
			c2.42,0,4.45-0.27,6.41-0.53c1.9-0.25,3.69-0.49,5.78-0.49c0.31,0,0.62,0.01,0.94,0.02c0.21,0.01,0.42,0.01,0.63,0.01
			c7.29,0,12.05-4.43,16.64-8.72c4.03-3.76,7.84-7.31,12.99-7.31c0.23,0,0.47,0.01,0.71,0.02c2.59,0.16,6.39,1.61,10.07,3.02
			c3.75,1.43,7.3,2.79,9.92,2.98c4.43,0.32,8.52,1.72,12.48,3.07c3.7,1.26,7.52,2.56,11.5,2.93c3.69,0.34,6.25,1.85,8.95,3.45
			c2.61,1.55,5.32,3.14,9.03,3.55c1.12,0.12,4.31,0.52,9.14,1.11c92.76,11.48,163.72,18.51,210.92,20.89
			c263.06,13.28,554.74,16.77,574.05,16.99v248c-19.29-0.24-304.7-3.92-570.95-16.99c-16.71-0.82-32.58-1.62-47.79-2.38
			c-91.82-4.62-158.16-7.95-243.11-7.95c-30.59,0-62.38,0.44-97.17,1.33c-64.93,1.68-112.72,2.06-154.89,2.4
			c-59.27,0.48-110.47,0.89-189.13,4.6C338.07,504.1,21.41,509.64,1,509.98V262c20.79-0.02,354.03-0.61,630.05-14
			c91.03-4.42,207.97-21.87,257.91-29.32c14.62-2.18,24.27-3.62,26.07-3.67c3.02-0.09,6.55-0.51,10.28-0.96
			c4.02-0.48,8.17-0.98,11.71-1.04c3.53-0.06,7.27-1.8,10.89-3.48c3.7-1.72,7.52-3.5,11.1-3.52c1.75-0.01,7.1-0.72,12.76-1.47
			C977.41,203.78,983.25,203,985,203 M985,202c-3.56,0-22.57,2.98-26,3c-7.38,0.04-15.19,6.89-22,7c-6.82,0.11-15.71,1.82-22,2
			c-8.28,0.24-166.62,27.3-284,33C344.15,260.92,0,261,0,261v250c0,0,326.84-5.37,616-19c135.35-6.38,189-3,344-7
			c35.69-0.92,67.48-1.33,97.15-1.33c99.16,0,174.43,4.62,290.85,10.33c277.54,13.62,572,17,572,17V261c0,0-301.04-3.17-575-17
			c-81.72-4.12-211.31-21.06-220-22c-7.17-0.78-10.36-6.3-18-7c-8.05-0.74-15.24-5.36-24-6c-5.07-0.37-14.64-5.67-20-6
			c-0.26-0.02-0.52-0.02-0.77-0.02c-11.5,0-16.33,16.03-29.63,16.03c-0.2,0-0.4,0-0.6-0.01c-0.33-0.01-0.66-0.02-0.98-0.02
			c-4.37,0-7.56,1.03-12.19,1.03c-0.27,0-0.55,0-0.83-0.01C1000.31,219.53,1006.19,202,985,202L985,202z"/>
	</g>
	<g>
		<path class="st3" d="M0.5,511.5c13.72-0.02,295.7-0.87,520.94-28.33c130.95-19.52,334.15-25.67,349.12-25.67
			c0.18,0,0.75,0.01,0.75,0.01c4.26,0,8.39-2.13,12.39-4.19c3.82-1.97,7.42-3.82,10.94-3.82c0.11,0,0.67,0.01,0.83,0.01
			c3.5,0,5.86-1.35,8.14-2.66c2.12-1.21,4.12-2.36,6.94-2.36c0.14,0,0.65,0.01,0.65,0.01c2.58,0,7.03-1.84,11.33-3.63
			c4.01-1.66,8.15-3.38,10.3-3.38l0.15,0c8.39,0.35,10.74,4.05,13,7.63c2.05,3.24,3.99,6.3,10.01,6.37
			c0.87,0.34,5.12,6.76,8.23,11.45c5.92,8.95,7.79,11.55,8.77,11.55c4.62,0,7.33-0.7,8.53-2.21c1.1-1.38,0.71-3.12,0.36-4.66
			c-0.28-1.24-0.54-2.4,0.02-3.11c0.54-0.68,1.91-1.02,4.05-1.02c4.8,0,9.22-5.48,13.9-11.29c5.04-6.25,10.26-12.71,16.1-12.71
			c2.43,0.01,6.03,1.96,9.5,3.84c3.75,2.03,7.64,4.14,10.54,4.16c3.81,0.03,6.27,1.4,8.87,2.85c2.75,1.53,5.59,3.11,10.13,3.15
			c3.52,0.03,6.17,1.88,8.97,3.83c2.91,2.03,5.91,4.12,10.03,4.17c2.4,0.03,283.04,10.72,350.97,23.01
			c102.1,18.46,478.62,26.64,494.53,26.98v79.01c-15.8-0.08-380.43-2.19-493.43-18.99c-107.8-16.03-346.61-16.03-425.08-16.03
			c-8.96,0-17.19,0.01-24.6,0.01c-6.04,0-11.53,0.01-16.39,0.01c-17.95,0-42.65-0.8-71.25-1.72c-41.62-1.34-93.42-3.02-148.37-3.02
			c-93.2,0-169.23,4.82-232.45,14.75C349.1,590.43,15.6,594.33,0.5,594.5V511.5z"/>
		<path d="M932.83,438c0.04,0,0.09,0,0.13,0c8.13,0.34,10.4,3.93,12.6,7.4c2.01,3.18,4.1,6.47,10.24,6.6
			c1.13,0.85,5.1,6.83,8.01,11.23c6.63,10.01,8,11.77,9.19,11.77c4.78,0,7.62-0.76,8.92-2.39c1.25-1.57,0.81-3.52,0.45-5.09
			c-0.25-1.11-0.49-2.17-0.08-2.68c0.3-0.38,1.19-0.83,3.66-0.83h0.05c4.98,0,9.48-5.57,14.23-11.47
			c4.97-6.16,10.11-12.53,15.75-12.53c2.27,0.01,5.8,1.93,9.23,3.78c3.81,2.06,7.75,4.2,10.77,4.22c3.68,0.02,6.09,1.36,8.63,2.78
			c2.8,1.56,5.7,3.17,10.37,3.22c3.37,0.03,5.95,1.83,8.69,3.74c2.97,2.07,6.04,4.21,10.31,4.26c2.4,0.03,283.01,10.73,350.89,23
			c101.26,18.31,472.27,26.51,494.12,26.98v78.02c-21.75-0.12-380.89-2.34-492.85-18.98c-107.84-16.03-346.67-16.03-425.15-16.03
			c-8.96,0-17.2,0.01-24.6,0.01C970.35,555,964.87,555,960,555c-17.94,0-42.64-0.8-71.25-1.72c-41.62-1.34-93.42-3.02-148.38-3.02
			c-93.22,0-169.28,4.82-232.53,14.75C350.54,589.7,21.79,593.76,1,593.99V512c18.94-0.04,297.52-1.15,520.53-28.34
			C652.43,464.15,855.6,458,870.56,458c0.18,0,0.32,0,0.41,0c0.11,0,0.23,0,0.34,0c4.38,0,8.57-2.16,12.62-4.24
			c3.76-1.94,7.31-3.77,10.71-3.77c0.11,0,0.22,0,0.32,0.01c0.17,0.01,0.34,0.01,0.51,0.01c3.63,0,6.05-1.38,8.39-2.72
			c2.06-1.18,4-2.29,6.69-2.29c0.14,0,0.27,0,0.41,0.01c0.08,0,0.15,0,0.23,0c2.68,0,6.98-1.78,11.52-3.67
			C926.68,439.7,930.78,438,932.83,438 M932.83,437c-4.57,0-16.75,7.01-21.64,7.01c-0.07,0-0.13,0-0.19,0
			c-0.15-0.01-0.3-0.01-0.45-0.01c-6.04,0-8.49,5.02-15.08,5.02c-0.15,0-0.31,0-0.47-0.01c-0.12,0-0.24-0.01-0.36-0.01
			c-7.43,0-15.23,8.01-23.33,8.01c-0.1,0-0.21,0-0.31,0c-0.1,0-0.25,0-0.44,0c-12.76,0-218.12,6.14-349.18,25.68
			C289,511,0,511,0,511v84c0,0,344.39-3.32,508-29c73.67-11.56,156.37-14.74,232.37-14.74c92.8,0,175.6,4.74,219.63,4.74
			c10.83,0,24.73-0.02,41-0.02c109.03,0,323.81,0.98,425,16.02c116.29,17.29,494,19,494,19v-80c0,0-390-8-494.94-26.98
			c-65.99-11.93-343.56-22.93-351.06-23.02c-7.84-0.09-11.55-7.93-19-8c-8.67-0.08-10.98-5.95-19-6c-5.46-0.04-14.88-7.97-20-8
			c-0.01,0-0.03,0-0.04,0c-11.59,0-20.47,24-29.95,24c0,0-0.01,0-0.01,0c-0.01,0-0.03,0-0.04,0c-12.41,0,5.02,11-12.96,11
			c-1.73,0-15.19-22.98-17-23c-12.29-0.14-6.75-13.33-23-14C932.94,437,932.89,437,932.83,437L932.83,437z"/>
	</g>
</g>
<g id="arrow">
	<g>
		<line class="st4" x1="984.5" y1="201.5" x2="934.5" y2="438.5"/>
	</g>
	<g>
		<line class="st4" x1="1018.5" y1="220.5" x2="968.5" y2="463.5"/>
	</g>
	<g>
		<line class="st4" x1="1032.5" y1="219.5" x2="982.27" y2="467.12"/>
	</g>
	<g>
		<line class="st4" x1="1063.5" y1="202.5" x2="1015.5" y2="437.5"/>
	</g>
	<g>
		<line class="st4" x1="1083.5" y1="208.5" x2="1035.5" y2="447.5"/>
	</g>
	<g>
		<line class="st4" x1="958.5" y1="205.5" x2="909.5" y2="443.5"/>
	</g>
	<g>
		<line class="st4" x1="936.5" y1="211.5" x2="887.5" y2="450.5"/>
	</g>
	<g>
		<line class="st4" x1="915.27" y1="214.12" x2="865.5" y2="454.5"/>
	</g>
	<g>
		<line class="st4" x1="1107.5" y1="214.5" x2="1057.5" y2="453.5"/>
	</g>
	<g>
		<line class="st4" x1="1125.5" y1="222.5" x2="1077.5" y2="459.5"/>
	</g>
	<polygon class="st5" points="1553.5,569.38 1553.25,554.19 1577.29,552.41 1576.54,539.31 1610.98,557.27 1578.92,581.07 
		1578.17,567.97 	"/>
	<polygon class="st5" points="1378.5,342.38 1378.25,327.19 1402.29,325.41 1401.54,312.31 1435.98,330.27 1403.92,354.07 
		1403.17,340.97 	"/>
	<polygon class="st5" points="582.55,327.65 580.9,342.74 556.83,341.5 555.93,354.6 524.01,332.47 558.79,312.86 557.9,325.96 	"/>
	<polygon class="st5" points="383.89,549.64 382.24,564.74 358.17,563.5 357.27,576.59 325.34,554.46 360.13,534.85 359.23,547.95 	
		"/>
</g>
<g id="Layer_5">
	<g class="st6">
		<polygon class="st7" points="898,452.94 0,452.94 0,197 969,197 		"/>
	</g>
	<g class="st6">
		<polygon class="st7" points="1920,452.94 898,455 969,197 1920,197 		"/>
	</g>
	<g>
		<path class="st1" d="M952.65,555.5c14.17-53.56,16.48-76.71,16.8-80.8l9.96,3.62c-1.02,4.75-9.23,47.06,13.57,77.18H952.65z"/>
		<path d="M969.9,475.39l8.94,3.25c-0.62,2.99-2.53,13.35-2.21,26.38c0.33,13.84,3.3,33.54,15.36,49.98h-25H953.3
			c8.05-30.5,12.16-50.77,14.19-62.46C969.12,483.13,969.7,477.71,969.9,475.39 M969,474c0,0-1,21.66-17,82c15.12,0,18.93,0,18.93,0
			h-3.94c0,0,5.12,0,27.01,0c-25-32-14-78-14-78L969,474L969,474z"/>
	</g>
</g>
</svg>
