<?xml version="1.0" encoding="utf-8"?>
<!-- Generator: Adobe Illustrator 25.0.1, SVG Export Plug-In . SVG Version: 6.00 Build 0)  -->
<svg version="1.1" xmlns="http://www.w3.org/2000/svg" xmlns:xlink="http://www.w3.org/1999/xlink" x="0px" y="0px"
	 viewBox="0 0 1920 1080" style="enable-background:new 0 0 1920 1080;" xml:space="preserve">
<style type="text/css">
	.st0{fill:#81D4FA;}
	.st1{fill:#B71C1C;}
	.st2{fill:url(#SVGID_1_);}
	.st3{fill:#9E9E9E;}
	.st4{fill:none;stroke:#000000;stroke-miterlimit:10;}
	.st5{stroke:#000000;stroke-miterlimit:10;}
	.st6{opacity:0.8;}
	.st7{fill:#42A5F5;}
</style>
<g id="sky">
	<g>
		<rect x="0.5" y="0.5" class="st0" width="1919" height="270"/>
		<path d="M1919,1v269H1V1H1919 M1920,0H0v271h1920V0L1920,0z"/>
	</g>
</g>
<g id="mantle">
	<g>
		<rect x="0.5" y="541.5" class="st1" width="1919" height="538"/>
		<path d="M1919,542v537H1V542H1919 M1920,541H0v539h1920V541L1920,541z"/>
	</g>
</g>
<g id="plate">
	<g>
		<linearGradient id="SVGID_1_" gradientUnits="userSpaceOnUse" x1="0.5" y1="355.479" x2="1919.5" y2="355.479">
			<stop  offset="0" style="stop-color:#BDBDBD"/>
			<stop  offset="0.4989" style="stop-color:#1A1A1A"/>
			<stop  offset="1" style="stop-color:#BDBDBD"/>
		</linearGradient>
		<path class="st2" d="M1919.5,510.49c-13.98-0.17-302.5-3.79-571.48-16.99c-61.79-3.03-111.87-9.08-160.31-14.93
			c-61.68-7.45-119.94-14.49-195.42-14.49c-10.59,0-21.46,0.14-32.31,0.42c-85.71,2.21-141.32,8.38-195.11,14.35
			c-43.46,4.82-88.39,9.8-148.9,12.66C335.4,504.73,15.3,510.24,0.5,510.49V261.5c15.1-0.01,351.96-0.48,630.52-14
			c57.81-2.81,90.21-7.11,121.53-11.27c32.53-4.32,66.17-8.79,128.47-11.73c3.66-0.17,7.41-1.73,11.38-3.38
			c4.13-1.72,8.4-3.49,12.61-3.62c3.12-0.09,7.21-1.46,11.55-2.92c4.43-1.49,9.01-3.02,12.45-3.08c3.37-0.06,7.11-1.21,11.07-2.44
			c4.03-1.25,8.2-2.54,11.93-2.56c1.8-0.01,5.07-1.46,8.53-2.99c3.33-1.48,6.77-3.01,8.47-3.01c11.22,0,19.59,2.69,27.68,5.29
			c7.19,2.31,13.98,4.49,22.31,4.71c1.04,0.03,2.16,0.04,3.31,0.04c1.75,0,3.61-0.02,5.45-0.05c1.83-0.02,3.66-0.05,5.38-0.05
			c1.51,0,2.78,0.02,3.86,0.06c0.31,0.01,0.62,0.02,0.93,0.02c6.91,0,12.99-2.71,18.86-5.33c5.45-2.43,10.6-4.73,16.05-4.73
			c0.38,0,0.77,0.01,1.15,0.04c2.62,0.16,5.64,1.87,8.57,3.52c3,1.69,5.83,3.29,8.43,3.48c4.45,0.32,8.28,1.98,11.99,3.59
			c3.46,1.5,7.04,3.05,11,3.41c3.82,0.35,7.71,2.36,11.47,4.29c3.59,1.85,7.3,3.77,10.89,4.16c4.38,0.47,8.31,2.18,12.11,3.83
			c3.65,1.58,7.42,3.21,11.51,3.72c54.29,6.68,104.91,9.96,185.04,14c265.68,13.41,560.55,16.84,574.53,17V510.49z"/>
		<path d="M1072.82,200.96c0.37,0,0.75,0.01,1.12,0.03c2.5,0.15,5.48,1.83,8.35,3.46c3.05,1.72,5.93,3.35,8.64,3.54
			c4.36,0.32,8.16,1.96,11.82,3.55c3.5,1.51,7.11,3.08,11.16,3.45c3.73,0.34,7.57,2.33,11.28,4.24c3.63,1.87,7.39,3.81,11.06,4.21
			c4.3,0.47,8.2,2.16,11.97,3.79c3.68,1.59,7.48,3.24,11.65,3.76c54.3,6.68,104.93,9.96,185.07,14.01
			c263.06,13.28,554.74,16.77,574.05,16.99v248c-19.29-0.24-304.7-3.92-570.95-16.99c-61.77-3.03-111.85-9.08-160.28-14.93
			c-61.7-7.45-119.97-14.49-195.47-14.49c-10.58,0-21.46,0.14-32.32,0.42c-85.73,2.21-141.36,8.38-195.15,14.35
			c-43.45,4.82-88.38,9.8-148.87,12.65C338.07,504.1,21.41,509.64,1,509.98V262c20.79-0.02,354.03-0.61,630.05-14
			c57.83-2.81,90.24-7.11,121.58-11.28c32.52-4.32,66.15-8.79,128.42-11.72c3.75-0.18,7.54-1.75,11.55-3.42
			c4.09-1.7,8.32-3.46,12.43-3.58c3.2-0.09,7.32-1.48,11.69-2.94c4.39-1.48,8.94-3,12.3-3.06c3.45-0.06,7.22-1.23,11.21-2.46
			c4-1.24,8.13-2.52,11.78-2.54c1.9-0.01,5.22-1.48,8.73-3.04c3.13-1.39,6.68-2.96,8.27-2.96c11.15,0,19.47,2.68,27.53,5.26
			c7.22,2.32,14.05,4.51,22.45,4.74c0.97,0.03,2.06,0.04,3.33,0.04c1.76,0,3.64-0.02,5.46-0.05c1.8-0.02,3.65-0.05,5.37-0.05
			c1.5,0,2.76,0.02,3.84,0.06c0.32,0.01,0.63,0.02,0.95,0.02c7.02,0,13.14-2.73,19.07-5.37
			C1062.38,203.24,1067.48,200.96,1072.82,200.96 M1072.82,199.96c-11.49,0-21.74,10.05-34.91,10.05c-0.3,0-0.61-0.01-0.91-0.02
			c-1.19-0.04-2.5-0.06-3.87-0.06c-3.45,0-7.33,0.1-10.83,0.1c-1.15,0-2.26-0.01-3.3-0.04c-17.69-0.47-28.81-10-50-10
			c-3.56,0-13.57,5.98-17,6c-7.38,0.04-16.19,4.89-23,5c-6.82,0.11-17.71,5.82-24,6c-8.28,0.24-16.56,6.65-24,7
			c-122.74,5.78-132.62,17.3-250,23C344.15,260.92,0,261,0,261v250c0,0,326.84-5.37,616-19c135.35-6.38,189-23,344-27
			c11.13-0.29,21.87-0.42,32.3-0.42c134.78,0,215.31,22.53,355.7,29.42c277.54,13.62,572,17,572,17V261c0,0-301.04-3.17-575-17
			c-81.72-4.12-131.12-7.37-185-14c-8.25-1.02-14.95-6.61-23.64-7.55c-7.17-0.78-14.72-7.75-22.36-8.45c-8.05-0.74-14.24-6.36-23-7
			c-5.07-0.37-11.64-6.67-17-7C1073.6,199.98,1073.21,199.96,1072.82,199.96L1072.82,199.96z"/>
	</g>
	<g>
		<path class="st3" d="M0.5,511.5c13.72-0.02,295.7-0.87,520.94-28.33c98.76-14.72,191.69-21.88,284.1-21.88
			c9.03,0,18.27,0.07,27.45,0.21l0.3,0c3.81,0,7.28-1.06,10.64-2.08c3.26-0.99,6.34-1.93,9.62-1.93c0.14,0,0.8,0.01,0.8,0.01
			c4.24,0,8.85-1.86,13.32-3.65c4.3-1.73,8.36-3.36,11.92-3.36c0.13,0,0.67,0.01,0.82,0.01c3.62,0,7.74-1.59,11.72-3.13
			c3.83-1.48,7.45-2.88,10.48-2.88c0.13,0,0.58,0.01,0.58,0.01c2.55,0,5.49-1.86,8.34-3.67c2.59-1.64,5.27-3.34,7.3-3.34l0.15,0
			c8.46,0.35,14.69,4.09,20.71,7.71c5.33,3.2,10.37,6.23,16.31,6.29c0.83,0.1,5.14,4.07,8.3,6.97c5.32,4.89,7.75,7.03,8.71,7.03
			c10.22,0,11.02-3.84,11.73-7.22c0.56-2.67,1-4.78,6.23-4.78c4.7,0,10.67-3.63,16.99-7.47c6.9-4.19,14.04-8.53,19.99-8.53
			c2.38,0.01,4.62,2.07,6.98,4.26c2.51,2.32,5.11,4.72,8.08,4.74c3.81,0.03,6.74,1.63,9.85,3.33c3.25,1.78,6.61,3.62,11.15,3.67
			c3.6,0.03,7.46,1.43,11.55,2.91c4.13,1.49,8.4,3.04,12.45,3.09c3.6,0.04,6.88,1.67,10.34,3.39c3.5,1.74,7.12,3.54,11.16,3.6
			c153.8,2.28,262.89,8.52,315.47,18.03c102.1,18.46,478.62,26.64,494.53,26.98v79.01c-15.8-0.08-380.43-2.19-493.43-18.99
			c-107.8-16.03-346.61-16.03-425.08-16.03c-8.96,0-17.19,0.01-24.6,0.01c-6.04,0-11.53,0.01-16.39,0.01
			c-19.58,0-45.9-1.13-76.38-2.43c-43.02-1.84-96.57-4.13-153.01-4.13c-78.9,0-145.53,4.44-203.69,13.57
			C368.02,587.45,16.1,594.2,0.5,594.49V511.5z"/>
		<path d="M1027.94,437l0.06,1c2.13,0.01,4.29,2.01,6.58,4.12c2.58,2.39,5.26,4.86,8.42,4.88c3.68,0.02,6.56,1.6,9.61,3.27
			c3.31,1.81,6.72,3.68,11.39,3.73c3.51,0.03,7.34,1.42,11.39,2.88c4.17,1.51,8.48,3.07,12.61,3.12c3.49,0.04,6.71,1.64,10.13,3.34
			c3.55,1.76,7.22,3.59,11.38,3.65c153.77,2.28,262.83,8.52,315.39,18.02c101.26,18.31,472.27,26.51,494.12,26.98v78.02
			c-21.75-0.12-380.89-2.34-492.85-18.98c-107.84-16.03-346.67-16.03-425.15-16.03c-8.96,0-17.2,0.01-24.6,0.01
			C970.35,555,964.87,555,960,555c-19.57,0-45.89-1.13-76.36-2.43c-43.03-1.84-96.57-4.13-153.02-4.13
			c-78.92,0-145.58,4.44-203.77,13.57C369.42,586.72,22.46,593.58,1,593.98V512c18.94-0.04,297.52-1.15,520.53-28.34
			c98.72-14.72,191.63-21.87,284.01-21.87c9.03,0,18.27,0.07,27.45,0.21l0.31,0c3.88,0,7.39-1.07,10.79-2.1
			c3.22-0.98,6.27-1.91,9.47-1.91c0.14,0,0.28,0,0.42,0.01c0.13,0,0.25,0,0.38,0c4.34,0,9-1.87,13.5-3.69
			c4.25-1.71,8.27-3.32,11.73-3.32c0.13,0,0.25,0,0.37,0.01c0.15,0.01,0.29,0.01,0.44,0.01c3.72,0,7.88-1.61,11.9-3.17
			c3.79-1.46,7.36-2.85,10.3-2.85c0.12,0,0.24,0,0.35,0.01c0.08,0,0.15,0,0.23,0c2.69,0,5.7-1.9,8.61-3.75
			c2.53-1.6,5.15-3.26,7.04-3.26c0.04,0,0.08,0,0.13,0c8.33,0.35,14.5,4.05,20.47,7.64c5.37,3.23,10.45,6.27,16.48,6.36
			c1,0.37,5.06,4.1,8.04,6.84c6.14,5.64,7.95,7.17,9.05,7.17c10.63,0,11.51-4.23,12.22-7.62c0.55-2.64,0.91-4.38,5.74-4.38h0.06
			c4.78,0,10.81-3.66,17.19-7.54c6.84-4.16,13.92-8.46,19.73-8.46V437 M918.83,437c-4.43,0-10.91,7.01-15.64,7.01
			c-0.06,0-0.13,0-0.19,0c-0.13-0.01-0.26-0.01-0.39-0.01c-6.37,0-15.28,6.02-22.2,6.02c-0.14,0-0.27,0-0.41-0.01
			c-0.14,0-0.27-0.01-0.41-0.01c-7.47,0-17.12,7.01-25.24,7.01c-0.12,0-0.24,0-0.35,0c-0.15,0-0.3-0.01-0.44-0.01
			c-6.83,0-12.92,4.01-20.26,4.01c-0.1,0-0.2,0-0.3,0c-8.78-0.13-17.93-0.21-27.46-0.21c-72.47,0-166.61,4.36-284.16,21.88
			C289,511,0,511,0,511v84c0,0,363.39-6.32,527-32c66.66-10.46,137.55-13.56,203.61-13.56c96.09,0,181.93,6.56,229.39,6.56
			c10.83,0,24.73-0.02,41-0.02c109.03,0,323.81,0.98,425,16.02c116.29,17.29,494,19,494,19v-80c0,0-390-8-494.94-26.98
			c-65.99-11.93-204.03-16.38-315.55-18.04c-7.79-0.12-14.01-6.89-21.5-6.98c-7.84-0.09-16.55-5.93-24-6c-8.67-0.08-12.98-6.95-21-7
			c-5.46-0.04-9.88-8.97-15-9c-0.02,0-0.04,0-0.06,0c-11.6,0-27.44,16-36.92,16c-0.01,0-0.01,0-0.02,0c-0.01,0-0.03,0-0.04,0
			c-12.43,0,0.02,12-17.96,12c-1.73,0-15.19-13.98-17-14c-12.29-0.14-20.75-13.33-37-14C918.94,437,918.89,437,918.83,437
			L918.83,437z"/>
	</g>
</g>
<g id="arrow">
	<g>
		<line class="st4" x1="969.5" y1="200.5" x2="919.5" y2="437.5"/>
	</g>
	<g>
		<line class="st4" x1="1019.5" y1="210.5" x2="968.5" y2="463.5"/>
	</g>
	<g>
		<line class="st4" x1="1035.5" y1="209.5" x2="982.27" y2="467.12"/>
	</g>
	<g>
		<line class="st4" x1="1076.5" y1="202.5" x2="1028.5" y2="437.5"/>
	</g>
	<g>
		<line class="st4" x1="1091.5" y1="207.5" x2="1043.5" y2="446.5"/>
	</g>
	<g>
		<line class="st4" x1="952.5" y1="206.5" x2="903.5" y2="444.5"/>
	</g>
	<g>
		<line class="st4" x1="929.5" y1="211.5" x2="880.5" y2="450.5"/>
	</g>
	<g>
		<line class="st4" x1="904.27" y1="217.12" x2="854.5" y2="457.5"/>
	</g>
	<g>
		<line class="st4" x1="881.5" y1="224.5" x2="832.5" y2="460.5"/>
	</g>
	<g>
		<line class="st4" x1="1114.5" y1="214.5" x2="1064.5" y2="453.5"/>
	</g>
	<g>
		<line class="st4" x1="1136.5" y1="222.5" x2="1088.5" y2="459.5"/>
	</g>
	<g>
		<line class="st4" x1="1160.5" y1="230.5" x2="1109.27" y2="467.12"/>
	</g>
	<polygon class="st5" points="1623.5,572.44 1623.25,557.26 1647.29,555.48 1646.54,542.37 1680.98,560.33 1648.92,584.14 
		1648.17,571.04 	"/>
	<polygon class="st5" points="1448.5,345.44 1448.25,330.26 1472.29,328.48 1471.54,315.37 1505.98,333.33 1473.92,357.14 
		1473.17,344.04 	"/>
	<polygon class="st5" points="504.55,330.71 502.9,345.81 478.83,344.57 477.93,357.66 446.01,335.53 480.79,315.93 479.9,329.02 	
		"/>
	<polygon class="st5" points="305.89,552.7 304.24,567.8 280.17,566.56 279.27,579.65 247.34,557.53 282.13,537.92 281.23,551.01 	
		"/>
</g>
<g id="Layer_5">
	<g class="st6">
		<polygon class="st7" points="898,452.94 0,452.94 0,197 969,197 		"/>
	</g>
	<g class="st6">
		<polygon class="st7" points="1920,452.94 898,455 969,197 1920,197 		"/>
	</g>
	<g>
		<path class="st1" d="M952.65,555.5c14.53-55,15.74-87.26,15.84-91.92l12.92,2.04c-0.57,2.92-3.19,17.76-1.4,35.07
			c1.8,17.4,8.53,40.84,30.25,54.81H952.65z"/>
		<path d="M968.98,464.17l11.84,1.87c-0.72,3.89-3.02,18.18-1.31,34.71c2.51,24.29,12.54,42.97,29.09,54.25H953.3
			C967.19,502.21,968.79,470.48,968.98,464.17 M968,463c0,0,0,32.66-16,93c48,0,0,0,60,0c-44-26.57-30-90.79-30-90.79L968,463
			L968,463z"/>
	</g>
</g>
</svg>
