<?xml version="1.0" encoding="utf-8"?>
<!-- Generator: Adobe Illustrator 25.0.0, SVG Export Plug-In . SVG Version: 6.00 Build 0)  -->
<svg version="1.1" xmlns="http://www.w3.org/2000/svg" xmlns:xlink="http://www.w3.org/1999/xlink" x="0px" y="0px"
	 viewBox="0 0 1920 1080" style="enable-background:new 0 0 1920 1080;" xml:space="preserve">
<style type="text/css">
	.st0{fill:#81D4FA;}
	.st1{fill:#B71C1C;}
	.st2{fill:#BDBDBD;}
	.st3{fill:#CCCCCC;stroke:#000000;stroke-miterlimit:10;}
	.st4{fill:#E0E0E0;}
	.st5{fill:url(#SVGID_1_);}
	.st6{stroke:#000000;stroke-miterlimit:10;}
	.st7{opacity:0.8;}
	.st8{fill:#42A5F5;}
	.st9{fill:#9E9E9E;}
</style>
<g id="sky">
	<g>
		<rect x="0.5" y="0.5" class="st0" width="1919" height="354"/>
		<path d="M1919,1v353H1V1H1919 M1920,0H0v355h1920V0L1920,0z"/>
	</g>
</g>
<g id="mantle">
	<g>
		<rect x="0.5" y="584.5" class="st1" width="1919" height="495"/>
		<path d="M1919,585v494H1V585H1919 M1920,584H0v496h1920V584L1920,584z"/>
	</g>
</g>
<g id="plate">
	<g>
		<polygon class="st2" points="0.5,263.5 973.35,263.5 906.62,509.5 0.5,511.5 		"/>
		<path d="M972.69,264l-66.46,245L1,511V264H972.69 M974,263H0v249l907-2L974,263L974,263z"/>
	</g>
	<path class="st3" d="M960,600"/>
	<path class="st3" d="M1588.5,577.5"/>
	<path class="st3" d="M960,600"/>
	<g>
		<polygon class="st4" points="932.41,599.5 915.66,540.5 1918.5,540.5 1918.5,599.5 		"/>
		<path d="M1918,541v58H932.79l-16.47-58H1918 M1919,540H915l17.03,60H1919V540L1919,540z"/>
	</g>
	<g>
		<linearGradient id="SVGID_1_" gradientUnits="userSpaceOnUse" x1="903.8584" y1="372.9146" x2="1918.5" y2="372.9146">
			<stop  offset="0.1882" style="stop-color:#BDBDBD"/>
			<stop  offset="0.3453" style="stop-color:#CCCCCC"/>
			<stop  offset="0.5147" style="stop-color:#BDBDBD"/>
		</linearGradient>
		<path class="st5" d="M974.11,259.22c10.82-14.72,118.8-22.19,320.96-22.19c152.17,0,332.65,4.16,464.43,7.2
			c65.04,1.5,121.24,2.8,159,3.26v251c-45.79-0.84-113.4-3.38-191.65-6.32c-151.28-5.68-339.56-12.75-500.28-12.75
			c-187.41,0-293.04,9.61-322.71,29.37L974.11,259.22z"/>
		<path d="M1295.13,237.53c152.15,0,332.61,4.16,464.37,7.2c64.75,1.49,120.75,2.78,158.5,3.26v249.99
			c-45.78-0.85-113.18-3.38-191.14-6.31c-151.28-5.68-339.56-12.75-500.29-12.75c-185.21,0-290.64,9.4-321.87,28.74l69.87-248.22
			c5.87-7.75,39.72-13.53,100.64-17.18c52.32-3.14,126.29-4.73,219.9-4.73H1295.13 M1295.06,236.53
			c-170.27,0-309.04,5.12-321.41,22.47L903,510c31.65-22.94,162.87-30.08,323.57-30.08c245.56,0,559.88,16.67,692.43,19.08V247
			C1803.99,245.6,1521.62,236.53,1295.06,236.53L1295.06,236.53z"/>
	</g>
</g>
<g id="arrow">
	<polygon class="st6" points="384.77,399.07 384.46,380.37 414.05,378.18 413.13,362.05 455.54,384.15 416.07,413.46 415.15,397.33 
			"/>
	<polygon class="st6" points="1745.97,385.55 1744.33,404.17 1714.67,403.28 1713.91,419.42 1674.03,393.03 1716.33,367.98 
		1715.57,384.12 	"/>
	<polygon class="st6" points="1534.26,564.01 1532.84,580.11 1507.21,579.34 1506.55,593.29 1472.08,570.48 1508.64,548.82 
		1507.99,562.77 	"/>
</g>
<g id="ocean">
	<g class="st7">
		<polygon class="st8" points="1148,482 0,480 0,231 1189,233 		"/>
	</g>
	<g class="st7">
		<polygon class="st8" points="1920,480 1148,482 1189,233 1920,231 		"/>
	</g>
	<g>
		<path class="st9" d="M904.95,546.5c-0.21-3.33-0.25-12.46,0.54-36.28c14.61-14.01,76.92-24.51,185.21-31.2
			c89.79-5.55,208.23-8.36,352.03-8.36c190.23,0,380.31,5.08,476.74,9.81l-2.95,61.02H905.64l-0.05,0.45
			C905.42,543.52,905.18,545.25,904.95,546.5z"/>
		<path d="M1442.75,471.16c189.88,0,379.62,5.06,476.21,9.79l-2.91,60.05H906.09h-0.76c-0.02-5.31,0.13-14.55,0.66-30.56
			c14.78-13.86,76.93-24.26,184.75-30.92C1180.51,473.97,1298.94,471.16,1442.75,471.16L1442.75,471.16 M1442.73,470.16
			c-253.24,0-506.34,9.01-537.73,39.84c-1.03,31.04-0.71,38.53-0.15,38.53c0.52,0,1.24-6.53,1.24-6.53H1917l3-62
			C1823.55,475.25,1633.1,470.16,1442.73,470.16L1442.73,470.16z"/>
	</g>
	<g>
		<path class="st9" d="M871.07,539.5l-9.01-1l-861.56,1v-29c14.77-0.14,341.41-3.15,594.55-3.15c151.38,0,247.24,1.06,284.92,3.15
			c48.46,2.69,74.55,34.93,78.95,40.85L871.07,539.5z"/>
		<path d="M595.05,507.84c151.37,0,247.22,1.06,284.89,3.15c27.6,1.53,47.67,12.74,59.63,21.87c9.61,7.33,15.68,14.53,18.22,17.82
			l-86.69-11.69l-9-1l-0.06-0.01l-0.06,0L1,539v-28.01C21.39,510.8,344.29,507.84,595.05,507.84 M595.05,506.84
			C334.32,506.84,0,510,0,510v30l862-1l9,1l89,12c0,0-26-39-80-42C837.39,507.63,725.44,506.84,595.05,506.84L595.05,506.84z"/>
	</g>
	<g>
		<path class="st4" d="M0.5,599.5v-59c13.94-0.06,305.6-1.29,555.81-1.29c149.84,0,255.71,0.43,314.69,1.29
			c40.7,0.59,92.79,6.73,109.82,32.62c8.19,12.45,4.56,24.34,3.84,26.38H0.5z"/>
		<path d="M556.38,539.71c149.79,0,255.64,0.43,314.6,1.29c32.69,0.47,58.95,4.16,78.05,10.97c14.94,5.32,25.48,12.52,31.34,21.38
			c7.72,11.7,4.81,22.94,3.92,25.65H904h-82H1v-58c19.24-0.08,307.59-1.28,555.35-1.28H556.38 M556.31,538.71
			C298.24,538.71,0,540,0,540v60c0,0,574,0,822,0c76.18,0,93.24,0,93.24,0H904h81c0,0,24-58-114-60
			C804.33,539.03,685.36,538.71,556.31,538.71L556.31,538.71z"/>
	</g>
	<polygon class="st6" points="647.5,579.44 647.25,564.26 671.29,562.48 670.54,549.37 704.98,567.33 672.92,591.14 672.17,578.04 	
		"/>
</g>
</svg>
